<svg enable-background="new 0 0 170.1 113.4" viewBox="0 0 170.1 113.4" xmlns="http://www.w3.org/2000/svg" xmlns:xlink="http://www.w3.org/1999/xlink"><clipPath id="a"><path d="m85.1 0c31.3 0 56.7 25.4 56.7 56.7s-25.4 56.7-56.7 56.7-56.7-25.4-56.7-56.7c0-31.3 25.4-56.7 56.7-56.7z"/></clipPath><path clip-rule="evenodd" d="m85.1 0c31.3 0 56.7 25.4 56.7 56.7s-25.4 56.7-56.7 56.7-56.7-25.4-56.7-56.7c0-31.3 25.4-56.7 56.7-56.7z" fill="#ccc" fill-rule="evenodd"/><g clip-path="url(#a)"><path d="m28.4 0h113.4v113.4h-113.4z" fill="#ff1612"/><path d="m73.7 18.9h22.7v26.4h26.5v22.7h-26.5v26.5h-22.7v-26.5h-26.5v-22.7h26.5z" fill="#f0f0f0"/></g></svg>