<svg enable-background="new 0 0 170.1 113.4" viewBox="0 0 170.1 113.4" xmlns="http://www.w3.org/2000/svg" xmlns:xlink="http://www.w3.org/1999/xlink"><clipPath id="a"><path d="m85 0c31.3 0 56.7 25.3 56.7 56.6s-25.3 56.7-56.6 56.7-56.7-25.3-56.7-56.6c0 0 0 0 0-.1-.1-31.2 25.3-56.6 56.6-56.6z"/></clipPath><g clip-rule="evenodd" fill-rule="evenodd"><path d="m85 0c31.3 0 56.7 25.3 56.7 56.6s-25.3 56.7-56.6 56.7-56.7-25.3-56.7-56.6c0 0 0 0 0-.1-.1-31.2 25.3-56.6 56.6-56.6z" fill="#ccc"/><g clip-path="url(#a)"><path d="m170.1 0v113.4h-170.1v-113.4z" fill="#0540a8"/><path d="m64.7 15 1.7 4.7 5 .1-4 3.1 1.4 4.8-4.1-2.8-4.1 2.8 1.4-4.7-4-3.1 5-.1zm40.3 70.5 1.7 4.7 5 .2-4 3.1 1.4 4.8-4.1-2.8-4.1 2.8 1.4-4.8-4-3.1 5-.2zm-40.3 0 1.7 4.7 5 .2-4 3.1 1.4 4.8-4.1-2.8-4.1 2.8 1.4-4.8-4-3.1 5-.2zm40.3-70.5 1.7 4.7 5 .1-4 3.1 1.4 4.8-4.1-2.8-4.1 2.8 1.4-4.8-4-3.1 5-.1zm14.9 55.7 1.7 4.7 5 .2-4 3.1 1.4 4.8-4.1-2.8-4.1 2.8 1.4-4.8-4-3.1 5-.2zm0-40.8 1.7 4.7 5 .2-4 3.1 1.4 4.8-4.1-2.8-4.1 2.8 1.4-4.8-4-3.1 5-.2zm-69.9 40.8 1.7 4.7 5 .2-4 3.1 1.4 4.8-4.1-2.8-4.1 2.8 1.4-4.8-4-3.1 5-.2zm75.6-20.2 1.7 4.7 5 .2-3.9 3.1 1.4 4.8-4.1-2.8-4.1 2.8 1.4-4.8-4-3.1 5-.2zm-81 0 1.7 4.7 5 .2-4 3.1 1.4 4.8-4.1-2.8-4.1 2.8 1.4-4.8-4-3.1 5-.2zm5.4-20.5 1.7 4.7 5 .2-4 3 1.4 4.8-4.1-2.8-4.2 2.8 1.4-4.8-4-3.1 5-.2zm34.9 61.1 1.7 4.7 5 .2-4 3.1 1.4 4.8-4.1-2.8-4.1 2.8 1.4-4.8-4-3.1 5-.2zm0-81.5 1.7 4.7 5 .1-4 3.1 1.4 4.8-4.1-2.8-4.1 2.8 1.4-4.8-4-3.1 5-.1z" fill="#ffda50"/></g></g></svg>