<svg enable-background="new 0 0 170.1 113.4" viewBox="0 0 170.1 113.4" xmlns="http://www.w3.org/2000/svg" xmlns:xlink="http://www.w3.org/1999/xlink"><clipPath id="a"><path d="m85 0c31.3 0 56.7 25.3 56.7 56.6s-25.3 56.7-56.6 56.7-56.7-25.3-56.7-56.6c0 0 0 0 0-.1-.1-31.2 25.3-56.6 56.6-56.6z"/></clipPath><g clip-rule="evenodd" fill-rule="evenodd"><path d="m85 0c31.3 0 56.7 25.3 56.7 56.6s-25.3 56.7-56.6 56.7-56.7-25.3-56.7-56.6c0 0 0 0 0-.1-.1-31.2 25.3-56.6 56.6-56.6z" fill="#ccc"/><g clip-path="url(#a)"><path d="m21 0h50v33.3zm78.1 0h49.9l-49.9 33.3zm71 14v24h-35.9zm0 61.4v24l-35.9-23.9zm-21 38h-50v-33.3zm-78 0h-50.1l50-33.3zm-71-14v-24h35.8zm-.1-61.4v-24l35.9 24z" fill="#0540a8"/><path d="m71 0h5.3v45h-76.3v-7h35.9l-35.9-24v-8.7l49 32.7h15.8l-56.9-38h13.1l50 33.3zm22.8 0h5.3v33.3l49.9-33.3h13.1l-56.9 38h15.8l49-32.7v8.7l-35.9 24h35.9v7h-76.2zm76.3 68.4v7h-35.9l35.9 23.9v8.8l-49.1-32.7h-15.8l56.9 38h-13.1l-49.9-33.3v33.3h-5.3v-45zm-93.8 45h-5.3v-33.3l-50 33.3h-13.1l56.9-38h-15.8l-49 32.7v-8.8l35.9-23.9h-35.9v-7h76.3z" fill="#f0f0f0"/><path d="m93.8 0v45h76.3v23.4h-76.3v45h-17.5v-45h-76.3v-23.4h76.3v-45zm76.3 108.1-49.1-32.7h-15.8l56.9 38h7.9zm-49.1-70.1 49-32.7v-5.3h-7.9l-56.9 38zm-56.2 0-56.9-38h-7.9v5.3l49 32.7zm-15.8 37.4-49 32.7v5.3h7.9l56.9-38z" fill="#ff1612"/></g></g></svg>