<svg enable-background="new 0 0 170.1 113.4" viewBox="0 0 170.1 113.4" xmlns="http://www.w3.org/2000/svg" xmlns:xlink="http://www.w3.org/1999/xlink"><clipPath id="a"><path d="m85 0c31.3 0 56.7 25.3 56.7 56.6s-25.3 56.7-56.6 56.7-56.7-25.3-56.7-56.6c0 0 0 0 0-.1-.1-31.2 25.3-56.6 56.6-56.6z"/></clipPath><g clip-rule="evenodd" fill-rule="evenodd"><path d="m85 0c31.3 0 56.7 25.3 56.7 56.6s-25.3 56.7-56.6 56.7-56.7-25.3-56.7-56.6c0 0 0 0 0-.1-.1-31.2 25.3-56.6 56.6-56.6z" fill="#ccc"/><g clip-path="url(#a)"><path d="m42.4 0h85.2v113.4h-85.2z" fill="#f0f0f0"/><g fill="#ff1612"><path d="m0 0h42.4v113.4h-42.4z"/><path d="m127.6 0h42.5v113.4h-42.5z"/><path d="m51.8 57.5 15.1 13.1c2.8 2.4.6 4.9-.7 7.2l17.3-2.1-.5 17.3h3.7l-.7-17.4 17.4 2.1c-1.2-2.5-2.8-5.5-.1-7.7l14.7-12.5c-1.4-.6-3.1-.8-3.4-2.4-.6-2.7 1.6-8.3 2.6-11.4-3 1.2-6.9 2.2-9.5 1.9-1.4-.1-2.2-3.7-2.8-5l-7.8 8.3c-2.1 2.2-2.9 1.2-2.3-1.6l3.7-17.6-5.2 3c-1.5.9-2 1-2.9-.8l-5.5-11.2-5.6 11.2c-.9 1.7-1 1.8-2.6.9l-5.2-2.8 3.1 17.4c.5 2.8 0 3.7-2.2 1.4l-7.3-8.1c-.7 1.9-1.6 4.3-2.9 5.1-1.6.5-6.1-1-9.3-1.9 1 3 3.5 8.1 3 10.9-.3 1.8-2.5 2.1-4.1 2.7z"/></g></g></g></svg>