<svg enable-background="new 0 0 170.1 113.4" viewBox="0 0 170.1 113.4" xmlns="http://www.w3.org/2000/svg" xmlns:xlink="http://www.w3.org/1999/xlink"><clipPath id="a"><path d="m85 0c31.3 0 56.7 25.3 56.7 56.6s-25.3 56.7-56.6 56.7-56.7-25.3-56.7-56.6c0 0 0 0 0-.1-.1-31.2 25.3-56.6 56.6-56.6z"/></clipPath><path clip-rule="evenodd" d="m85 0c31.3 0 56.7 25.3 56.7 56.6s-25.3 56.7-56.6 56.7-56.7-25.3-56.7-56.6c0 0 0 0 0-.1-.1-31.2 25.3-56.6 56.6-56.6z" fill="#ccc" fill-rule="evenodd"/><g clip-path="url(#a)"><path clip-rule="evenodd" d="m0 0h85 85.1v113.4h-85.1-85z" fill="#0540a8" fill-rule="evenodd"/><path d="m85 49.7-32-21.4 32-21.3v-7h-10.5l-32 21.3-32-21.3h-10.5v7l32 21.3-32 21.4v7h10.5l32-21.3 32 21.3h10.5z" fill="#f0f0f0"/><path d="m85 54.1-38.6-25.8 38.6-25.7v-2.6h-3.9l-38.6 25.7-38.6-25.7h-3.9v2.6l38.6 25.7-38.6 25.8v2.6h3.9l38.6-25.7 38.6 25.7h3.9z" fill="#ff1612"/><g clip-rule="evenodd" fill-rule="evenodd"><path d="m35.5 0h7 7v19h35.5v18.7h-35.5v19h-7-7v-19h-35.5v-18.7h35.5z" fill="#f0f0f0"/><path d="m46.9 0v22.5h38.1v11.7h-38.1v22.5h-4.4-4.4v-22.5h-38.1v-11.7h38.1v-22.5h4.4z" fill="#ff1612"/><path d="m129.1 74.7 1.1 3.4h3.6l-2.9 2.1 1.1 3.4-2.9-2.1-2.9 2.1 1.1-3.4-2.9-2.1h3.6zm18.7-38.1 1.1 3.4h3.6l-2.9 2.1 1.1 3.4-2.9-2.1-2.9 2.1 1.1-3.4-2.9-2.1h3.6zm-39.3 5.4 1.1 3.4h3.6l-2.9 2.1 1.1 3.4-2.9-2.1-2.9 2.1 1.1-3.4-2.9-2.1h3.6zm21-21 1.1 3.4h3.6l-2.9 2.1 1.1 3.4-2.9-2.1-2.9 2.1 1.1-3.4-2.9-2.1h3.6z" fill="#ff1612" stroke="#f5f5f5" stroke-miterlimit="2.41"/></g></g></svg>