<svg xmlns="http://www.w3.org/2000/svg" xmlns:xlink="http://www.w3.org/1999/xlink" width="870.851" height="494.834" viewBox="0 0 870.851 494.834">
  <defs>
    <linearGradient id="linear-gradient" x1="0.5" y1="-0.039" x2="0.5" y2="0.958" gradientUnits="objectBoundingBox">
      <stop offset="0.237" stop-color="#8cc6ff"/>
      <stop offset="1" stop-color="#0060ff" stop-opacity="0"/>
    </linearGradient>
    <linearGradient id="linear-gradient-2" x1="-25.103" y1="-0.039" x2="-25.103" y2="0.958" xlink:href="#linear-gradient"/>
    <linearGradient id="linear-gradient-3" x1="0.725" y1="-0.581" x2="0.361" y2="1.043" gradientUnits="objectBoundingBox">
      <stop offset="0.08" stop-color="#385fd4"/>
      <stop offset="0.212" stop-color="#3257c8"/>
      <stop offset="0.446" stop-color="#2344ab"/>
      <stop offset="0.751" stop-color="#0c247b"/>
      <stop offset="0.898" stop-color="#001462"/>
    </linearGradient>
    <linearGradient id="linear-gradient-4" x1="0.82" y1="0.205" x2="0.293" y2="0.736" gradientUnits="objectBoundingBox">
      <stop offset="0" stop-color="#f6b3b5"/>
      <stop offset="1" stop-color="#fad1d3"/>
    </linearGradient>
    <linearGradient id="linear-gradient-5" x1="0.366" y1="-0.117" x2="0.567" y2="0.831" xlink:href="#linear-gradient-4"/>
    <linearGradient id="linear-gradient-6" x1="1.32" y1="-1.661" x2="-0.244" y2="2.59" gradientUnits="objectBoundingBox">
      <stop offset="0" stop-color="#385fd4"/>
      <stop offset="0.16" stop-color="#3257c8"/>
      <stop offset="0.443" stop-color="#2344ab"/>
      <stop offset="0.813" stop-color="#0c247b"/>
      <stop offset="0.991" stop-color="#001462"/>
    </linearGradient>
    <linearGradient id="linear-gradient-7" x1="0.024" y1="-1.963" x2="0.817" y2="2.264" xlink:href="#linear-gradient-6"/>
    <linearGradient id="linear-gradient-8" x1="0.78" y1="-0.114" x2="0.167" y2="1.33" xlink:href="#linear-gradient-4"/>
    <linearGradient id="linear-gradient-9" x1="1.058" y1="-1.914" x2="-0.051" y2="2.919" xlink:href="#linear-gradient-6"/>
    <linearGradient id="linear-gradient-10" x1="1.837" y1="0.278" x2="-1.16" y2="0.756" xlink:href="#linear-gradient-6"/>
    <linearGradient id="linear-gradient-11" x1="-0.374" y1="0.5" x2="1.105" y2="0.5" xlink:href="#linear-gradient-4"/>
    <linearGradient id="linear-gradient-12" x1="0.5" y1="1.34" x2="0.5" y2="-0.151" gradientUnits="objectBoundingBox">
      <stop offset="0" stop-color="#385fd4"/>
      <stop offset="0.279" stop-color="#2c5fdc"/>
      <stop offset="0.77" stop-color="#0f5ff3"/>
      <stop offset="0.991" stop-color="#0060ff"/>
    </linearGradient>
    <linearGradient id="linear-gradient-13" x1="0.493" y1="1.236" x2="0.514" y2="-0.278" gradientUnits="objectBoundingBox">
      <stop offset="0" stop-color="#001462"/>
      <stop offset="0.069" stop-color="#071e71"/>
      <stop offset="0.252" stop-color="#183594"/>
      <stop offset="0.437" stop-color="#2647b0"/>
      <stop offset="0.623" stop-color="#3054c4"/>
      <stop offset="0.81" stop-color="#365cd0"/>
      <stop offset="1" stop-color="#385fd4"/>
    </linearGradient>
    <linearGradient id="linear-gradient-14" x1="1.773" y1="0.5" x2="-0.088" y2="0.5" gradientUnits="objectBoundingBox">
      <stop offset="0" stop-color="#385fd4"/>
      <stop offset="0.174" stop-color="#416ad8"/>
      <stop offset="0.48" stop-color="#5987e5"/>
      <stop offset="0.88" stop-color="#80b7f8"/>
      <stop offset="0.991" stop-color="#8cc6ff"/>
    </linearGradient>
    <linearGradient id="linear-gradient-15" x1="0.5" y1="-0.19" x2="0.5" y2="1.216" gradientUnits="objectBoundingBox">
      <stop offset="0" stop-color="#385fd4"/>
      <stop offset="0.17" stop-color="#4f7ce0"/>
      <stop offset="0.397" stop-color="#699ced"/>
      <stop offset="0.616" stop-color="#7cb3f7"/>
      <stop offset="0.822" stop-color="#88c1fd"/>
      <stop offset="1" stop-color="#8cc6ff"/>
    </linearGradient>
    <linearGradient id="linear-gradient-16" x1="0.496" y1="0.999" x2="0.504" y2="0.003" xlink:href="#linear-gradient-12"/>
    <linearGradient id="linear-gradient-17" x1="1.087" y1="0.417" x2="-0.153" y2="0.767" gradientUnits="objectBoundingBox">
      <stop offset="0" stop-color="#f6b3b5"/>
      <stop offset="0.991" stop-color="#fad1d3"/>
    </linearGradient>
    <linearGradient id="linear-gradient-18" x1="0.561" y1="0.433" x2="0.105" y2="0.79" xlink:href="#linear-gradient-17"/>
    <linearGradient id="linear-gradient-19" x1="0.5" y1="-2.309" x2="0.5" y2="2.879" gradientUnits="objectBoundingBox">
      <stop offset="0" stop-color="#8cc6ff"/>
      <stop offset="1" stop-color="#385fd4"/>
    </linearGradient>
    <linearGradient id="linear-gradient-20" x1="0.5" y1="-1.142" x2="0.5" y2="1.465" gradientUnits="objectBoundingBox">
      <stop offset="0" stop-color="#8cc6ff"/>
      <stop offset="0.174" stop-color="#82bafa"/>
      <stop offset="0.48" stop-color="#6a9ded"/>
      <stop offset="0.88" stop-color="#436dda"/>
      <stop offset="0.991" stop-color="#385fd4"/>
    </linearGradient>
    <linearGradient id="linear-gradient-21" x1="1.154" y1="0.34" x2="-0.141" y2="0.687" xlink:href="#linear-gradient-17"/>
    <linearGradient id="linear-gradient-22" x1="0.567" y1="-0.104" x2="0.42" y2="0.968" xlink:href="#linear-gradient-17"/>
    <linearGradient id="linear-gradient-23" x1="-3.555" y1="6.749" x2="0.835" y2="-0.016" gradientUnits="objectBoundingBox">
      <stop offset="0" stop-color="#8cc6ff"/>
      <stop offset="1" stop-color="#f6b3b5"/>
    </linearGradient>
    <linearGradient id="linear-gradient-24" x1="0.5" y1="2.747" x2="0.5" y2="-0.819" xlink:href="#linear-gradient-19"/>
    <linearGradient id="linear-gradient-25" x1="0.5" y1="2.586" x2="0.5" y2="-0.703" xlink:href="#linear-gradient-19"/>
    <linearGradient id="linear-gradient-26" x1="0.5" y1="-2.667" x2="0.5" y2="3.58" xlink:href="#linear-gradient-19"/>
    <linearGradient id="linear-gradient-27" x1="0.5" y1="-8.332" x2="0.5" y2="6.442" xlink:href="#linear-gradient-19"/>
    <linearGradient id="linear-gradient-28" x1="0.5" y1="1.073" x2="0.5" y2="-0.165" xlink:href="#linear-gradient-17"/>
    <linearGradient id="linear-gradient-29" x1="0.493" y1="1.237" x2="0.508" y2="-0.28" xlink:href="#linear-gradient-12"/>
    <linearGradient id="linear-gradient-30" x1="0.6" y1="1.4" x2="0.415" y2="-0.007" xlink:href="#linear-gradient-17"/>
    <linearGradient id="linear-gradient-31" x1="2.266" y1="0.145" x2="0.035" y2="0.647" gradientUnits="objectBoundingBox">
      <stop offset="0" stop-color="#8cc6ff"/>
      <stop offset="0.006" stop-color="#97c4f7"/>
      <stop offset="0.016" stop-color="#b4bee2"/>
      <stop offset="0.029" stop-color="#e4b6c1"/>
      <stop offset="0.033" stop-color="#f6b3b5"/>
      <stop offset="0.991" stop-color="#0060ff"/>
    </linearGradient>
    <linearGradient id="linear-gradient-32" x1="2.889" y1="0.358" x2="-0.099" y2="0.57" xlink:href="#linear-gradient-31"/>
    <linearGradient id="linear-gradient-33" x1="-2.302" y1="0.233" x2="4.871" y2="0.924" gradientUnits="objectBoundingBox">
      <stop offset="0.105" stop-color="#001462"/>
      <stop offset="0.297" stop-color="#132e89"/>
      <stop offset="0.49" stop-color="#2343aa"/>
      <stop offset="0.675" stop-color="#2e52c1"/>
      <stop offset="0.849" stop-color="#355bcf"/>
      <stop offset="1" stop-color="#385fd4"/>
    </linearGradient>
    <linearGradient id="linear-gradient-34" x1="-2.16" y1="0.268" x2="5.982" y2="0.959" xlink:href="#linear-gradient-33"/>
    <linearGradient id="linear-gradient-35" x1="-0.999" y1="-0.736" x2="2.936" y2="2.477" xlink:href="#linear-gradient-33"/>
    <linearGradient id="linear-gradient-36" x1="1.493" y1="-0.435" x2="0.155" y2="0.849" gradientUnits="objectBoundingBox">
      <stop offset="0" stop-color="#f6b3b5"/>
      <stop offset="0.088" stop-color="#eaafb8"/>
      <stop offset="0.243" stop-color="#cda5c1"/>
      <stop offset="0.448" stop-color="#9c94cf"/>
      <stop offset="0.694" stop-color="#597ee3"/>
      <stop offset="0.973" stop-color="#0561fd"/>
      <stop offset="0.991" stop-color="#0060ff"/>
    </linearGradient>
    <linearGradient id="linear-gradient-37" x1="0.414" y1="0.064" x2="0.577" y2="1.038" xlink:href="#linear-gradient-4"/>
    <linearGradient id="linear-gradient-38" x1="1.006" y1="-0.155" x2="-0.018" y2="0.867" xlink:href="#linear-gradient-4"/>
    <linearGradient id="linear-gradient-39" x1="2.22" y1="-2.095" x2="-0.329" y2="1.451" xlink:href="#linear-gradient-36"/>
    <linearGradient id="linear-gradient-40" x1="-0.163" y1="1.197" x2="1.109" y2="-0.229" gradientUnits="objectBoundingBox">
      <stop offset="0" stop-color="#001462"/>
      <stop offset="0.118" stop-color="#0e277f"/>
      <stop offset="0.267" stop-color="#1d3b9e"/>
      <stop offset="0.424" stop-color="#294bb5"/>
      <stop offset="0.591" stop-color="#3156c6"/>
      <stop offset="0.773" stop-color="#365cd0"/>
      <stop offset="1" stop-color="#385fd4"/>
    </linearGradient>
    <linearGradient id="linear-gradient-41" x1="0.5" y1="0.963" x2="0.5" y2="0.053" xlink:href="#linear-gradient-4"/>
    <linearGradient id="linear-gradient-42" x1="0.49" y1="0.576" x2="0.645" y2="-2.905" xlink:href="#linear-gradient-40"/>
    <linearGradient id="linear-gradient-43" x1="-29.396" y1="0.933" x2="-29.318" y2="-0.689" xlink:href="#linear-gradient-40"/>
    <linearGradient id="linear-gradient-44" x1="1.778" y1="0.5" x2="-0.958" y2="0.5" gradientUnits="objectBoundingBox">
      <stop offset="0" stop-color="#0060ff"/>
      <stop offset="0.089" stop-color="#0b63fb"/>
      <stop offset="0.245" stop-color="#286df2"/>
      <stop offset="0.451" stop-color="#587de4"/>
      <stop offset="0.699" stop-color="#9b94d0"/>
      <stop offset="0.979" stop-color="#efb0b6"/>
      <stop offset="1" stop-color="#f6b3b5"/>
    </linearGradient>
    <linearGradient id="linear-gradient-45" x1="2.139" y1="0.5" x2="-0.597" y2="0.5" xlink:href="#linear-gradient-44"/>
  </defs>
  <g id="Group_88352" data-name="Group 88352" transform="translate(-929.522 -194.138)">
    <g id="Group_88333" data-name="Group 88333" transform="translate(929.522 194.138)">
      <path id="Path_431966" data-name="Path 431966" d="M1106.035,375.29l-1,.461-1.82.881c-1.19.584-2.258,1.172-3.373,1.765q-3.227,1.792-6.251,3.7a135.709,135.709,0,0,0-11.52,8.141,156.292,156.292,0,0,0-20.2,18.914,173.911,173.911,0,0,0-16.6,21.753,193.626,193.626,0,0,0-12.938,23.8,210.632,210.632,0,0,0-9.478,25.062c-1.195,4.266-2.535,8.513-3.475,12.817l-1.513,6.442-1.242,6.471a270.2,270.2,0,0,0-3.95,31.952V496.94a198.26,198.26,0,0,1,7.918-29.421c5.774-17.272,14.3-37.276,23.772-58.911,7.764-17.694,14.394-33.26,20.538-45.889,6.115-12.608,12.218-21.923,17.2-26.9-4.924,4.924-14.192,11.311-24.192,22.019a155.839,155.839,0,0,0-29.133,43.856,208.485,208.485,0,0,0-16.1,60.226v-87.36a78.594,78.594,0,0,1,7.916-17.41c5.76-9.91,13.719-20.881,21.71-33.489a218.77,218.77,0,0,0,14.921-28.6c3.677-8.381,6.669-14.971,9.14-18.646-2.49,3.7-8.736,7.53-15.9,13.447a102.944,102.944,0,0,0-22.578,24.688,108.471,108.471,0,0,0-15.214,39.113V320.215c2.351-15.423,7.312-38.672,7.312-65.563,0-28.8-8.524-50.341-8.524-60.514,0,10.174-8.525,31.711-8.525,60.514,0,26.9,4.961,50.154,7.312,65.577v36.444a233.231,233.231,0,0,0-17.492-66.04,184.1,184.1,0,0,0-30.782-47.958c-10.491-11.861-20.1-19.348-25.794-24.317,5.79,5.056,12.143,15.375,18.718,29.074,6.635,13.724,13.746,30.775,22.235,50.034,10.194,23.636,19.13,45.473,25.151,64.319a209.585,209.585,0,0,1,7.964,32.294v56.251q-1.111-10.466-2.93-20.742a336.868,336.868,0,0,0-11.261-45.076,387.747,387.747,0,0,0-16.745-43.081c-3.2-7.034-6.746-13.974-10.489-20.883a200.82,200.82,0,0,0-13.163-20.829c6.121,8.266,6.959,16.883,6.215,25.16a68.43,68.43,0,0,1-2.612,12.043c-1.236,3.882-2.671,7.568-4.052,10.993-2.04,4.952-1.719,8.693-.05,11.807,1.583,3.15,4.42,5.724,7.359,8.182,5.7,4.943,11.752,9.6,7.532,16.445-4.091,6.785-9.095,13.156-8.693,20.538.145,3.716,1.517,7.716,5.042,12.361,3.3,4.7,8.863,10,16.742,16.9a94.645,94.645,0,0,1,12.99,13.8,118.15,118.15,0,0,1,9,13.805c2.3,4.263,3.857,8.018,4.979,10.671.048.114.089.214.134.325v64.321c-.232-1.438-7.319-41.991-31.411-64.419-22.637-21.076-43.763-27.779-49.319-30.864,5.6,3.1,37.473,42.457,47.883,56.015,16.065,20.919,32.842,47.106,32.842,76.089l0,.039v87.762h2.426V550.824a39.491,39.491,0,0,1,1.985-7.423,49.584,49.584,0,0,1,6.653-11.736,74.534,74.534,0,0,1,8.983-9.535c3.264-2.828,6.578-5.331,9.69-7.6,4.586-3.246,6.5-6.78,7.071-10.578.713-3.748-.164-7.848-.765-11.841-.341-2.006-.711-4.011-.958-5.949a24.076,24.076,0,0,1-.007-5.472,8.652,8.652,0,0,1,5.951-7.657c7.741-2.9,15.745-4.522,20.708-10.3a18.2,18.2,0,0,0,3.289-5.22,33.809,33.809,0,0,0,2.3-7.418c1.2-5.9,1.808-13.635,2.771-24.706a78.2,78.2,0,0,1,13.308-36.022c6.228-9.183,12.658-14.264,13.74-14.659Z" transform="translate(-929.522 -194.138)" fill="url(#linear-gradient)"/>
      <path id="Path_431967" data-name="Path 431967" d="M1252.445,380.575l.788.361,1.429.7c.936.457,1.774.92,2.651,1.385q2.538,1.411,4.913,2.907a106.717,106.717,0,0,1,9.056,6.4,122.73,122.73,0,0,1,15.872,14.864,136.677,136.677,0,0,1,13.049,17.1,152.607,152.607,0,0,1,10.169,18.707,165.392,165.392,0,0,1,7.448,19.7c.94,3.353,1.992,6.692,2.73,10.074l1.193,5.065.975,5.086a212.7,212.7,0,0,1,3.1,25.112v-31.84a155.764,155.764,0,0,0-6.224-23.123c-4.538-13.576-11.241-29.3-18.684-46.3-6.1-13.908-11.312-26.139-16.141-36.065-4.806-9.91-9.6-17.231-13.519-21.14,3.871,3.87,11.155,8.892,19.014,17.306a122.545,122.545,0,0,1,22.9,34.47,163.918,163.918,0,0,1,12.656,47.333V380.007a61.747,61.747,0,0,0-6.221-13.685c-4.527-7.789-10.782-16.411-17.065-26.321a172.043,172.043,0,0,1-11.725-22.475c-2.889-6.587-5.24-11.768-7.185-14.655,1.958,2.905,6.867,5.917,12.493,10.569a80.894,80.894,0,0,1,17.746,19.4,85.3,85.3,0,0,1,11.957,30.741V337.289c-1.849-12.122-5.747-30.393-5.747-51.531,0-22.637,6.7-39.563,6.7-47.56,0,8,6.7,24.924,6.7,47.56,0,21.142-3.9,39.42-5.749,51.542v28.642a183.266,183.266,0,0,1,13.749-51.9,144.664,144.664,0,0,1,24.192-37.694c8.245-9.322,15.8-15.207,20.274-19.111-4.552,3.973-9.547,12.084-14.714,22.85-5.212,10.787-10.8,24.188-17.476,39.324-8.009,18.578-15.034,35.74-19.766,50.552a164.927,164.927,0,0,0-6.26,25.38v44.21q.875-8.225,2.3-16.3a264.64,264.64,0,0,1,8.852-35.427,304.757,304.757,0,0,1,13.16-33.859c2.517-5.529,5.3-10.982,8.245-16.413a157.834,157.834,0,0,1,10.344-16.372c-4.811,6.5-5.47,13.269-4.884,19.777a53.685,53.685,0,0,0,2.053,9.465c.97,3.05,2.1,5.949,3.185,8.64,1.6,3.891,1.351,6.832.038,9.279-1.242,2.478-3.473,4.5-5.785,6.43-4.481,3.886-9.235,7.548-5.919,12.926,3.216,5.331,7.148,10.339,6.834,16.14-.115,2.921-1.192,6.065-3.966,9.715-2.592,3.7-6.964,7.861-13.158,13.281a74.183,74.183,0,0,0-10.21,10.848,92.624,92.624,0,0,0-7.073,10.848c-1.808,3.35-3.032,6.3-3.916,8.386-.036.091-.068.17-.1.257v50.554c.182-1.131,5.753-33,24.688-50.631,17.792-16.563,34.4-21.833,38.761-24.256-4.4,2.433-29.45,33.369-37.632,44.024-12.626,16.442-25.812,37.023-25.812,59.8l0,.03v68.977h-1.906V518.536a30.989,30.989,0,0,0-1.561-5.833,38.923,38.923,0,0,0-5.229-9.224,58.51,58.51,0,0,0-7.06-7.5c-2.567-2.221-5.17-4.188-7.618-5.976-3.6-2.551-5.1-5.329-5.556-8.313-.561-2.946.129-6.169.6-9.306.268-1.576.561-3.153.754-4.677a18.912,18.912,0,0,0,.007-4.3,6.8,6.8,0,0,0-4.679-6.019c-6.083-2.278-12.375-3.555-16.274-8.1a14.327,14.327,0,0,1-2.585-4.1,26.6,26.6,0,0,1-1.81-5.831c-.94-4.638-1.419-10.716-2.178-19.416a61.439,61.439,0,0,0-10.457-28.313c-4.9-7.218-9.951-11.212-10.8-11.523Z" transform="translate(-520.325 -138.121)" fill="url(#linear-gradient-2)"/>
    </g>
    <g id="Group_88343" data-name="Group 88343" transform="translate(1043.04 303.641)">
      <g id="Group_88335" data-name="Group 88335" transform="translate(166.714 33.982)">
        <path id="Path_431968" data-name="Path 431968" d="M1071.071,503.43c3.725,15.738,9.2,33.407,14.889,50.075h94.3c2.124-6.853,4.239-14.214,6.244-22.026,11.586-45.123-.609-84.148-11.584-101.83s-20.427-38.72-3.687-64.509,18.321-45.857,18.321-45.857c-2.439-9.756-10.062-13.108-29.857-22.557,0,0-1.181-.393-3.016-1.013-4.193,17.026-13.04,30.568-28.713,33.328-20.422,3.6-38.854-8.861-48.178-30.727-8.99,2.653-19,5.483-23.772,8.166,0,0,25,54.268,29.766,84.954S1059.673,455.258,1071.071,503.43Z" transform="translate(-1048.932 -208.484)" fill="url(#linear-gradient-3)"/>
        <g id="Group_88334" data-name="Group 88334" transform="translate(30.857 52.567)">
          <path id="Path_431969" data-name="Path 431969" d="M1114.66,348.441c15.673-2.76,24.52-16.3,28.713-33.33-6.56-2.219-21.985-7.514-26.273-9.658-5.488-2.744-3.964-25-3.964-25l-28.978,8.27V310.33c0,2.026-8.279,4.609-17.676,7.384C1075.806,339.581,1094.238,352.037,1114.66,348.441Z" transform="translate(-1066.482 -280.452)" fill="url(#linear-gradient-4)"/>
          <path id="Path_431970" data-name="Path 431970" d="M1103.241,280.61l-28.976,8.27v18.364c12.245,6.614,25.982,18.893,30.65,41.321,15.575-2.821,24.383-16.322,28.563-33.3-6.56-2.219-21.985-7.514-26.273-9.658C1101.717,302.867,1103.241,280.61,1103.241,280.61Z" transform="translate(-1056.587 -280.251)" fill="#cb9eae"/>
        </g>
        <path id="Path_431971" data-name="Path 431971" d="M1139.657,341.141c-12.931,3.957-25.135,8.3-31.592,8.3-12.806,0-31.709-17.987-40.649-6.989s-10.267,18.271-3.269,23.148,29.283-1.828,39.954.307c4.761.952,21.006,1.779,38.261,1.513C1143.832,360.562,1143.618,348.024,1139.657,341.141Z" transform="translate(-1044.273 -153.584)" fill="url(#linear-gradient-5)"/>
        <path id="Path_431972" data-name="Path 431972" d="M1127.682,308c-3.005-12.022-27.745,10.062-21.646,30.184,5.229,17.253,3.328,40.437,3.328,40.437l24.22,24.5C1141.815,393.059,1130.122,317.756,1127.682,308Z" transform="translate(-986.562 -197.2)" fill="url(#linear-gradient-6)"/>
        <path id="Path_431973" data-name="Path 431973" d="M1130.37,337.4c-9.365-1.367-22.775,2.14-35.479,6.026,3.961,6.882,4.175,19.42,2.705,26.28,21.408-.329,44.376-2.346,48.932-7.916C1146.529,361.789,1157.5,341.362,1130.37,337.4Z" transform="translate(-999.507 -155.867)" fill="url(#linear-gradient-7)"/>
        <path id="Path_431974" data-name="Path 431974" d="M1072.958,268.453c-5.085,9.89-4.52,43.517,9.608,46.627,12.343,2.714,19.218-9.326,19.218-9.326v-22.3a16.311,16.311,0,0,1-7.913-12.17c-.761-6.837-4.8-7.561-4.8-7.561S1080.587,268.734,1072.958,268.453Z" transform="translate(-1031.112 -249.162)" fill="url(#linear-gradient-8)"/>
        <path id="Path_431975" data-name="Path 431975" d="M1072.771,386.336c-6.378-12.845-10.616-29.037-14.353-38.175-7.048-17.247-8.2-41.291,1.563-46.779,17.987-9.21,25.61,22.466,26.827,31.659s3.659,30.682,10.366,38.384Z" transform="translate(-1052.897 -203.387)" fill="url(#linear-gradient-9)"/>
        <path id="Path_431976" data-name="Path 431976" d="M1131.859,329.042c-12.193-7.62,1.4-49.652-19.05-65.827-16.835-13.315-43.688-3.3-43.688,21.844v60.269c6.657-2.081,11.684-4,11.684-5.574v-17.7c-11.223-7.144-11.455-36.185-6.689-45.45,7.63.282,16.109-4.736,16.109-4.736s4.043.725,4.8,7.561a16.311,16.311,0,0,0,7.913,12.17v22.3c0,20.942,5.04,43.842,16.979,45.112s13.969-14.478,23.114-13.462C1143.034,345.55,1144.049,336.662,1131.859,329.042Z" transform="translate(-1032.27 -257.309)" fill="#0060ff"/>
        <path id="Path_431977" data-name="Path 431977" d="M1079.084,324.474c-6.66,9.1-17.09,17.058-17.437,30.4,5.665,11.393,13.01,20.149,23.184,19,15-1.69,20.188-19.336,21.962-35.493C1096.776,339.154,1084.013,331.225,1079.084,324.474Z" transform="translate(-1041.772 -171.916)" fill="url(#linear-gradient-10)"/>
        <path id="Path_431978" data-name="Path 431978" d="M1091.969,288.354c-2.859,1.3-13,10.139-13,12.349s4.549,18.85,4.549,23.92-4.647,27.159-10.748,40.231a33.96,33.96,0,0,1-3.448,5.656c4.929,6.751,17.692,14.68,27.708,13.908a176.327,176.327,0,0,0,.9-19.08s1.024-36.955,2.7-39.581c1.529-2.4,1.517-6.349,1.517-9.717v-6.848s2.328-.15,2.462-4.152c0-.118,0-.241,0-.366C1104.621,300.313,1094.829,287.053,1091.969,288.354Z" transform="translate(-1032.012 -217.952)" fill="url(#linear-gradient-11)"/>
      </g>
      <g id="Group_88340" data-name="Group 88340" transform="translate(239.125 18.485)">
        <g id="Group_88336" data-name="Group 88336" transform="translate(232.892)">
          <path id="Path_431979" data-name="Path 431979" d="M1187.336,295.5V403.364s36,1.1,34.9,0,0-50.114,0-50.114Z" transform="translate(-1187.278 -193.254)" fill="url(#linear-gradient-12)"/>
          <path id="Path_431980" data-name="Path 431980" d="M1233.606,351.919c2.975,20.19,1.113,43.193,0,51.883s-26.711,86.367-26.711,86.367h62.4l17.183-82.29-22.8-62.865Z" transform="translate(-1162.412 -130.305)" fill="url(#linear-gradient-13)"/>
          <path id="Path_431981" data-name="Path 431981" d="M1236.462,351.919c2.975,20.19,1.113,43.193,0,51.883s-31.815,87.021-31.815,87.021h67.508l17.183-82.944-22.8-62.865Z" transform="translate(-1165.269 -130.305)" fill="url(#linear-gradient-14)"/>
          <path id="Path_431982" data-name="Path 431982" d="M1286.737,338.631c9.192,28.812,50.389,38.13,39.022,84.67-8.2,33.6-24.937,75.637-24.937,75.637h-77.883s24.427-73.243,24.427-82.944-15.336-59.551-15.336-59.551Z" transform="translate(-1142.013 -138.42)" fill="url(#linear-gradient-15)"/>
          <path id="Path_431983" data-name="Path 431983" d="M1199.961,284.76c-9.192,4.379-17.59,23.893-9.192,42.214s9.592,15.043,12.777,29.426,1.935,22.346,28.247,40.267,25.517,22.7,26.711,31.858,75.269,7.168,74.074-27.079.7-73.8-21.358-92.456S1199.961,284.76,1199.961,284.76Z" transform="translate(-1187.31 -206.91)" fill="url(#linear-gradient-16)"/>
          <path id="Path_431984" data-name="Path 431984" d="M1188.833,266.089v102.8s37.323-20.027,36.992-39.62-16.877-63.183-16.877-63.183Z" transform="translate(-1185.374 -230.648)" fill="#001462"/>
          <path id="Path_431985" data-name="Path 431985" d="M1200.374,305.347s4.97,8.045,6.655,11.5-5.794,18.743-3.327,31.847,18.677,10.871,22.3,0c1.093-3.275,3.993-26.523,3.993-26.523V283.73Z" transform="translate(-1170.701 -208.22)" fill="url(#linear-gradient-17)"/>
          <path id="Path_431986" data-name="Path 431986" d="M1207.029,316.851c10.487-11.752,21.344,38,4.152,40.526.041.011.084.016.125.025l2.462.273A13.142,13.142,0,0,0,1226,348.7c1.093-3.275,3.993-26.523,3.993-26.523V283.73l-29.621,21.617S1205.344,313.392,1207.029,316.851Z" transform="translate(-1170.701 -208.22)" fill="#cb9eae"/>
          <path id="Path_431987" data-name="Path 431987" d="M1191.779,280.557c-5.1,31.627.509,60.784,15.759,64.237s37.112-13.224,37.112-27.94,14.744-53.053-2.032-61.8S1195.03,260.4,1191.779,280.557Z" transform="translate(-1183.964 -248.048)" fill="url(#linear-gradient-18)"/>
          <path id="Path_431988" data-name="Path 431988" d="M1206.009,280.11a134.179,134.179,0,0,1-13.81,10.164c-5.842,3.473-4.411-16.581,6.905-26.005s26.155-17.446,32.172-12.031c0,0,18.85-5.215,30.28,14.037s12.233,36.5,15.843,41.31,9.626,7.82,6.819,16.845c0,0,20.052-4.011,23.061,9.826s2.006,18.31,2.006,18.31-6.233-4.874-19.014-9.349c0,0-8.608,6.78-16.831,6.78s-18.58,33.174-33.019,33.174l-.121-78.994S1207.686,300.014,1206.009,280.11Z" transform="translate(-1185.374 -250.486)" fill="#001462"/>
        </g>
        <g id="Group_88338" data-name="Group 88338" transform="translate(0 63.466)">
          <path id="Path_431989" data-name="Path 431989" d="M1155.3,337.515c-37.889,39.452-70.524,159.8-70.524,159.8h54.393l34-79.9Z" transform="translate(-1084.777 -203.305)" fill="url(#linear-gradient-19)"/>
          <path id="Path_431990" data-name="Path 431990" d="M1313.926,360.349c-7.927-9.008-50.147-38.645-103.982-35.424-47.467,2.841-85.86,17.505-93.344,28.908-5.474,8.343,6.516,64.646,14.859,87.064a196.6,196.6,0,0,1,11.99,66.731s134.243-.781,135.024,0,16.683-49.527,18.768-74.551S1294.637,380.421,1313.926,360.349Z" transform="translate(-1046.076 -219.622)" fill="url(#linear-gradient-20)"/>
          <path id="Path_431991" data-name="Path 431991" d="M1200.2,304.221s.67,41.723,0,54.177-19.974,23.663-27.134,23.974-23.041-10.276-25.533-28.022V316.675Z" transform="translate(-1004.991 -245.634)" fill="url(#linear-gradient-21)"/>
          <path id="Path_431992" data-name="Path 431992" d="M1200.451,326.889c-.082-12.091-.252-22.668-.252-22.668l-52.667,12.454v30.893c4.388,19.309,33.514,14.033,40.449-4.268C1191.953,332.811,1195.351,329.7,1200.451,326.889Z" transform="translate(-1004.991 -245.634)" fill="#cb9eae"/>
          <path id="Path_431993" data-name="Path 431993" d="M1141.44,317.857c1.978,30.568,14.437,60.16,34.177,57.039,24.486-3.87,31.92-41,30.952-61.243s-12.5-32.887-30.055-32.905C1159.815,280.731,1139.766,291.977,1141.44,317.857Z" transform="translate(-1012.862 -275.478)" fill="url(#linear-gradient-22)"/>
          <path id="Path_431994" data-name="Path 431994" d="M1177.7,308.155c-1.308,6.094-4.275,10.719-6.623,10.326s-3.189-5.649-1.881-11.745,4.275-10.719,6.623-10.326S1179.007,302.059,1177.7,308.155Z" transform="translate(-978.237 -255.594)" fill="url(#linear-gradient-23)"/>
          <path id="Path_431995" data-name="Path 431995" d="M1143.683,325.589c-3.73-5.708-3.989-7.952-3.714-17.433s8.272-9.812,8.1-13.862,5-14.937,26.1-15.811,19.836,8.8,26.373,9.428,16.669,7.332,11.734,31.331c0,0-5.737.547-8,12.145a1.039,1.039,0,0,1-1.84.348,15.194,15.194,0,0,1-1.935-4.445c-1.574-5.8-7.891,2.916-9.035-8.643-.818-8.234-20.913,6.878-35.82-6.483,0,0-2.214,2.948-8.565,2.76C1143.4,314.816,1143.683,325.589,1143.683,325.589Z" transform="translate(-1014.707 -278.427)" fill="#0060ff"/>
          <g id="Group_88337" data-name="Group 88337" transform="translate(124.484 107.036)">
            <path id="Path_431996" data-name="Path 431996" d="M1157.627,376.065s1.738,2.221,4.983-2.732,14.346-20.006,18.2-18.519l-.018-.027c-7.809-1.622-20.917-11.773-23.161-27.77v-1.3c-6.21.865-12.163,1.922-17.819,3.119C1138.244,337.679,1144.874,366.3,1157.627,376.065Z" transform="translate(-1139.583 -325.336)" fill="#385fd4"/>
            <path id="Path_431997" data-name="Path 431997" d="M1184.023,331.279c-.582,10.83-15.255,20.715-23.779,23.313v0c4.025-1.567,18.818,17.894,21.383,22.182s7.273-1.517,11.957-13.481c3.4-8.686,8.661-23.654,6.456-34.223a151.562,151.562,0,0,0-15.827-3.523C1184.166,327.8,1184.1,329.767,1184.023,331.279Z" transform="translate(-1113.314 -325.551)" fill="#385fd4"/>
          </g>
          <path id="Path_431998" data-name="Path 431998" d="M1156.589,331.369V322.3c-7.87,3.457-15.161,6.378-15.963,10.882-1.574,8.827,5.51,34.48,15.963,43.536,0,0,1.738,2.221,4.986-2.735s14.346-16.3,18.2-14.814l-.018-.027C1171.942,357.517,1158.836,347.366,1156.589,331.369Z" transform="translate(-1014.049 -222.652)" fill="url(#linear-gradient-24)"/>
          <path id="Path_431999" data-name="Path 431999" d="M1197.184,331.57c-2.178-4.927-9.245-8.931-12.861-10.644-.018,6.7-.1,12.667-.293,16.234-.581,10.83-15.254,20.715-23.779,23.313l0,0c4.027-1.567,18.821,14.192,21.385,18.48s5.733-.711,10.937-12.458C1197.868,354.533,1200.738,339.608,1197.184,331.57Z" transform="translate(-988.823 -224.396)" fill="url(#linear-gradient-25)"/>
          <path id="Path_432000" data-name="Path 432000" d="M1247.616,462.652c0-34.6-10.078-103.934-26.066-122.268,0,0-25.026,13.385-32.942,55.81-2.365,12.677,1.663,48.891,2.705,64.185Z" transform="translate(-953.699 -199.657)" fill="url(#linear-gradient-26)"/>
          <path id="Path_432001" data-name="Path 432001" d="M1171.528,438.143h75.937c11.248,0,23.345-9.183,21.646-34.057s-42.4-21.39-56.3-2.274l-41.839,6.392Z" transform="translate(-975.194 -141.091)" fill="url(#linear-gradient-27)"/>
          <path id="Path_432002" data-name="Path 432002" d="M1180.4,426.752l3.591-3.368,10.923,3.873a17.672,17.672,0,0,0,5.906,1.015h21.676s10.258-2.2,10.594-14.3-10.09-15.636-14.628-15.636h-23.768a17.2,17.2,0,0,1-3.543-.368l-16.9-3.53a10.408,10.408,0,0,0-7.312,1.161l-9.578,5.5a24.208,24.208,0,0,0-5.068,3.884L1134.91,422.4a3.44,3.44,0,0,0,2.435,5.869h39.211A5.614,5.614,0,0,0,1180.4,426.752Z" transform="translate(-1022.325 -131.219)" fill="url(#linear-gradient-28)"/>
        </g>
        <g id="Group_88339" data-name="Group 88339" transform="translate(143.197 104.52)">
          <path id="Path_432003" data-name="Path 432003" d="M1311.571,298.413c-16.279-9.408-44.807,17.353-38.67,48.982s-28.6,70.878-28.6,70.878-39.372,15.809-55.176,18.8a61.2,61.2,0,0,1,10.076,23.677c25.855-2.131,62.956-7.389,77.949-19.884,22.662-18.884,46.734-88.52,46.738-110.646C1323.893,304.482,1311.571,298.413,1311.571,298.413Z" transform="translate(-1095.31 -296.502)" fill="url(#linear-gradient-29)"/>
          <path id="Path_432004" data-name="Path 432004" d="M1237.516,358.88h-50.9s-36.351,12.313-37.294,14.419-2.834,14.628,0,17.571,21.244,8.138,25.964,7.2,41.546-14.637,50.043-14.637c2.875,0,13.165-.273,26.384-1.361a61.2,61.2,0,0,0-10.076-23.677A23.438,23.438,0,0,1,1237.516,358.88Z" transform="translate(-1147.821 -217.816)" fill="url(#linear-gradient-30)"/>
        </g>
      </g>
      <g id="Group_88342" data-name="Group 88342">
        <path id="Path_432005" data-name="Path 432005" d="M1043.688,359.014s12.756,10.092,25.8,0,4.059-27.329,4.059-27.329l-29.859,15.906Z" transform="translate(-897.891 -128.766)" fill="url(#linear-gradient-31)"/>
        <path id="Path_432006" data-name="Path 432006" d="M1065.526,302.082v75.466h-24.54V306.212Z" transform="translate(-901.326 -166.403)" fill="url(#linear-gradient-32)"/>
        <g id="Group_88341" data-name="Group 88341" transform="translate(36.914 266.647)">
          <path id="Path_432007" data-name="Path 432007" d="M1047.788,414.1c-2.362,12.593-15.781,30.282-24.317,55.817h48.769c4.677-30.677,8.9-71.855,2.233-108.458h-28.12C1048.949,373.8,1050.01,402.252,1047.788,414.1Z" transform="translate(-960.508 -357.56)" fill="url(#linear-gradient-33)"/>
          <path id="Path_432008" data-name="Path 432008" d="M1013.586,411.372s5.644,27.4,9.5,58.545h12.951c8.536-25.535,21.955-43.224,24.317-55.817,2.222-11.848,1.161-40.3-1.435-52.641h-44.172Z" transform="translate(-973.076 -357.56)" fill="url(#linear-gradient-34)"/>
          <path id="Path_432009" data-name="Path 432009" d="M1081.6,363.64a26.547,26.547,0,0,0-1.072-3.9H995.751c1.168,40.8,4.384,81.409,6.314,112.356h56.648c8.536-25.535,21.955-43.224,24.317-55.817C1085.253,404.434,1084.192,375.978,1081.6,363.64Z" transform="translate(-995.751 -359.742)" fill="url(#linear-gradient-35)"/>
        </g>
        <path id="Path_432010" data-name="Path 432010" d="M1071.6,274.743c-50.143-13.456-84.011,8.933-89.572,41.082-5.079,29.362,31.79,120.279,31.79,157.045,0,0,59.435,30.636,113.964,3.9,0,0-8.179-38.993,0-73.531s19.054-54.325,9.817-79.1C1129.525,302.49,1095.048,281.034,1071.6,274.743Z" transform="translate(-976.9 -206.223)" fill="url(#linear-gradient-36)"/>
        <path id="Path_432011" data-name="Path 432011" d="M1045.777,258s-18.925,23.8-26.911,31.388,6.75,23.107,17.93,29.694c7.384,4.352,22.954,9.181,18.364-4.391,0,0-2.6-7.586,9.98-18.366C1065.141,296.328,1051.167,254.609,1045.777,258Z" transform="translate(-932.341 -222.694)" fill="url(#linear-gradient-37)"/>
        <path id="Path_432012" data-name="Path 432012" d="M1051.118,291.9s-6.48-19.336-12.315-30.609l-6.165,2.91c-7.184,14.734-8.472,42.5,8.5,46.066C1041.137,310.265,1038.541,302.679,1051.118,291.9Z" transform="translate(-918.318 -218.265)" fill="#cb9eae"/>
        <path id="Path_432013" data-name="Path 432013" d="M1038.429,265.578c1.6-9.076-6.508-9.756-9.052-2.18-2.907,8.654.3,14.653,3.625,12.654,0,0-6.462,19.545,1.674,31.318s18.523,7.246,31.506-5.54c11.164-11,18.432-24.429,19.561-29.6,2.944-13.5-11.077-24.424-24.236-23.715C1045.409,249.377,1038.429,265.578,1038.429,265.578Z" transform="translate(-917.531 -234.553)" fill="url(#linear-gradient-38)"/>
        <path id="Path_432014" data-name="Path 432014" d="M1035.259,273.373c-.506,5.345.368,9.483,3.511,7.664s10.585-12.572,17.367-4.8,12.281,15.012,24.318,13.73c15.547-1.654,19.154-22.7,5.458-26.466,0,0,5.956-7.23-4.631-10.587-9.692-3.073-10.08-1.167-16.863-8.777-3.9-4.381-27.3-2.044-33.685,22C1030.734,266.137,1036.049,265.046,1035.259,273.373Z" transform="translate(-914.36 -242.348)" fill="#001462"/>
        <path id="Path_432015" data-name="Path 432015" d="M1023.509,385.2c.5-10.455,6.966-37.582,16.088-54.915s4.645-39.62-7.754-48.344c-12.315-8.665-29.58-7.128-37.757,4.94-21.992,32.458-15.6,105.433-3.748,130.062,2.355,4.89,8.032,8.068,15.734,9.978C989.377,419.294,1006.117,381.226,1023.509,385.2Z" transform="translate(-979.499 -198.995)" fill="url(#linear-gradient-39)"/>
        <path id="Path_432016" data-name="Path 432016" d="M1027.692,360.878l32.944-39.86a5.66,5.66,0,0,1,5.869-1.851l55.887,15.4a1.81,1.81,0,0,1,.734,3.089l-42.273,38.159a3.668,3.668,0,0,1-3.3.847l-48.4-11.445A2.694,2.694,0,0,1,1027.692,360.878Z" transform="translate(-919.014 -144.942)" fill="url(#linear-gradient-40)"/>
        <path id="Path_432017" data-name="Path 432017" d="M1116.693,338.445c-1.915-5.474-7.386-9.578-10.58-10.489-2.319-.663-19.557-.363-28.817-.15a19.929,19.929,0,0,0-10.157,3.03c-2.917,1.833-6.553,3.861-8.359,3.861h-29.11a101.568,101.568,0,0,0-17.178-10.208c-17.392-3.975-34.132,34.093-17.437,41.721,28.07,6.96,83.476-3.2,106.764-11.159a25.512,25.512,0,0,0,12.835-9.469C1116.311,343.185,1117.438,340.573,1116.693,338.445Z" transform="translate(-968.482 -138.283)" fill="url(#linear-gradient-41)"/>
      </g>
    </g>
    <line id="Line_390" data-name="Line 390" x2="748.253" transform="translate(994.001 682.623)" fill="none" stroke="#001462" stroke-miterlimit="10" stroke-width="1"/>
    <g id="Group_88344" data-name="Group 88344" transform="translate(1202.575 557.884)">
      <path id="Path_432018" data-name="Path 432018" d="M1133.879,418.742h79.76a8.28,8.28,0,0,0,8.281-8.281h0a3.777,3.777,0,0,0-3.777-3.775h-84.264a3.777,3.777,0,0,0-3.777,3.775v4.5A3.777,3.777,0,0,0,1133.879,418.742Z" transform="translate(-947.562 -287.654)" fill="url(#linear-gradient-42)"/>
      <path id="Path_432019" data-name="Path 432019" d="M1094.888,485.369h166.6a9.734,9.734,0,0,0,9.387-12.313l-29.406-107.041a15.959,15.959,0,0,0-15.391-11.734h-166.6a9.736,9.736,0,0,0-9.388,12.313l29.405,107.041A15.966,15.966,0,0,0,1094.888,485.369Z" transform="translate(-1049.737 -354.281)" fill="url(#linear-gradient-43)"/>
    </g>
    <g id="Group_88351" data-name="Group 88351" transform="translate(1636.023 566.21)">
      <g id="Group_88348" data-name="Group 88348" transform="translate(0 0)">
        <g id="Group_88345" data-name="Group 88345" transform="translate(48.355 39.89)">
          <path id="Path_432020" data-name="Path 432020" d="M1313.837,375.509c-2.514.684-6,3.466-9.837,7.159-3.9,3.666-8.118,8.011-13.426,11.984-3.225,2.489-6.417,4.747-9.492,6.944-3.007,2.244-6,4.338-8.577,6.485-5.256,4.2-9.267,8.35-10.648,11.464,1.381-3.08,1.969-8.8,4.59-15.732a50.826,50.826,0,0,1,5.57-10.828,45.513,45.513,0,0,1,9.621-10.155,36.727,36.727,0,0,1,19.482-6.987C1306.913,375.359,1311.342,376.195,1313.837,375.509Z" transform="translate(-1261.856 -375.509)" fill="#0060ff"/>
        </g>
        <g id="Group_88346" data-name="Group 88346" transform="translate(43.091)">
          <path id="Path_432021" data-name="Path 432021" d="M1262.742,439.542c.246-3.1-1.272-8.084-2.276-14.65a62.5,62.5,0,0,1,.416-23.62,87.24,87.24,0,0,1,11.788-27.22c4.536-7.184,8.822-12.384,10.462-16.1-1.645,3.727-2.532,10.419-3.484,18.6-.99,8.2-1.985,17.833-4.316,28a111.821,111.821,0,0,1-7.516,21.283C1265.171,431.724,1262.985,436.435,1262.742,439.542Z" transform="translate(-1259.538 -357.947)" fill="#0060ff"/>
        </g>
        <g id="Group_88347" data-name="Group 88347" transform="translate(0 27.94)">
          <path id="Path_432022" data-name="Path 432022" d="M1240.567,370.248c2.5,1.163,7.275,1.183,13.195,2.955a40.076,40.076,0,0,1,18.784,11.4,51.471,51.471,0,0,1,11.906,24.756c1.5,7.73,1.07,13.821,1.829,17.337-.754-3.564-3.989-8.756-8.568-14.257-4.531-5.585-10.385-11.377-16.181-17.921-4.808-5.285-8.434-10.628-11.864-15.134C1246.311,374.843,1243.1,371.415,1240.567,370.248Z" transform="translate(-1240.567 -370.248)" fill="#0060ff"/>
        </g>
      </g>
      <g id="Group_88350" data-name="Group 88350" transform="translate(20.207 61.668)">
        <g id="Group_88349" data-name="Group 88349">
          <path id="Path_432023" data-name="Path 432023" d="M1304.052,386.026h-49.18a4.351,4.351,0,0,0-4.32,4.868l6,50.279a4.351,4.351,0,0,0,4.322,3.836h37.18a4.351,4.351,0,0,0,4.322-3.836l6-50.279A4.353,4.353,0,0,0,1304.052,386.026Z" transform="translate(-1248.12 -383.916)" fill="url(#linear-gradient-44)"/>
          <path id="Path_432024" data-name="Path 432024" d="M1249.478,387.389l2.221,18.619a2.05,2.05,0,0,0,2.035,1.806h54.143a2.05,2.05,0,0,0,2.035-1.806l2.221-18.619a2.049,2.049,0,0,0-2.035-2.292h-58.586A2.049,2.049,0,0,0,1249.478,387.389Z" transform="translate(-1249.464 -385.097)" fill="url(#linear-gradient-45)"/>
        </g>
      </g>
    </g>
  </g>
</svg>
