<svg xmlns="http://www.w3.org/2000/svg" xmlns:xlink="http://www.w3.org/1999/xlink" width="345.236" height="268.468" viewBox="0 0 345.236 268.468">
  <defs>
    <linearGradient id="linear-gradient" x1="0.504" y1="1.24" x2="0.499" y2="0.255" gradientUnits="objectBoundingBox">
      <stop offset="0" stop-color="#bdd1e7"/>
      <stop offset="1" stop-color="#cddff3"/>
    </linearGradient>
    <linearGradient id="linear-gradient-2" x1="0.502" y1="0.204" x2="0.497" y2="0.947" gradientUnits="objectBoundingBox">
      <stop offset="0" stop-color="#2e8ef7"/>
      <stop offset="1" stop-color="#004a9b"/>
    </linearGradient>
    <linearGradient id="linear-gradient-3" x1="0.503" y1="0.22" x2="0.496" y2="0.94" gradientUnits="objectBoundingBox">
      <stop offset="0" stop-color="#fdd248"/>
      <stop offset="1" stop-color="#fabd21"/>
    </linearGradient>
    <linearGradient id="linear-gradient-4" x1="0.502" y1="0.203" x2="0.497" y2="0.946" gradientUnits="objectBoundingBox">
      <stop offset="0" stop-color="#31accb"/>
      <stop offset="1" stop-color="#188aa6"/>
    </linearGradient>
    <linearGradient id="linear-gradient-6" x1="0.487" y1="0.939" x2="0.511" y2="0.118" xlink:href="#linear-gradient"/>
    <linearGradient id="linear-gradient-7" x1="0.51" y1="0.196" x2="0.484" y2="1.008" gradientUnits="objectBoundingBox">
      <stop offset="0" stop-color="#2693e2"/>
      <stop offset="1" stop-color="#0667a8"/>
    </linearGradient>
    <linearGradient id="linear-gradient-8" x1="0.503" y1="0.066" x2="0.498" y2="0.713" xlink:href="#linear-gradient-3"/>
    <linearGradient id="linear-gradient-9" x1="0.504" y1="-0.647" x2="0.498" y2="0.493" xlink:href="#linear-gradient-3"/>
    <linearGradient id="linear-gradient-10" x1="0.496" y1="0.271" x2="0.5" y2="0.924" gradientUnits="objectBoundingBox">
      <stop offset="0" stop-color="#8fba61"/>
      <stop offset="1" stop-color="#799b54"/>
    </linearGradient>
    <linearGradient id="linear-gradient-13" x1="0.511" y1="0.196" x2="0.485" y2="1.004" gradientUnits="objectBoundingBox">
      <stop offset="0" stop-color="#ffd800"/>
      <stop offset="1" stop-color="#f7a427"/>
    </linearGradient>
    <linearGradient id="linear-gradient-15" x1="0.512" y1="-1.592" x2="0.501" y2="0.343" xlink:href="#linear-gradient-3"/>
    <linearGradient id="linear-gradient-16" x1="-0.301" y1="0.302" x2="1.019" y2="0.656" gradientUnits="objectBoundingBox">
      <stop offset="0" stop-color="#105b91"/>
      <stop offset="1" stop-color="#083c5f"/>
    </linearGradient>
    <linearGradient id="linear-gradient-17" x1="0.442" y1="0.439" x2="-0.147" y2="0.805" gradientUnits="objectBoundingBox">
      <stop offset="0" stop-color="#e8a476"/>
      <stop offset="1" stop-color="#f1b286"/>
    </linearGradient>
    <linearGradient id="linear-gradient-18" x1="0.602" y1="0.345" x2="0.825" y2="0.848" gradientUnits="objectBoundingBox">
      <stop offset="0" stop-color="#ce8c61"/>
      <stop offset="1" stop-color="#e8a476"/>
    </linearGradient>
    <linearGradient id="linear-gradient-19" x1="-0.204" y1="0.29" x2="0.966" y2="0.629" xlink:href="#linear-gradient-16"/>
    <linearGradient id="linear-gradient-20" x1="0.493" y1="0.409" x2="0.532" y2="0.878" xlink:href="#linear-gradient-17"/>
    <linearGradient id="linear-gradient-21" x1="0.469" y1="0.343" x2="0.697" y2="0.855" xlink:href="#linear-gradient-18"/>
    <linearGradient id="linear-gradient-22" x1="-0.3" y1="0.318" x2="1.019" y2="0.671" xlink:href="#linear-gradient-16"/>
    <linearGradient id="linear-gradient-23" x1="0.473" y1="0.51" x2="0.538" y2="0.32" xlink:href="#linear-gradient-17"/>
    <linearGradient id="linear-gradient-24" x1="0.5" y1="0.211" x2="0.505" y2="0.943" xlink:href="#linear-gradient-4"/>
    <linearGradient id="linear-gradient-25" x1="0.498" y1="0.208" x2="0.503" y2="0.944" xlink:href="#linear-gradient-4"/>
    <linearGradient id="linear-gradient-26" x1="0.536" y1="0.183" x2="0.477" y2="0.625" gradientUnits="objectBoundingBox">
      <stop offset="0" stop-color="#632e40"/>
      <stop offset="1" stop-color="#481f2d"/>
    </linearGradient>
    <linearGradient id="linear-gradient-27" x1="0.498" y1="0.205" x2="0.502" y2="0.947" xlink:href="#linear-gradient-4"/>
    <linearGradient id="linear-gradient-28" x1="0.556" y1="0.418" x2="0.38" y2="0.976" xlink:href="#linear-gradient-17"/>
    <linearGradient id="linear-gradient-29" x1="0.465" y1="0.421" x2="0.576" y2="0.671" xlink:href="#linear-gradient-18"/>
    <linearGradient id="linear-gradient-30" x1="0.375" y1="0.436" x2="0.165" y2="0.59" xlink:href="#linear-gradient-17"/>
    <linearGradient id="linear-gradient-31" x1="0.606" y1="0.595" x2="0.393" y2="0.751" xlink:href="#linear-gradient-17"/>
    <linearGradient id="linear-gradient-32" x1="0.499" y1="0.204" x2="0.504" y2="0.948" xlink:href="#linear-gradient-4"/>
    <linearGradient id="linear-gradient-33" x1="0.618" y1="0.131" x2="0.388" y2="0.726" xlink:href="#linear-gradient-3"/>
  </defs>
  <g id="Group_85411" data-name="Group 85411" transform="translate(-2469.211 -791.454)">
    <g id="Group_85079" data-name="Group 85079" transform="translate(2507.081 1037.746)">
      <path id="Path_427285" data-name="Path 427285" d="M2663.887,1261.813c-69.457,0-125.763-4.964-125.763-11.088s56.306-11.089,125.763-11.089,125.763,4.965,125.763,11.089S2733.344,1261.813,2663.887,1261.813Z" transform="translate(-2538.124 -1239.636)" fill-rule="evenodd" fill="url(#linear-gradient)"/>
      <path id="Path_427286" data-name="Path 427286" d="M2738.622,1261.086c-41.674,0-75.456-3.159-75.456-7.056s33.783-7.056,75.456-7.056,75.457,3.159,75.457,7.056S2780.3,1261.086,2738.622,1261.086Z" transform="translate(-2594.451 -1242.942)" fill="#b4cee8" fill-rule="evenodd"/>
    </g>
    <g id="Group_85128" data-name="Group 85128" transform="translate(2469.211 791.454)">
      <path id="Path_427287" data-name="Path 427287" d="M2627.327,796.577l-.636-5.123h-6.57l-.636,5.123a18.571,18.571,0,0,0-5.485,2.1l-3.944-3.053-4.645,4.645,2.841,3.67a16.984,16.984,0,0,0-2.616,5.836l-4.394.559v6.57l4.394.559a16.971,16.971,0,0,0,2.616,5.836l-2.841,3.67,4.645,4.645L2614,828.56a18.553,18.553,0,0,0,5.485,2.1l.636,5.124h6.57l.636-5.124a18.532,18.532,0,0,0,5.485-2.1l3.944,3.054,4.645-4.645-2.841-3.67a16.971,16.971,0,0,0,2.616-5.836l4.394-.559v-6.57l-4.394-.559a16.97,16.97,0,0,0-2.616-5.836l2.841-3.67-4.645-4.645-3.944,3.053a18.566,18.566,0,0,0-5.485-2.1Zm-3.921,5.883a11.158,11.158,0,1,1-11.158,11.158A11.159,11.159,0,0,1,2623.406,802.46Z" transform="translate(-2528.687 -791.454)" fill="#f2f8fd" fill-rule="evenodd"/>
      <g id="Group_85085" data-name="Group 85085" transform="translate(46.102 180.774)">
        <g id="Group_85083" data-name="Group 85083">
          <rect id="Rectangle_74651" data-name="Rectangle 74651" width="102.163" height="67.635" rx="12.91" fill="url(#linear-gradient-2)"/>
          <g id="Group_85080" data-name="Group 85080" transform="translate(63.408 7.7)">
            <path id="Path_427288" data-name="Path 427288" d="M2678.421,1134.425a9.932,9.932,0,1,1-9.933,9.933A9.933,9.933,0,0,1,2678.421,1134.425Z" transform="translate(-2668.488 -1134.425)" fill="#37bcdf" fill-rule="evenodd" opacity="0.7"/>
            <path id="Path_427289" data-name="Path 427289" d="M2704.135,1134.425a9.932,9.932,0,1,1-9.933,9.933A9.932,9.932,0,0,1,2704.135,1134.425Z" transform="translate(-2680.071 -1134.425)" fill="#37bcdf" fill-rule="evenodd" opacity="0.7"/>
          </g>
          <g id="Group_85082" data-name="Group 85082" transform="translate(4.759 41.737)">
            <g id="Group_85081" data-name="Group 85081">
              <rect id="Rectangle_74652" data-name="Rectangle 74652" width="22.16" height="5.082" rx="2.541" fill="#37bcdf"/>
              <rect id="Rectangle_74653" data-name="Rectangle 74653" width="22.16" height="5.083" rx="2.541" transform="translate(23.495)" fill="#37bcdf"/>
              <path id="Rectangle_74654" data-name="Rectangle 74654" d="M2.542,0H19.619A2.541,2.541,0,0,1,22.16,2.541v0a2.541,2.541,0,0,1-2.541,2.541H2.541A2.541,2.541,0,0,1,0,2.542v0A2.542,2.542,0,0,1,2.542,0Z" transform="translate(46.99)" fill="#37bcdf"/>
              <path id="Rectangle_74655" data-name="Rectangle 74655" d="M2.541,0H19.619A2.541,2.541,0,0,1,22.16,2.541v0a2.541,2.541,0,0,1-2.541,2.541H2.541A2.541,2.541,0,0,1,0,2.541v0A2.541,2.541,0,0,1,2.541,0Z" transform="translate(70.484)" fill="#37bcdf"/>
            </g>
            <rect id="Rectangle_74656" data-name="Rectangle 74656" width="42.27" height="5.083" rx="2.541" transform="translate(0 9.656)" fill="#37bcdf"/>
          </g>
        </g>
        <g id="Group_85084" data-name="Group 85084" transform="translate(4.76 6.731)">
          <path id="Path_427290" data-name="Path 427290" d="M2575.266,1132.661a13.5,13.5,0,1,1-13.5,13.5A13.5,13.5,0,0,1,2575.266,1132.661Z" transform="translate(-2561.765 -1132.661)" fill-rule="evenodd" fill="url(#linear-gradient-3)"/>
          <path id="Path_427291" data-name="Path 427291" d="M2577.329,1137.24a10.985,10.985,0,1,1-7.767,3.218,10.951,10.951,0,0,1,7.767-3.218Zm6.448,4.536a9.119,9.119,0,1,0,2.671,6.448A9.09,9.09,0,0,0,2583.777,1141.776Z" transform="translate(-2563.828 -1134.724)" fill="#f6a300" fill-rule="evenodd"/>
          <path id="Path_427292" data-name="Path 427292" d="M2587.093,1153.593a4.131,4.131,0,0,1-1.086,2.988,3.583,3.583,0,0,1-2.494,1.112v.779h-1.185v-.779a3.72,3.72,0,0,1-2.6-.889,3.554,3.554,0,0,1-1.056-2.743h2.576a1.275,1.275,0,0,0,.844,1.285,2.509,2.509,0,0,0,1.555.043,1.442,1.442,0,0,0,.82-1.384,1.2,1.2,0,0,0-.714-1.228,9.632,9.632,0,0,0-1.538-.338q-3.312-.751-3.312-3.581a3.248,3.248,0,0,1,1-2.378,3.685,3.685,0,0,1,2.43-1.1l.021-.7h1.185l-.02.7a3.458,3.458,0,0,1,2.31.932,2.949,2.949,0,0,1,.91,2.236h-2.524a1.2,1.2,0,0,0-.475-.831,1.945,1.945,0,0,0-1.66.032,1.248,1.248,0,0,0-.622,1.143.935.935,0,0,0,.334.8,11.277,11.277,0,0,0,2.122.6,5.286,5.286,0,0,1,2.039,1.063A2.869,2.869,0,0,1,2587.093,1153.593Z" transform="translate(-2569.38 -1138.074)" fill="#f6a300" fill-rule="evenodd"/>
        </g>
        <path id="Path_427293" data-name="Path 427293" d="M2633.1,1120.413h44.4a7.115,7.115,0,0,1,7.094,7.094v53.447a7.115,7.115,0,0,1-7.094,7.094h-3.195a46.4,46.4,0,0,1-1.929-5.472l-4.755-15.348a3.157,3.157,0,0,1-.078-.383c-7.253-5.676-13.115-7.568-17.11-15.307l-10.7-3.677c-3.451-1.185-6.635-2.985-6.635-6.634Z" transform="translate(-2589.141 -1120.413)" fill-rule="evenodd" opacity="0.5" fill="url(#linear-gradient-4)" style="mix-blend-mode: multiply;isolation: isolate"/>
      </g>
      <path id="Path_427294" data-name="Path 427294" d="M2932.994,1092.123l-1.019-8.208H2921.45l-1.019,8.208a29.753,29.753,0,0,0-8.788,3.363l-6.319-4.892-7.441,7.442,4.552,5.879a27.208,27.208,0,0,0-4.192,9.35l-7.039.9v10.524l7.039.9a27.2,27.2,0,0,0,4.192,9.35l-4.552,5.879,7.441,7.441,6.319-4.891a29.75,29.75,0,0,0,8.788,3.363l1.019,8.208h10.524l1.019-8.208a29.755,29.755,0,0,0,8.788-3.363l6.318,4.891,7.441-7.441-4.551-5.879a27.207,27.207,0,0,0,4.191-9.35l7.04-.9V1114.16l-7.04-.9a27.207,27.207,0,0,0-4.191-9.35l4.551-5.879-7.441-7.442-6.318,4.892a29.74,29.74,0,0,0-8.788-3.363Zm-6.281,9.424a17.876,17.876,0,1,1-17.875,17.875A17.876,17.876,0,0,1,2926.713,1101.547Z" transform="translate(-2659.304 -923.197)" fill="#e5effa" fill-rule="evenodd"/>
      <g id="Group_85088" data-name="Group 85088" transform="translate(231.001 30.537)">
        <path id="Path_427295" data-name="Path 427295" d="M2934.706,857.87a34.29,34.29,0,1,1-34.291,34.29,34.29,34.29,0,0,1,34.291-34.29Zm-32.85,3.337-.818.868,3.155,2.971.817-.867a41.3,41.3,0,0,1,3.331-3.16,40.567,40.567,0,0,1,3.652-2.761l.989-.663-2.41-3.6-.991.665a45.389,45.389,0,0,0-7.724,6.549Zm11.632-8.893q1.645-.877,3.361-1.619t3.486-1.33l1.13-.379,1.375,4.108-1.13.379q-1.6.537-3.147,1.207t-3.039,1.457l-1.052.56-2.038-3.822,1.053-.561Zm10.458-3.994-1.155.283,1.018,4.211,1.161-.284q1.216-.3,2.446-.521t2.468-.365l1.179-.139-.491-4.308-1.189.14c-.916.108-1.828.247-2.735.411s-1.808.354-2.7.573Zm8.613-1.244c.357-.016.714-.029,1.082-.037l1.084-.016,1.019.016,2.2.073-.186,4.33-2.1-.073-.94-.007-.983.008c-.329.008-.656.02-.984.036l-1.193.054-.187-4.33,1.189-.053Zm7.231.232q.784.087,1.564.2c.523.078,1.044.167,1.563.262l1.172.217-.781,4.258-1.172-.213c-.469-.086-.94-.163-1.412-.232s-.941-.132-1.413-.185l-1.182-.133.474-4.308,1.186.132Zm16.483,5.2-1.047-.57-2.071,3.8,1.047.57a40.787,40.787,0,0,1,21.3,35.853,41.635,41.635,0,0,1-1.439,10.967,37.477,37.477,0,0,1-4.213,9.768l-.625,1.016,3.7,2.271.624-1.016a41.8,41.8,0,0,0,4.7-10.9,45.957,45.957,0,0,0,1.6-12.106,45.121,45.121,0,0,0-23.571-39.657Zm5.666,75.523.948-.723-2.631-3.444-.947.723a41.087,41.087,0,0,1-11.668,6.243,40.1,40.1,0,0,1-12.934,2.135,40.606,40.606,0,0,1-19.6-5l-1.044-.573-2.087,3.8,1.046.574a44.935,44.935,0,0,0,21.685,5.542,44.421,44.421,0,0,0,14.329-2.37,45.41,45.41,0,0,0,12.9-6.9Zm-60.99-5.9.792.892,3.24-2.882-.791-.89a40.763,40.763,0,0,1-3.629-49.427l.654-1-3.629-2.373-.653.995a45.1,45.1,0,0,0,4.017,54.684Zm33.757-57.863a27.9,27.9,0,1,0,19.727,8.172,27.811,27.811,0,0,0-19.727-8.172Zm16.376,11.522a23.158,23.158,0,1,0,6.784,16.377A23.088,23.088,0,0,0,2951.083,875.784Z" transform="translate(-2889.568 -847.022)" fill="#f2f8fd" fill-rule="evenodd"/>
        <g id="Group_85087" data-name="Group 85087" transform="translate(24.142 24.143)">
          <g id="Group_85086" data-name="Group 85086" transform="translate(2.696 2.696)">
            <circle id="Ellipse_1032" data-name="Ellipse 1032" cx="15.95" cy="15.95" r="15.95" transform="translate(0 31.488) rotate(-80.783)" fill="url(#linear-gradient-3)"/>
            <path id="Path_427296" data-name="Path 427296" d="M2961.068,905.546a12.978,12.978,0,1,1-9.176,3.8,12.938,12.938,0,0,1,9.176-3.8Zm7.618,5.36a10.773,10.773,0,1,0,3.156,7.618A10.739,10.739,0,0,0,2968.686,910.906Z" transform="translate(-2942.77 -900.224)" fill="#f6a300" fill-rule="evenodd"/>
            <path id="Path_427297" data-name="Path 427297" d="M2972.6,924.866a4.881,4.881,0,0,1-1.283,3.53,4.235,4.235,0,0,1-2.947,1.313v.92h-1.4v-.92a4.393,4.393,0,0,1-3.073-1.05,4.2,4.2,0,0,1-1.248-3.241h3.043a1.505,1.505,0,0,0,1,1.517,2.96,2.96,0,0,0,1.837.052,1.7,1.7,0,0,0,.97-1.635,1.423,1.423,0,0,0-.844-1.451,11.428,11.428,0,0,0-1.817-.4q-3.912-.886-3.912-4.23a3.836,3.836,0,0,1,1.177-2.81,4.352,4.352,0,0,1,2.871-1.3l.024-.829h1.4l-.024.829a4.086,4.086,0,0,1,2.729,1.1,3.487,3.487,0,0,1,1.075,2.643h-2.982a1.41,1.41,0,0,0-.561-.983,2.3,2.3,0,0,0-1.961.037,1.477,1.477,0,0,0-.734,1.351,1.105,1.105,0,0,0,.394.942,13.3,13.3,0,0,0,2.507.713,6.266,6.266,0,0,1,2.409,1.256A3.389,3.389,0,0,1,2972.6,924.866Z" transform="translate(-2949.329 -904.183)" fill="#f6a300" fill-rule="evenodd"/>
          </g>
          <path id="Path_427298" data-name="Path 427298" d="M2939.216,897.553a21.026,21.026,0,0,1,3.593-3.046l.461-.309,1.122,1.674-.461.309a18.94,18.94,0,0,0-1.7,1.284,19.192,19.192,0,0,0-1.549,1.471l-.38.4-1.468-1.382.381-.4Zm5.41-4.136-.49.26.949,1.778.489-.261q.692-.369,1.413-.678t1.464-.561l.525-.176-.64-1.911-.526.176q-.823.276-1.621.619c-.532.229-1.053.481-1.564.753Zm4.865-1.858q.624-.153,1.257-.267t1.272-.191l.552-.065.229,2-.548.065c-.384.045-.768.1-1.148.17s-.761.149-1.137.242l-.54.132-.474-1.959.537-.131Zm4.006-.579c.166-.007.332-.013.5-.018l.5-.007.474.007L2956,891l-.087,2.014-.977-.034-.437,0-.457,0q-.229.006-.458.017l-.555.025-.087-2.014.553-.025Zm3.364.108q.365.04.728.093c.243.036.486.078.727.122l.544.1-.363,1.981-.545-.1q-.327-.06-.657-.108t-.657-.086l-.549-.062.22-2,.552.062Zm7.667,2.416a20.988,20.988,0,0,1,10.964,18.446,21.386,21.386,0,0,1-.744,5.631,19.446,19.446,0,0,1-2.185,5.071l-.29.472-1.719-1.057.291-.473a17.421,17.421,0,0,0,1.96-4.543,19.361,19.361,0,0,0,.67-5.1,18.974,18.974,0,0,0-9.91-16.677l-.487-.265.964-1.769.487.265Zm2.636,35.129a21.123,21.123,0,0,1-6,3.21,20.663,20.663,0,0,1-6.666,1.1,20.907,20.907,0,0,1-10.087-2.578l-.486-.267.971-1.768.486.266a18.837,18.837,0,0,0,4.4,1.739,19.048,19.048,0,0,0,4.714.59,18.663,18.663,0,0,0,6.016-.993,19.115,19.115,0,0,0,5.428-2.9l.44-.336,1.224,1.6-.441.336Zm-28.369-2.745a20.98,20.98,0,0,1-1.868-25.435l.3-.463,1.688,1.1-.3.464a18.954,18.954,0,0,0,1.688,22.99l.368.414-1.507,1.341Z" transform="translate(-2933.5 -890.955)" fill="#ffea7b" fill-rule="evenodd"/>
        </g>
      </g>
      <g id="Group_85091" data-name="Group 85091" transform="translate(223.74 105.993)">
        <rect id="Rectangle_74657" data-name="Rectangle 74657" width="102.163" height="67.635" rx="12.91" fill="url(#linear-gradient-6)"/>
        <g id="Group_85090" data-name="Group 85090" transform="translate(4.76 41.737)">
          <g id="Group_85089" data-name="Group 85089">
            <rect id="Rectangle_74658" data-name="Rectangle 74658" width="22.16" height="5.082" rx="2.541" fill="#fff"/>
            <rect id="Rectangle_74659" data-name="Rectangle 74659" width="22.16" height="5.082" rx="2.541" transform="translate(23.495)" fill="#fff"/>
            <rect id="Rectangle_74660" data-name="Rectangle 74660" width="22.16" height="5.083" rx="2.541" transform="translate(46.989)" fill="#fff"/>
            <path id="Rectangle_74661" data-name="Rectangle 74661" d="M2.541,0H19.619A2.541,2.541,0,0,1,22.16,2.541v0a2.542,2.542,0,0,1-2.542,2.542H2.541A2.541,2.541,0,0,1,0,2.541v0A2.541,2.541,0,0,1,2.541,0Z" transform="translate(70.484)" fill="#fff"/>
          </g>
          <rect id="Rectangle_74662" data-name="Rectangle 74662" width="42.27" height="5.083" rx="2.541" transform="translate(0 9.656)" fill="#fff"/>
        </g>
      </g>
      <g id="Group_85095" data-name="Group 85095" transform="translate(62.41 105.506)">
        <path id="Path_427299" data-name="Path 427299" d="M2598.31,983.446h10.89v2.234h-10.89v-2.234Zm13.689,0h8.1v2.234H2612v-2.234Zm10.375,0h5.919v2.234h-5.919v-2.234Zm8.758,0h2.915v2.234h-2.915v-2.234Zm7.009,0v2.234h5.45a4.909,4.909,0,0,1,4.89,4.89v45.256a4.91,4.91,0,0,1-4.89,4.89H2589.9a4.909,4.909,0,0,1-4.89-4.89V990.571a4.908,4.908,0,0,1,4.89-4.89h5.519v-2.234H2589.9a7.143,7.143,0,0,0-7.125,7.125v45.256a7.143,7.143,0,0,0,7.125,7.124h53.686a7.144,7.144,0,0,0,7.125-7.124V990.571a7.144,7.144,0,0,0-7.125-7.125Z" transform="translate(-2582.779 -983.446)" fill="#1671d5" fill-rule="evenodd"/>
        <g id="Group_85094" data-name="Group 85094" transform="translate(4.006 5.269)">
          <path id="Path_427300" data-name="Path 427300" d="M2595.743,993.034h43.87a5.847,5.847,0,0,1,5.673,5.973v37.813a5.847,5.847,0,0,1-5.673,5.974h-43.87a5.847,5.847,0,0,1-5.673-5.974V999.007A5.847,5.847,0,0,1,2595.743,993.034Z" transform="translate(-2590.069 -993.034)" fill-rule="evenodd" fill="url(#linear-gradient-7)"/>
          <g id="Group_85093" data-name="Group 85093" transform="translate(6.473 6.744)">
            <rect id="Rectangle_74663" data-name="Rectangle 74663" width="22.16" height="5.083" rx="2.541" transform="translate(10.055 22.128)" fill="#0085d5"/>
            <rect id="Rectangle_74664" data-name="Rectangle 74664" width="42.27" height="5.083" rx="2.541" transform="translate(0 31.074)" fill="#0085d5"/>
            <g id="Group_85092" data-name="Group 85092" transform="translate(12.905)">
              <path id="Path_427301" data-name="Path 427301" d="M2635.9,1005.306a5.381,5.381,0,1,1-5.38,5.38A5.381,5.381,0,0,1,2635.9,1005.306Z" transform="translate(-2627.668 -1005.306)" fill="#0c63a0" fill-rule="evenodd"/>
              <path id="Path_427302" data-name="Path 427302" d="M2637.722,1023.746a5.144,5.144,0,0,1,4.071,5.014v2.819h-16.462v-2.819a5.143,5.143,0,0,1,4.07-5.014,6.317,6.317,0,0,0,8.321,0Z" transform="translate(-2625.331 -1013.613)" fill="#0c63a0" fill-rule="evenodd"/>
            </g>
          </g>
        </g>
      </g>
      <path id="Path_427303" data-name="Path 427303" d="M2890.168,975.069h17.724V977.3h-17.724v-2.235Zm21.52,0h13.941V977.3h-13.941v-2.235Zm17.027,0H2939.7V977.3h-10.985v-2.235Zm14.833,0h6.911V977.3h-6.911v-2.235Zm18.381,0V977.3h10.419a7.052,7.052,0,0,1,7.029,7.028V1045.7a7.053,7.053,0,0,1-7.029,7.029h-96.537a7.051,7.051,0,0,1-7.028-7.029V984.332a7.051,7.051,0,0,1,7.028-7.028h10.443v-2.235h-10.443a9.288,9.288,0,0,0-9.262,9.263V1045.7a9.287,9.287,0,0,0,9.262,9.263h96.537a9.288,9.288,0,0,0,9.263-9.263V984.332a9.288,9.288,0,0,0-9.263-9.263Z" transform="translate(-2648.197 -874.166)" fill="#e5f3f9" fill-rule="evenodd"/>
      <g id="Group_85096" data-name="Group 85096" transform="translate(98.97 115.246)">
        <path id="Path_427304" data-name="Path 427304" d="M2733.294,1015.77c36.826,0,67.242,22.966,71.941,52.725h4.519a3.46,3.46,0,0,1,3.449,3.45v7.43a3.46,3.46,0,0,1-3.449,3.45h-4.3c-1.895,13.943-10.228,23.4-22.623,33.1a3.344,3.344,0,0,1-.079.382L2778,1131.654c-1.462,4.721-2.832,9.256-6.291,9.256H2752.58c-3.459,0-1.38-9.833-6.291-9.256l-1.139.134c-3.061.329-8.688.5-11.855.5s-8.794-.171-11.854-.5l-1.14-.134c-4.908-.578-2.832,9.256-6.291,9.256h-19.132c-3.459,0-4.827-4.533-6.291-9.256l-4.755-15.348a3.3,3.3,0,0,1-.078-.382c-7.253-5.676-13.115-7.568-17.11-15.307l-10.7-3.677c-3.45-1.185-6.634-2.985-6.634-6.634v-22.821c0-3.649,3.183-5.448,6.634-6.634l8.208-2.82C2673.5,1033.521,2700.92,1015.77,2733.294,1015.77Z" transform="translate(-2649.309 -1007.746)" fill-rule="evenodd" fill="url(#linear-gradient-8)"/>
        <path id="Path_427305" data-name="Path 427305" d="M2813.2,1117.992v7.43a3.46,3.46,0,0,1-3.449,3.45h-4.3c-1.895,13.943-10.228,23.4-22.623,33.1a3.344,3.344,0,0,1-.079.382L2778,1177.7c-1.462,4.721-2.832,9.256-6.291,9.256H2752.58c-3.459,0-1.38-9.833-6.291-9.256a133.348,133.348,0,0,1-25.989,0c-4.908-.578-2.832,9.256-6.291,9.256h-19.131c-3.459,0-4.828-4.533-6.291-9.256l-4.756-15.348a3.3,3.3,0,0,1-.078-.382c-7.253-5.676-13.115-7.568-17.11-15.307l-10.7-3.677c-3.45-1.185-6.634-2.985-6.634-6.634v-13.537c0,2.986,2.238,10.726,5.688,11.7,8.378,2.355,14.505,3.357,21.11,7.89,7.649,5.249,13.338,13.187,17.346,17.94,4.919,5.833,19.8,4.866,23.584,1.588,2.292-1.985,5.868-4.5,16.258-4.755,9.12-.224,12.454,2.837,14.594,4.884,3.976,3.8,18.868,3.3,25.119-1.662,2.545-2.019,18.6-14.258,28.442-31.545,3.248-5.706,1.973-5.536,8.068-5.536C2810.277,1123.316,2812.317,1122.618,2813.2,1117.992Z" transform="translate(-2649.309 -1053.794)" fill-rule="evenodd" opacity="0.5" fill="url(#linear-gradient-9)" style="mix-blend-mode: multiply;isolation: isolate"/>
        <path id="Path_427306" data-name="Path 427306" d="M2847.994,1056.034a3.121,3.121,0,1,1,2.46-5.736,70.881,70.881,0,0,1,15.909,10.2c4.67,3.881,9,8.361,11.687,12.772a3.126,3.126,0,1,1-5.327,3.272,48.977,48.977,0,0,0-10.337-11.22A64.575,64.575,0,0,0,2847.994,1056.034Z" transform="translate(-2737.957 -1023.186)" fill="#f6a300" fill-rule="evenodd"/>
        <path id="Path_427307" data-name="Path 427307" d="M2723.268,1001.169c16.741,1.654,22.286,14.664,24.287,28.434,1.112,4.017-6.138,9.843-10.481,7.718C2729.22,1032.816,2724.583,1007.872,2723.268,1001.169Z" transform="translate(-2682.625 -1001.169)" fill="#f6a300" fill-rule="evenodd"/>
        <path id="Path_427308" data-name="Path 427308" d="M2697.446,1079.752c1.613,0,2.919,2.613,2.919,5.838s-1.307,5.838-2.919,5.838-2.918-2.614-2.918-5.838S2695.834,1079.752,2697.446,1079.752Z" transform="translate(-2669.678 -1036.568)" fill="#000003" fill-rule="evenodd"/>
        <path id="Path_427309" data-name="Path 427309" d="M2722.829,1022.928l.133-21.759c10.528,9.931,13.194,20.063,13.8,36.354C2732.438,1032.555,2727.564,1027.511,2722.829,1022.928Z" transform="translate(-2682.427 -1001.169)" fill="#ffd23f" fill-rule="evenodd"/>
      </g>
      <g id="Group_85100" data-name="Group 85100" transform="translate(114.698 11.98)">
        <path id="Path_427310" data-name="Path 427310" d="M2692.733,813.254h10.339v2.234h-10.339v-2.234Zm13,0h7.69v2.234h-7.69v-2.234Zm9.852,0h5.619v2.234h-5.619v-2.234Zm8.315,0h2.768v2.234H2723.9v-2.234Zm6.655,0v2.234h5.174a4.49,4.49,0,0,1,3.229,1.39,4.846,4.846,0,0,1,1.357,3.38v44.35a4.849,4.849,0,0,1-1.357,3.38,4.491,4.491,0,0,1-3.229,1.389h-50.974a4.491,4.491,0,0,1-3.23-1.389,4.847,4.847,0,0,1-1.357-3.38v-44.35a4.847,4.847,0,0,1,1.357-3.381,4.491,4.491,0,0,1,3.23-1.389h5.24v-2.234h-5.24a6.707,6.707,0,0,0-4.827,2.07,7.081,7.081,0,0,0-1.995,4.934v44.35a7.08,7.08,0,0,0,1.995,4.934,6.706,6.706,0,0,0,4.827,2.071h50.974a6.707,6.707,0,0,0,4.826-2.071,7.083,7.083,0,0,0,1.995-4.934v-44.35a7.083,7.083,0,0,0-1.995-4.934,6.705,6.705,0,0,0-4.826-2.07Z" transform="translate(-2677.93 -813.254)" fill="#9ec865" fill-rule="evenodd"/>
        <g id="Group_85099" data-name="Group 85099" transform="translate(3.762 4.887)">
          <path id="Path_427311" data-name="Path 427311" d="M2690.449,822.147h43.871a5.847,5.847,0,0,1,5.673,5.974v27.892l13.188,10.265-13.2-.076a5.831,5.831,0,0,1-5.667,5.706h-43.871a5.847,5.847,0,0,1-5.673-5.974V828.12A5.846,5.846,0,0,1,2690.449,822.147Z" transform="translate(-2684.776 -822.147)" fill-rule="evenodd" fill="url(#linear-gradient-10)"/>
          <g id="Group_85098" data-name="Group 85098" transform="translate(15.162 6.857)">
            <rect id="Rectangle_74665" data-name="Rectangle 74665" width="24.892" height="4.505" rx="2.253" transform="translate(0 31.541)" fill="#fff"/>
            <path id="Path_427312" data-name="Path 427312" d="M2730.916,876.484V864.308c0-.662.729-1.2,1.622-1.2h1.262c.892,0,1.622.542,1.622,1.2v12.176c0,.663-.73,1.2-1.622,1.2h-1.262C2731.645,877.689,2730.916,877.147,2730.916,876.484Z" transform="translate(-2720.722 -847.453)" fill="#fff" fill-rule="evenodd"/>
            <g id="Group_85097" data-name="Group 85097" transform="translate(1.179 15.651)">
              <path id="Path_427313" data-name="Path 427313" d="M2714.512,876.484V864.308c0-.662.73-1.2,1.622-1.2h1.261c.893,0,1.622.542,1.622,1.2v12.176c0,.663-.729,1.2-1.622,1.2h-1.261C2715.242,877.689,2714.512,877.147,2714.512,876.484Z" transform="translate(-2714.512 -863.104)" fill="#fff" fill-rule="evenodd"/>
              <path id="Path_427314" data-name="Path 427314" d="M2747.319,876.484V864.308c0-.662.729-1.2,1.622-1.2h1.262c.892,0,1.622.542,1.622,1.2v12.176c0,.663-.73,1.2-1.622,1.2h-1.262C2748.049,877.689,2747.319,877.147,2747.319,876.484Z" transform="translate(-2729.291 -863.104)" fill="#fff" fill-rule="evenodd"/>
            </g>
            <path id="Path_427315" data-name="Path 427315" d="M2713.995,844.783l9.718-9.718a1.592,1.592,0,0,1,2.2,0l9.718,9.718h.007a1.627,1.627,0,0,1,1.622,1.622v1.262a1.629,1.629,0,0,1-1.622,1.622h-21.648a1.628,1.628,0,0,1-1.622-1.622v-1.262a1.627,1.627,0,0,1,1.622-1.622Zm10.818-4.878-4.877,4.878h9.754Z" transform="translate(-2712.366 -834.624)" fill="#fff" fill-rule="evenodd"/>
          </g>
        </g>
      </g>
      <g id="Group_85102" data-name="Group 85102" transform="translate(242.507 110.897)">
        <g id="Group_85101" data-name="Group 85101" transform="translate(3.845 3.845)">
          <path id="Path_427316" data-name="Path 427316" d="M2929.656,1000.251a12.155,12.155,0,1,1-12.154,12.155A12.155,12.155,0,0,1,2929.656,1000.251Z" transform="translate(-2917.502 -1000.251)" fill-rule="evenodd" fill="url(#linear-gradient-3)"/>
          <path id="Path_427317" data-name="Path 427317" d="M2931.513,1004.374a9.89,9.89,0,1,1-6.992,2.9,9.861,9.861,0,0,1,6.992-2.9Zm5.805,4.084a8.21,8.21,0,1,0,2.4,5.8A8.185,8.185,0,0,0,2937.318,1008.458Z" transform="translate(-2919.359 -1002.108)" fill="#f6a300" fill-rule="evenodd"/>
          <path id="Path_427318" data-name="Path 427318" d="M2940.3,1019.1a3.722,3.722,0,0,1-.978,2.69,3.23,3.23,0,0,1-2.245,1v.7h-1.067v-.7a3.351,3.351,0,0,1-2.342-.8,3.2,3.2,0,0,1-.951-2.47h2.319a1.147,1.147,0,0,0,.76,1.156,2.258,2.258,0,0,0,1.4.039,1.3,1.3,0,0,0,.738-1.246,1.084,1.084,0,0,0-.643-1.106,8.743,8.743,0,0,0-1.384-.3q-2.982-.675-2.982-3.224a2.925,2.925,0,0,1,.9-2.142,3.317,3.317,0,0,1,2.188-.989l.019-.632h1.066l-.018.632a3.116,3.116,0,0,1,2.08.839,2.658,2.658,0,0,1,.819,2.014h-2.272a1.077,1.077,0,0,0-.427-.749,1.751,1.751,0,0,0-1.495.029,1.124,1.124,0,0,0-.559,1.029.842.842,0,0,0,.3.718,10.178,10.178,0,0,0,1.911.543,4.769,4.769,0,0,1,1.836.957A2.582,2.582,0,0,1,2940.3,1019.1Z" transform="translate(-2924.357 -1005.125)" fill="#f6a300" fill-rule="evenodd"/>
        </g>
        <path id="Path_427319" data-name="Path 427319" d="M2914.861,998.283a16.008,16.008,0,0,1,2.738-2.321l.351-.235L2918.8,997l-.351.235a14.337,14.337,0,0,0-1.294.979,14.535,14.535,0,0,0-1.18,1.12l-.29.307-1.118-1.052.29-.308Zm4.123-3.152-.374.2.723,1.355.373-.2c.351-.187.711-.359,1.076-.517s.739-.3,1.116-.428l.4-.134-.488-1.456-.4.135q-.627.209-1.235.471t-1.191.574Zm3.707-1.416q.476-.117.958-.2t.969-.146l.421-.049.174,1.527-.418.049q-.438.052-.875.13c-.291.052-.579.114-.867.185l-.411.1-.361-1.493.409-.1Zm3.053-.441c.126-.005.253-.01.383-.013l.384-.005.361.005.779.026-.065,1.535-.745-.026-.333,0-.348,0-.349.013-.423.019-.065-1.534.421-.019Zm2.563.083q.279.031.554.071c.186.027.37.059.554.093l.415.076-.277,1.51-.415-.075c-.167-.031-.333-.058-.5-.083s-.333-.047-.5-.065l-.419-.047.168-1.527.42.047Zm5.843,1.841a16,16,0,0,1,8.355,14.057,16.275,16.275,0,0,1-.568,4.291,14.829,14.829,0,0,1-1.664,3.864l-.222.36-1.31-.806.221-.36a13.269,13.269,0,0,0,1.494-3.462,14.76,14.76,0,0,0,.51-3.887,14.458,14.458,0,0,0-7.551-12.708l-.371-.2.734-1.349.371.2Zm2.008,26.77a16.092,16.092,0,0,1-4.574,2.447,15.747,15.747,0,0,1-5.079.84,15.934,15.934,0,0,1-7.686-1.965l-.37-.2.74-1.347.371.2a14.39,14.39,0,0,0,6.947,1.774,14.2,14.2,0,0,0,4.585-.757,14.568,14.568,0,0,0,4.136-2.212l.335-.257.933,1.221-.336.256Zm-21.618-2.092a15.986,15.986,0,0,1-1.423-19.383l.231-.353,1.286.841-.231.353a14.444,14.444,0,0,0,1.286,17.52l.28.316-1.149,1.021Z" transform="translate(-2910.505 -993.255)" fill="#ffea7b" fill-rule="evenodd"/>
      </g>
      <g id="Group_85104" data-name="Group 85104" transform="translate(221.56 27.164)">
        <g id="Group_85103" data-name="Group 85103" transform="translate(2.942 2.943)">
          <path id="Path_427320" data-name="Path 427320" d="M2887.045,846.24a9.3,9.3,0,1,1-9.3,9.3A9.3,9.3,0,0,1,2887.045,846.24Z" transform="translate(-2877.742 -846.24)" fill-rule="evenodd" fill="url(#linear-gradient-3)"/>
          <path id="Path_427321" data-name="Path 427321" d="M2888.467,849.4a7.569,7.569,0,1,1-5.352,2.217,7.544,7.544,0,0,1,5.352-2.217Zm4.443,3.126a6.284,6.284,0,1,0,1.84,4.443A6.263,6.263,0,0,0,2892.91,852.522Z" transform="translate(-2879.164 -847.662)" fill="#f6a300" fill-rule="evenodd"/>
          <path id="Path_427322" data-name="Path 427322" d="M2895.194,860.664a2.848,2.848,0,0,1-.748,2.059,2.472,2.472,0,0,1-1.719.766v.537h-.817v-.537a2.564,2.564,0,0,1-1.792-.613,2.449,2.449,0,0,1-.728-1.89h1.776a.878.878,0,0,0,.582.885,1.728,1.728,0,0,0,1.071.03.993.993,0,0,0,.565-.953.829.829,0,0,0-.492-.846,6.587,6.587,0,0,0-1.06-.233q-2.282-.518-2.282-2.467a2.237,2.237,0,0,1,.687-1.639,2.536,2.536,0,0,1,1.674-.757l.014-.484h.816l-.014.484a2.381,2.381,0,0,1,1.592.642,2.034,2.034,0,0,1,.627,1.541h-1.739a.826.826,0,0,0-.327-.573,1.342,1.342,0,0,0-1.144.022.861.861,0,0,0-.428.787.644.644,0,0,0,.23.55,7.757,7.757,0,0,0,1.462.416,3.655,3.655,0,0,1,1.4.732A1.977,1.977,0,0,1,2895.194,860.664Z" transform="translate(-2882.989 -849.97)" fill="#f6a300" fill-rule="evenodd"/>
        </g>
        <path id="Path_427323" data-name="Path 427323" d="M2875.722,844.733a12.213,12.213,0,0,1,2.1-1.777l.269-.181.654.977-.269.18a11.114,11.114,0,0,0-1.894,1.607l-.222.235-.856-.806.222-.235Zm3.155-2.412-.286.152.553,1.037.285-.152q.4-.216.824-.4t.854-.328l.307-.1-.374-1.114-.307.1q-.48.161-.945.361t-.912.44Zm2.837-1.084c.242-.06.488-.112.733-.156s.494-.082.742-.112l.323-.038.133,1.169-.32.037q-.336.04-.669.1t-.664.141l-.314.077-.277-1.143.314-.076Zm2.337-.338c.1,0,.193-.008.293-.01l.294,0,.276,0,.6.02-.05,1.174-.57-.019-.255,0-.266,0q-.134,0-.267.01l-.324.014-.051-1.174.323-.015Zm1.962.063q.212.024.424.055c.142.021.283.045.424.071l.318.058-.212,1.156-.318-.058q-.191-.035-.383-.063c-.128-.019-.256-.036-.383-.05l-.321-.036.128-1.168.322.036Zm4.472,1.41a12.241,12.241,0,0,1,6.395,10.758,12.486,12.486,0,0,1-.434,3.285,11.335,11.335,0,0,1-1.275,2.958l-.169.275-1-.617.17-.275a10.177,10.177,0,0,0,1.143-2.65,11.287,11.287,0,0,0,.391-2.976,11.066,11.066,0,0,0-5.78-9.726l-.284-.155.562-1.031.284.154Zm1.537,20.489a12.343,12.343,0,0,1-3.5,1.872,12.04,12.04,0,0,1-3.887.643,12.187,12.187,0,0,1-5.883-1.5l-.284-.156.566-1.031.283.156a11.023,11.023,0,0,0,5.317,1.358,10.888,10.888,0,0,0,3.509-.579,11.143,11.143,0,0,0,3.165-1.694l.257-.2.713.934-.257.2Zm-16.546-1.6a12.236,12.236,0,0,1-1.089-14.835l.177-.27.985.643-.178.271a11.055,11.055,0,0,0,.984,13.409l.214.242-.879.782Z" transform="translate(-2872.388 -840.885)" fill="#ffea7b" fill-rule="evenodd"/>
      </g>
      <g id="Group_85107" data-name="Group 85107" transform="translate(47.031 45.33)">
        <path id="Path_427324" data-name="Path 427324" d="M2560.467,873.941h43.871a5.846,5.846,0,0,1,5.673,5.973v33.28l7.882,8.883-8.508-1.632a5.666,5.666,0,0,1-5.047,3.254h-43.871a5.847,5.847,0,0,1-5.673-5.973V879.914A5.846,5.846,0,0,1,2560.467,873.941Z" transform="translate(-2554.794 -873.941)" fill-rule="evenodd" fill="url(#linear-gradient-13)"/>
        <g id="Group_85106" data-name="Group 85106" transform="translate(11.308 4.828)">
          <path id="Path_427325" data-name="Path 427325" d="M2578.6,882.726h17.958l11.41,11.41V919.6a3.243,3.243,0,0,1-3.234,3.234H2578.6a3.243,3.243,0,0,1-3.234-3.234V885.961A3.243,3.243,0,0,1,2578.6,882.726Z" transform="translate(-2575.371 -882.726)" fill="#e5effa" fill-rule="evenodd"/>
          <path id="Path_427326" data-name="Path 427326" d="M2623.086,897.186H2612.65a3.737,3.737,0,0,1-3.727-3.727V882.735l2.762-.009,11.375,11.622Z" transform="translate(-2590.485 -882.726)" fill="#dcecf9" fill-rule="evenodd"/>
          <path id="Path_427327" data-name="Path 427327" d="M2624.622,895.275h-9.056a3.243,3.243,0,0,1-3.234-3.234v-9.315h.88l11.41,11.41Z" transform="translate(-2592.02 -882.726)" fill="#e5effa" fill-rule="evenodd"/>
          <g id="Group_85105" data-name="Group 85105" transform="translate(3.519 10.06)">
            <path id="Rectangle_74666" data-name="Rectangle 74666" d="M1.742,0h11.1a1.741,1.741,0,0,1,1.741,1.741v.054a1.742,1.742,0,0,1-1.742,1.742H1.741A1.741,1.741,0,0,1,0,1.8V1.742A1.742,1.742,0,0,1,1.742,0Z" fill="#cce0f5"/>
            <rect id="Rectangle_74667" data-name="Rectangle 74667" width="25.563" height="2.469" rx="1.216" transform="translate(0 6.262)" fill="#cce0f5"/>
            <rect id="Rectangle_74668" data-name="Rectangle 74668" width="25.563" height="2.469" rx="1.216" transform="translate(0 11.747)" fill="#cce0f5"/>
            <rect id="Rectangle_74669" data-name="Rectangle 74669" width="25.563" height="2.469" rx="1.216" transform="translate(0 17.233)" fill="#cce0f5"/>
            <rect id="Rectangle_74670" data-name="Rectangle 74670" width="25.563" height="2.469" rx="1.216" transform="translate(0 22.718)" fill="#cce0f5"/>
          </g>
        </g>
      </g>
      <g id="Group_85110" data-name="Group 85110" transform="translate(1.616 117.625)">
        <path id="Path_427328" data-name="Path 427328" d="M2494.113,1010.777a16.685,16.685,0,1,1-16.685,16.685,16.685,16.685,0,0,1,16.685-16.685Zm-15.983,1.624-.4.423,1.535,1.445.4-.422a20.3,20.3,0,0,1,1.621-1.538,19.717,19.717,0,0,1,1.776-1.344l.482-.323-1.173-1.752-.482.324a22.083,22.083,0,0,0-3.758,3.186Zm5.659-4.327q.8-.427,1.636-.788t1.7-.647l.55-.185.669,2-.55.185q-.778.261-1.531.587t-1.479.709l-.512.273-.992-1.86.512-.273Zm5.089-1.943-.562.137.5,2.049.565-.138q.591-.144,1.19-.253t1.2-.177l.574-.068-.239-2.1-.578.068q-.668.079-1.33.2t-1.315.279Zm4.19-.605c.174-.008.348-.014.527-.018l.527-.008.5.008,1.069.035-.09,2.107-1.022-.035-.458,0-.478,0c-.16,0-.319.01-.479.018l-.581.027-.091-2.107.578-.026Zm3.519.113c.255.028.509.061.762.1s.507.081.76.128l.57.105-.38,2.072-.57-.1q-.342-.063-.687-.113c-.229-.033-.457-.064-.687-.09l-.575-.065.231-2.1.577.064Zm8.02,2.528-.509-.277-1.008,1.85.509.277a19.847,19.847,0,0,1,10.366,17.445,20.242,20.242,0,0,1-.7,5.335,18.237,18.237,0,0,1-2.05,4.753l-.3.494,1.8,1.105.3-.494a20.339,20.339,0,0,0,2.286-5.3,22.365,22.365,0,0,0,.779-5.89,21.955,21.955,0,0,0-11.469-19.3Zm2.758,36.746.461-.352-1.28-1.676-.461.351a19.993,19.993,0,0,1-5.677,3.038,19.52,19.52,0,0,1-6.294,1.039,19.764,19.764,0,0,1-9.537-2.435l-.508-.279-1.016,1.849.509.279a21.858,21.858,0,0,0,17.523,1.544,22.109,22.109,0,0,0,6.279-3.359Zm-29.676-2.871.385.434,1.577-1.4-.385-.433a19.834,19.834,0,0,1-1.765-24.049l.318-.486-1.766-1.155-.318.484a21.943,21.943,0,0,0,1.954,26.607Zm16.425-28.154a13.575,13.575,0,1,0,9.6,3.976,13.533,13.533,0,0,0-9.6-3.976Zm7.968,5.606a11.268,11.268,0,1,0,3.3,7.968A11.232,11.232,0,0,0,2502.082,1019.494Z" transform="translate(-2472.151 -1005.499)" fill="#e5effa" fill-rule="evenodd"/>
        <g id="Group_85109" data-name="Group 85109" transform="translate(9.814 9.936)">
          <g id="Group_85108" data-name="Group 85108" transform="translate(2.943 2.943)">
            <path id="Path_427329" data-name="Path 427329" d="M2504.668,1028.934a9.3,9.3,0,1,1-9.3,9.3A9.3,9.3,0,0,1,2504.668,1028.934Z" transform="translate(-2495.365 -1028.934)" fill-rule="evenodd" fill="url(#linear-gradient-3)"/>
            <path id="Path_427330" data-name="Path 427330" d="M2506.089,1032.089a7.569,7.569,0,1,1-5.353,2.217,7.546,7.546,0,0,1,5.353-2.217Zm4.443,3.126a6.285,6.285,0,1,0,1.84,4.443A6.264,6.264,0,0,0,2510.532,1035.215Z" transform="translate(-2496.786 -1030.355)" fill="#f6a300" fill-rule="evenodd"/>
            <path id="Path_427331" data-name="Path 427331" d="M2512.817,1043.358a2.849,2.849,0,0,1-.749,2.059,2.469,2.469,0,0,1-1.719.766v.537h-.817v-.537a2.565,2.565,0,0,1-1.792-.612,2.449,2.449,0,0,1-.728-1.89h1.775a.878.878,0,0,0,.582.885,1.732,1.732,0,0,0,1.071.03.994.994,0,0,0,.566-.953.83.83,0,0,0-.493-.847,6.628,6.628,0,0,0-1.059-.232q-2.281-.518-2.282-2.468a2.237,2.237,0,0,1,.687-1.639,2.54,2.54,0,0,1,1.674-.757l.014-.484h.816l-.014.484a2.385,2.385,0,0,1,1.592.642,2.034,2.034,0,0,1,.627,1.542h-1.739a.824.824,0,0,0-.327-.573,1.34,1.34,0,0,0-1.144.022.861.861,0,0,0-.428.788.645.645,0,0,0,.23.549,7.768,7.768,0,0,0,1.462.416,3.649,3.649,0,0,1,1.4.733A1.977,1.977,0,0,1,2512.817,1043.358Z" transform="translate(-2500.612 -1032.664)" fill="#f6a300" fill-rule="evenodd"/>
          </g>
          <path id="Path_427332" data-name="Path 427332" d="M2493.344,1027.427a12.336,12.336,0,0,1,2.1-1.777l.269-.18.654.977-.268.18a11.164,11.164,0,0,0-.991.749,11.3,11.3,0,0,0-.9.857l-.222.235-.856-.806.222-.235Zm3.156-2.413-.285.152.553,1.037.285-.152q.4-.215.824-.4c.28-.12.565-.23.854-.327l.307-.1-.373-1.115-.307.1q-.48.161-.946.36t-.912.44Zm2.837-1.084q.364-.089.734-.156c.246-.045.494-.082.741-.111l.323-.038.134,1.169-.321.038c-.224.026-.447.059-.669.1s-.444.087-.663.141l-.315.077-.276-1.143.313-.077Zm2.337-.337c.1,0,.193-.008.293-.01l.294,0,.276,0,.6.019-.051,1.175-.57-.02-.255,0-.267,0-.267.009-.323.015-.051-1.174.323-.015Zm1.962.063q.212.025.425.055t.424.071l.318.058-.211,1.156-.318-.058q-.19-.035-.383-.063c-.127-.019-.255-.036-.383-.05l-.321-.036.128-1.169.322.036Zm4.472,1.41a12.242,12.242,0,0,1,6.394,10.758,12.466,12.466,0,0,1-.434,3.285,11.339,11.339,0,0,1-1.274,2.957l-.169.276-1-.617.17-.275a10.194,10.194,0,0,0,1.143-2.65,11.289,11.289,0,0,0,.391-2.975,11.068,11.068,0,0,0-5.78-9.727l-.284-.154.563-1.032.284.155Zm1.537,20.489a12.328,12.328,0,0,1-3.5,1.872,12.05,12.05,0,0,1-3.887.643,12.184,12.184,0,0,1-5.883-1.5l-.284-.156.567-1.031.283.156a10.962,10.962,0,0,0,2.567,1.014,11.1,11.1,0,0,0,2.75.344,10.874,10.874,0,0,0,3.509-.579,11.152,11.152,0,0,0,3.165-1.694l.257-.2.714.934-.257.2Zm-16.547-1.6a12.236,12.236,0,0,1-1.089-14.835l.177-.27.985.643-.178.271a11.058,11.058,0,0,0,.984,13.409l.215.241-.879.782Z" transform="translate(-2490.01 -1023.579)" fill="#ffea7b" fill-rule="evenodd"/>
        </g>
      </g>
      <path id="Path_427333" data-name="Path 427333" d="M2825.615,832.07a7.8,7.8,0,1,1-7.8,7.8A7.8,7.8,0,0,1,2825.615,832.07Z" transform="translate(-2626.243 -809.75)" fill="#e5effa" fill-rule="evenodd"/>
      <g id="Group_85111" data-name="Group 85111" transform="translate(0 15.158)">
        <path id="Path_427334" data-name="Path 427334" d="M2479.009,825.437c1.262-4.583,4.688-6.907,9.108-6.306l5.249,19.085Z" transform="translate(-2473.625 -819.037)" fill="#ffcf34" fill-rule="evenodd"/>
        <path id="Path_427335" data-name="Path 427335" d="M3055.9,825.93l-2.051,11.6,10.212-5.979A32.879,32.879,0,0,0,3055.9,825.93Z" transform="translate(-2732.568 -822.142)" fill="#00548b" fill-rule="evenodd"/>
        <path id="Path_427336" data-name="Path 427336" d="M2469.211,1160.237l6.978,11.25,4.349-18.943C2476.824,1153.433,2472.648,1156.246,2469.211,1160.237Z" transform="translate(-2469.211 -969.27)" fill="#278dfd" fill-rule="evenodd"/>
        <path id="Path_427337" data-name="Path 427337" d="M3086.175,1194.872l-13.747-3.635,6.073,12.556A38.848,38.848,0,0,0,3086.175,1194.872Z" transform="translate(-2740.939 -986.7)" fill="#8dba5d" fill-rule="evenodd"/>
      </g>
      <path id="Path_427338" data-name="Path 427338" d="M2838.373,1031.672c-2.7,3.731-5.716,7.355-8.66,10.755,1.727,8.445,2.429,17.327,3.627,25.83,2.216,15.712,4.4,31.015,7.094,46.507q-.722.58-1.463,1.161a3.344,3.344,0,0,1-.079.382l-4.755,15.348c-1.462,4.721-2.832,9.256-6.291,9.256h-.788c-5.038-12.952-10.824-29.5-15.1-41.863q-2.535.168-5.081.174c-.863,11.015-1.8,22.046-2.334,33.083a2.455,2.455,0,0,0-2.117-.65l-1.139.134c-3.061.329-8.688.5-11.855.5-1.286,0-2.977-.028-4.737-.083-4.678-30.182-8.154-56.378-10.441-86.963-.963-10.76.417-16.573,1.5-28.4a79.174,79.174,0,0,1,13.674-1.073C2808.291,1015.77,2825.469,1021.8,2838.373,1031.672Z" transform="translate(-2606.475 -892.5)" fill-rule="evenodd" opacity="0.5" fill="url(#linear-gradient-15)" style="mix-blend-mode: multiply;isolation: isolate"/>
      <g id="Group_85127" data-name="Group 85127" transform="translate(129.725 46.132)">
        <g id="Group_85112" data-name="Group 85112" transform="translate(37.138 83.731)">
          <path id="Path_427339" data-name="Path 427339" d="M2798.117,1237.213c.464,2.308,1.872,4.07,2.094,5.766.382,2.921-1.3,5.856-4.756,5.886l-22.6.2c1.2-7.721,13.278-3.441,17.335-12l5.26.3Z" transform="translate(-2772.855 -1122.049)" fill-rule="evenodd" fill="url(#linear-gradient-16)"/>
          <path id="Path_427340" data-name="Path 427340" d="M2789.21,1030.739c-1.308,6.3-2.407,7.977-1.71,15.773l8.71,97.308c.063.712,1.845,1.907,3.759,2.088,2.249.213,4.681-.757,4.729-2.353.517-16.866,2.515-37.441,3.4-50.779.9-13.559,3.461-27.6,5.559-41.611,1.1-7.343.627-13.638,2.182-22.723l-18.612-.674Z" transform="translate(-2779.355 -1027.768)" fill-rule="evenodd" fill="url(#linear-gradient-17)"/>
          <path id="Path_427341" data-name="Path 427341" d="M2789.212,1030.739c-1.308,6.3-2.4,7.977-1.71,15.773l4.5,50.648a36,36,0,0,0,9.119,4.837c1.1,21.31,3.5,44.094,3.574,41.559.515-16.866,2.515-37.441,3.4-50.779.9-13.559,3.461-27.6,5.559-41.611,1.1-7.343.627-13.638,2.182-22.723l-18.612-.674Z" transform="translate(-2779.356 -1027.768)" fill-rule="evenodd" fill="url(#linear-gradient-18)"/>
        </g>
        <g id="Group_85113" data-name="Group 85113" transform="translate(51.542 83.067)">
          <path id="Path_427342" data-name="Path 427342" d="M2889.4,1249.993c-2.339,2.359-3.131,3.344-6.106,3.423-2.427.064-3.243-.7-4.613-2.066-1.521-1.513-1.993-2.457-1.963-3.8.057-2.559,1.168-4.869,1.336-8.074l4.87.37,2.12-1.134c.92,1.5,2.88,4.264,4.252,6.694C2889.968,1246.607,2889.718,1248.742,2889.4,1249.993Z" transform="translate(-2834.043 -1122.128)" fill-rule="evenodd" fill="url(#linear-gradient-19)"/>
          <path id="Path_427343" data-name="Path 427343" d="M2828.261,1030.5c1.839,3.9,5.24,7.087,7.268,16.714.424,2.014.7,3.711.9,5.293,1.178,9.387,1.666,18.327,3.188,27.782,3.357,20.855,6.851,42.5,10.572,62.963.586,3.227-6.207,3-6.858,1.428-6.885-16.6-11.85-33.583-17.928-50.4-8.41-23.272-19.051-45.608-26.333-67.719Z" transform="translate(-2799.066 -1026.559)" fill-rule="evenodd" fill="url(#linear-gradient-20)"/>
          <path id="Path_427344" data-name="Path 427344" d="M2828.261,1030.5c1.839,3.9,5.24,7.087,7.268,16.714.424,2.014.7,3.711.9,5.293,1.178,9.387,1.666,18.327,3.188,27.782,3.357,20.855,6.853,42.5,10.572,62.963.587,3.226-12.545-41.206-13.2-42.777-5.443.425-7.108.545-9.534-.392q-1.011-2.9-2.056-5.8c-8.41-23.272-19.051-45.608-26.333-67.719Z" transform="translate(-2799.066 -1026.559)" fill-rule="evenodd" fill="url(#linear-gradient-21)"/>
        </g>
        <g id="Group_85114" data-name="Group 85114" transform="translate(45.112 83.067)">
          <path id="Path_427345" data-name="Path 427345" d="M2789.247,1030.195c-1.308,6.3-2.293,7.967-1.71,15.773l3.629,48.525c5.887,3.31,31.712,6.353,45.776-1.933-1.847-9.779-4.612-30.666-5.789-40.052-.2-1.581-.471-3.279-.9-5.293-2.028-9.627-5.43-12.819-7.268-16.714l-7.372-1q.119-.79.259-1.608l-16.629-.6-5.453-.736q.285.868.576,1.737Z" transform="translate(-2787.365 -1026.559)" fill-rule="evenodd" fill="url(#linear-gradient-22)"/>
          <path id="Path_427346" data-name="Path 427346" d="M2859.114,1101.03c-1.526-8.637-3.08-18.09-4.638-27.565-1.829-11.123-3.664-22.279-5.542-32.6l-3.011.54c1.832,10.07,3.683,21.328,5.529,32.553,1.57,9.544,3.136,19.066,4.734,28.082Q2857.689,1101.586,2859.114,1101.03Z" transform="translate(-2813.744 -1033.003)" fill="#f8b000" fill-rule="evenodd"/>
        </g>
        <g id="Group_85116" data-name="Group 85116" transform="translate(0 21.896)">
          <g id="Group_85115" data-name="Group 85115">
            <path id="Path_427347" data-name="Path 427347" d="M2723.517,923.305c-.179-2.417-.922-2.568-4.066-4.588a13.16,13.16,0,0,1-2.726-2.651c-1,.831-.253,1.719.437,2.944a8.492,8.492,0,0,1,.829,2.041c-2.834-.171-3.791-.7-4.456-1.445-3.307-3.691-3.907-4.372-8.261-4.359,2.038,2.644,3.565,4.343,4.63,7.118.653,1.705.516,1.571,1.7,2.11,1.6.73,2.954,1.492,4.458,2.227,3.349,1.638,3.264,2.472,5.436,5.546l4.146-2.365C2724.175,926.776,2723.772,926.744,2723.517,923.305Z" transform="translate(-2705.274 -915.246)" fill-rule="evenodd" fill="url(#linear-gradient-23)"/>
            <path id="Path_427348" data-name="Path 427348" d="M2726.66,930.074c-1.593-3.776-2.942-4.017-7.665-5.376l-2.612,1.576,2.223-.842C2721.858,926.98,2725,926.792,2726.66,930.074Z" transform="translate(-2710.278 -919.504)" fill="#d69263" fill-rule="evenodd"/>
          </g>
          <path id="Path_427349" data-name="Path 427349" d="M2776.977,936.268c-7.055,2.28-12.143,10.924-16.688,16.834-5.667,8.4-7.715,3.32-11.993-1.729-4.239-5-7.909-9.179-11.451-14.277a6.136,6.136,0,0,0-5.31,3.4c4.3,7.523,13,29.131,22.709,29.457,5.027.169,12.09-3.552,16.764-9.632C2778.952,949.992,2780.824,946.718,2776.977,936.268Z" transform="translate(-2717.104 -924.716)" fill-rule="evenodd" fill="url(#linear-gradient-24)"/>
          <path id="Path_427350" data-name="Path 427350" d="M2785.462,936.157c-7.435,2.268-8.678,10.707-12.2,19.254-1.748,4.242-4.2,9.8-9.027,11.155-5.242,1.468-10.22-3.6-14.043-7.223,3.716,5.734,7.979,10.412,12.456,10.562,5.027.169,12.09-3.552,16.764-9.632C2787.357,949.942,2789.31,946.607,2785.462,936.157Z" transform="translate(-2725.509 -924.666)" fill-rule="evenodd" opacity="0.25" fill="url(#linear-gradient-25)" style="mix-blend-mode: multiply;isolation: isolate"/>
        </g>
        <g id="Group_85117" data-name="Group 85117" transform="translate(59.289 0.38)">
          <path id="Path_427351" data-name="Path 427351" d="M2827.534,878.773c6.764-2.873,10.219.084,12.865,4.906,2.775,5.058,3.077,7.636,4.962,9.526,3.195,3.2,7.364,2.548,15.891,3.111,15.031.993,15.823,15.145,11.495,25.247-5.133,11.981-19.831,20.022-31.474,21.608-14.4,1.962-18.756-4.891-19.132-13.194-.247-5.474,1.589-9.075,1.15-11.217-1.783-8.69-9.587-6.053-10.117-15.852-.3-5.462,4.863-9.286,4.283-16.172C2811.231,874.282,2823.059,874.41,2827.534,878.773Z" transform="translate(-2813.163 -876.091)" fill-rule="evenodd" fill="url(#linear-gradient-26)"/>
          <path id="Path_427352" data-name="Path 427352" d="M2873.356,926.349q-.285.784-.609,1.542c-5.133,11.981-19.831,20.022-31.474,21.608-14.4,1.962-18.756-4.891-19.132-13.194-.247-5.474,1.589-9.075,1.15-11.217-1.783-8.69-9.587-6.053-10.117-15.852-.3-5.462,4.863-9.286,4.283-16.172-.121-.243-.234-.479-.341-.712,3.325.915,7.752.185,12.65-2.216,1.189,2.907,1.106,6.106,1.381,9.264,3.168-1.826,4.1.509,4.325,3.9.326,4.923.5,6.068,2.126,6.862,10.181,4.959,11.038,5.926,19.2,15.5C2862.666,932.542,2866.095,931.021,2873.356,926.349Z" transform="translate(-2813.163 -882.418)" fill="#40011c" fill-rule="evenodd"/>
        </g>
        <path id="Path_427353" data-name="Path 427353" d="M2827.538,955.818a335.01,335.01,0,0,0-.243,37.542c-13.41,2.873-25.148,3.2-38.11-1.22a366.172,366.172,0,0,1,4.943-43.049c1.086-5.964,3.83-12.455,8.579-13.834a34.525,34.525,0,0,1,10.935-1.248c8.32.333,16.478,2.8,22.424,10.027Z" transform="translate(-2743.073 -901.788)" fill-rule="evenodd" fill="url(#linear-gradient-27)"/>
        <g id="Group_85122" data-name="Group 85122" transform="translate(58.932)">
          <g id="Group_85120" data-name="Group 85120" transform="translate(2.993 10.762)">
            <g id="Group_85118" data-name="Group 85118" transform="translate(5.437 14.482)">
              <path id="Path_427354" data-name="Path 427354" d="M2835.656,921.338a23.978,23.978,0,0,0,.934,8c-.939,3.527-7.2,5.614-8.735.041a11.063,11.063,0,0,0,.447-4.225l2.885-2.6Z" transform="translate(-2827.855 -921.338)" fill-rule="evenodd" fill="url(#linear-gradient-28)"/>
              <path id="Path_427355" data-name="Path 427355" d="M2835.917,921.338c0,1.046,0,1.87.03,2.6-1.052,1.994-4.678,4.65-7.512,4.168a12.612,12.612,0,0,0,.129-2.948l2.885-2.6Z" transform="translate(-2828.116 -921.338)" fill-rule="evenodd" fill="url(#linear-gradient-29)"/>
            </g>
            <g id="Group_85119" data-name="Group 85119">
              <path id="Path_427356" data-name="Path 427356" d="M2818.462,896.446c-.413,5.66-1.2,10.282.832,14.618,1.743,3.714,4.4,3.334,7.141,1.978,2.795-1.384,4.273-2.259,6.167-4.651a6.616,6.616,0,0,0,2.241-1.215c1.144-1.182,1.889-3.287.95-4.65-.418-.607-1.42-.165-2.086.985-.834,1.437-1.322.038-1.342-.991-.054-2.832-.823-4.6-1.388-7.536C2827.217,896.9,2822.233,899.361,2818.462,896.446Z" transform="translate(-2817.961 -894.984)" fill-rule="evenodd" fill="url(#linear-gradient-30)"/>
              <path id="Path_427357" data-name="Path 427357" d="M2818.7,896.446c-.065.887-.138,1.748-.209,2.587,3.86,1.418,7.93.595,12.133-2.589.911,2.592.423,4.648.974,6.5.449,1.509,1.1,2.179,2.007,1.855,1.279-.458,1.094-1.327,2.689-1.76a2.329,2.329,0,0,0-.264-.509c-.418-.607-1.42-.165-2.087.985-.834,1.437-1.322.038-1.341-.991-.054-2.832-.823-4.6-1.388-7.536C2827.456,896.9,2822.472,899.361,2818.7,896.446Z" transform="translate(-2818.2 -894.984)" fill="#dc9566" fill-rule="evenodd"/>
            </g>
          </g>
          <g id="Group_85121" data-name="Group 85121">
            <path id="Path_427358" data-name="Path 427358" d="M2818.5,888.965c4.315.708,11.07-2.029,11.224-6.238.143-3.868-4.276-6.464-8.052-7.149C2811.316,873.7,2809.039,887.414,2818.5,888.965Z" transform="translate(-2812.514 -875.401)" fill="#5e1f37" fill-rule="evenodd"/>
            <path id="Path_427359" data-name="Path 427359" d="M2818.51,895.059c3.969.651,10-1.612,11.063-5.252-.028-.071-.056-.143-.085-.214-7.519,3.686-13.929,3.433-16.945-.662C2812.729,891.744,2814.633,894.424,2818.51,895.059Z" transform="translate(-2812.528 -881.496)" fill="#40011c" fill-rule="evenodd"/>
          </g>
        </g>
        <g id="Group_85126" data-name="Group 85126" transform="translate(75.276 35.185)">
          <g id="Group_85124" data-name="Group 85124" transform="translate(0 58.52)">
            <g id="Group_85123" data-name="Group 85123">
              <path id="Path_427360" data-name="Path 427360" d="M2855.161,1049.3c-1.241,3.493-1.325,6.978-3.075,10.261-1.249-2.193-2.718-5.106-4.149-7.186l-2.829,1.532c-2.854,1.682-4.281,1.2-.838-1.973,2.1-1.938,5.025-3.5,7.3-5.411Z" transform="translate(-2842.255 -1046.189)" fill-rule="evenodd" fill="url(#linear-gradient-31)"/>
              <path id="Path_427361" data-name="Path 427361" d="M2861.7,1049.924c-.6,1.676-1.022,4.465-1.45,5.737-1.585-2.123-2.8-7.036-2.922-8.565.307-.259,1.115-.916,1.429-1.179Z" transform="translate(-2849.045 -1045.917)" fill="#dc9566" fill-rule="evenodd"/>
            </g>
            <path id="Path_427362" data-name="Path 427362" d="M2850.92,1057.181a25.848,25.848,0,0,0,6.032,6.99l.316,3.786a24.125,24.125,0,0,1-8.459-9.59Z" transform="translate(-2845.207 -1050.991)" fill="#003b67" fill-rule="evenodd"/>
          </g>
          <g id="Group_85125" data-name="Group 85125" transform="translate(5.996)">
            <path id="Path_427363" data-name="Path 427363" d="M2859.436,1005.55a17.969,17.969,0,0,1-2.97-7.462c4.372-7.574,9.944-16.442,9.456-20.861-.53-4.8-4.695-13.88-12.138-19.9-.218-2.243-2.137-19.463,2.129-17.782,3.6,1.417,7.488,4.767,10.3,8.18,5.744,6.984,10.577,20.129,10.543,29.924C2876.736,982.246,2873.659,989.337,2859.436,1005.55Z" transform="translate(-2853.166 -939.427)" fill-rule="evenodd" fill="url(#linear-gradient-32)"/>
            <path id="Path_427364" data-name="Path 427364" d="M2862.141,1036.536a17.969,17.969,0,0,1-2.97-7.462c4.372-7.574,9.944-16.442,9.456-20.861,1.617,8.092-5.289,18.441-3.538,24.906Q2863.7,1034.755,2862.141,1036.536Z" transform="translate(-2855.871 -970.413)" fill-rule="evenodd" opacity="0.25" fill="url(#linear-gradient-33)" style="mix-blend-mode: multiply;isolation: isolate"/>
          </g>
        </g>
      </g>
    </g>
  </g>
</svg>
