<svg xmlns="http://www.w3.org/2000/svg" xmlns:xlink="http://www.w3.org/1999/xlink" width="333.346" height="268.468" viewBox="0 0 333.346 268.468">
  <defs>
    <linearGradient id="linear-gradient" x1="0.504" y1="1.24" x2="0.499" y2="0.255" gradientUnits="objectBoundingBox">
      <stop offset="0" stop-color="#bed2de"/>
      <stop offset="1" stop-color="#cee0f3"/>
    </linearGradient>
    <linearGradient id="linear-gradient-2" x1="0.441" y1="-1.767" x2="0.508" y2="0.806" gradientUnits="objectBoundingBox">
      <stop offset="0" stop-color="#fcd248"/>
      <stop offset="1" stop-color="#fabd23"/>
    </linearGradient>
    <linearGradient id="linear-gradient-3" x1="0.487" y1="-3.339" x2="0.5" y2="0.493" xlink:href="#linear-gradient-2"/>
    <linearGradient id="linear-gradient-4" x1="0.482" y1="0.059" x2="0.526" y2="1.638" xlink:href="#linear-gradient-2"/>
    <linearGradient id="linear-gradient-5" x1="0.486" y1="-1.765" x2="0.499" y2="0.264" xlink:href="#linear-gradient-2"/>
    <linearGradient id="linear-gradient-6" x1="0.503" y1="0.237" x2="0.515" y2="1.04" gradientUnits="objectBoundingBox">
      <stop offset="0" stop-color="#469fff"/>
      <stop offset="1" stop-color="#004a9b"/>
    </linearGradient>
    <linearGradient id="linear-gradient-7" x1="0.482" y1="-0.359" x2="0.526" y2="1.228" xlink:href="#linear-gradient-2"/>
    <linearGradient id="linear-gradient-8" x1="0.496" y1="0.133" x2="0.503" y2="0.769" xlink:href="#linear-gradient-2"/>
    <linearGradient id="linear-gradient-9" x1="0.461" y1="-1.577" x2="0.504" y2="0.722" xlink:href="#linear-gradient-2"/>
    <linearGradient id="linear-gradient-10" x1="0.5" y1="0.273" x2="0.501" y2="1.04" gradientUnits="objectBoundingBox">
      <stop offset="0" stop-color="#8fba61"/>
      <stop offset="1" stop-color="#799c54"/>
    </linearGradient>
    <linearGradient id="linear-gradient-11" x1="0.5" y1="0.289" x2="0.494" y2="1.165" xlink:href="#linear-gradient-10"/>
    <linearGradient id="linear-gradient-12" x1="0.491" y1="0.116" x2="0.522" y2="2.274" xlink:href="#linear-gradient-2"/>
    <linearGradient id="linear-gradient-13" x1="0.622" y1="0.68" x2="0.732" y2="0.828" gradientUnits="objectBoundingBox">
      <stop offset="0" stop-color="#e8a476"/>
      <stop offset="1" stop-color="#f1b287"/>
    </linearGradient>
    <linearGradient id="linear-gradient-14" x1="0.556" y1="0.289" x2="-0.255" y2="1.754" gradientUnits="objectBoundingBox">
      <stop offset="0" stop-color="#cf8d61"/>
      <stop offset="1" stop-color="#e8a476"/>
    </linearGradient>
    <linearGradient id="linear-gradient-15" x1="2.014" y1="0.891" x2="0.014" y2="0.291" gradientUnits="objectBoundingBox">
      <stop offset="0" stop-color="#105b91"/>
      <stop offset="1" stop-color="#0a3c5f"/>
    </linearGradient>
    <linearGradient id="linear-gradient-16" x1="0.464" y1="0.183" x2="0.523" y2="0.625" gradientUnits="objectBoundingBox">
      <stop offset="0" stop-color="#632e40"/>
      <stop offset="1" stop-color="#48202d"/>
    </linearGradient>
    <linearGradient id="linear-gradient-17" x1="0.584" y1="0.628" x2="0.706" y2="0.791" xlink:href="#linear-gradient-13"/>
    <linearGradient id="linear-gradient-18" x1="0.259" y1="0.062" x2="1.084" y2="1.023" xlink:href="#linear-gradient-14"/>
    <linearGradient id="linear-gradient-19" x1="1.204" y1="0.313" x2="0.034" y2="0.627" xlink:href="#linear-gradient-15"/>
    <linearGradient id="linear-gradient-20" x1="0.811" y1="0.432" x2="0.132" y2="0.537" gradientUnits="objectBoundingBox">
      <stop offset="0" stop-color="#31adcc"/>
      <stop offset="1" stop-color="#198aa6"/>
    </linearGradient>
    <linearGradient id="linear-gradient-21" x1="0.5" y1="0.271" x2="0.503" y2="1.04" xlink:href="#linear-gradient-10"/>
    <linearGradient id="linear-gradient-22" x1="0.503" y1="0.288" x2="0.492" y2="1.163" xlink:href="#linear-gradient-10"/>
    <linearGradient id="linear-gradient-23" x1="0.444" y1="0.418" x2="0.62" y2="0.976" xlink:href="#linear-gradient-13"/>
    <linearGradient id="linear-gradient-24" x1="0.535" y1="0.421" x2="0.424" y2="0.671" xlink:href="#linear-gradient-14"/>
    <linearGradient id="linear-gradient-25" x1="0.625" y1="0.436" x2="0.835" y2="0.59" xlink:href="#linear-gradient-13"/>
    <linearGradient id="linear-gradient-26" x1="0.577" y1="0.815" x2="0.313" y2="0.091" xlink:href="#linear-gradient-13"/>
    <linearGradient id="linear-gradient-27" x1="0.482" y1="0.025" x2="0.579" y2="1.187" xlink:href="#linear-gradient-10"/>
    <linearGradient id="linear-gradient-28" x1="0.584" y1="0.856" x2="0.438" y2="0.398" xlink:href="#linear-gradient-13"/>
    <linearGradient id="linear-gradient-29" x1="0.515" y1="0.599" x2="0.459" y2="0.093" xlink:href="#linear-gradient"/>
    <linearGradient id="linear-gradient-30" x1="0.483" y1="-0.902" x2="0.515" y2="1.283" xlink:href="#linear-gradient-2"/>
    <linearGradient id="linear-gradient-31" x1="0.497" y1="0.598" x2="0.393" y2="0.416" gradientUnits="objectBoundingBox">
      <stop offset="0" stop-color="#072c41"/>
      <stop offset="1" stop-color="#104e7a"/>
    </linearGradient>
    <linearGradient id="linear-gradient-32" x1="0.499" y1="0.373" x2="0.584" y2="0.846" xlink:href="#linear-gradient-13"/>
    <linearGradient id="linear-gradient-33" x1="0.51" y1="0.686" x2="0.429" y2="0.384" xlink:href="#linear-gradient-31"/>
    <linearGradient id="linear-gradient-34" x1="0.503" y1="0.442" x2="0.476" y2="0.912" xlink:href="#linear-gradient-13"/>
    <linearGradient id="linear-gradient-35" x1="0.503" y1="0.553" x2="0.375" y2="0.327" xlink:href="#linear-gradient-15"/>
    <linearGradient id="linear-gradient-36" x1="0.475" y1="0.515" x2="0.372" y2="0.324" xlink:href="#linear-gradient-15"/>
    <linearGradient id="linear-gradient-37" x1="0.369" y1="0.363" x2="0.432" y2="0.466" xlink:href="#linear-gradient-15"/>
    <linearGradient id="linear-gradient-38" x1="0.584" y1="0.856" x2="0.438" y2="0.398" xlink:href="#linear-gradient-13"/>
    <linearGradient id="linear-gradient-39" x1="0.697" y1="0.205" x2="0.591" y2="0.465" xlink:href="#linear-gradient-14"/>
    <linearGradient id="linear-gradient-40" x1="0.191" y1="0.587" x2="-0.063" y2="0.67" xlink:href="#linear-gradient-13"/>
    <linearGradient id="linear-gradient-41" x1="0.578" y1="0.176" x2="0.359" y2="0.735" xlink:href="#linear-gradient-16"/>
    <linearGradient id="linear-gradient-42" x1="0.556" y1="0.601" x2="0.479" y2="0.084" xlink:href="#linear-gradient"/>
    <linearGradient id="linear-gradient-43" x1="0.565" y1="0.815" x2="0.492" y2="0.27" xlink:href="#linear-gradient-13"/>
    <linearGradient id="linear-gradient-44" x1="-0.382" y1="1.022" x2="1.187" y2="-0.137" xlink:href="#linear-gradient-14"/>
    <linearGradient id="linear-gradient-45" x1="0.553" y1="0.919" x2="0.434" y2="0.031" xlink:href="#linear-gradient-13"/>
    <linearGradient id="linear-gradient-46" x1="0.933" y1="1.283" x2="-0.176" y2="-0.49" xlink:href="#linear-gradient-14"/>
    <linearGradient id="linear-gradient-47" x1="0.863" y1="0.567" x2="0.263" y2="0.484" xlink:href="#linear-gradient-31"/>
    <linearGradient id="linear-gradient-48" x1="1.186" y1="0.662" x2="0.118" y2="0.441" xlink:href="#linear-gradient-31"/>
    <linearGradient id="linear-gradient-49" x1="0.51" y1="0.838" x2="0.438" y2="0.224" xlink:href="#linear-gradient-31"/>
    <linearGradient id="linear-gradient-50" x1="0.454" y1="0.898" x2="0.701" y2="-0.267" xlink:href="#linear-gradient-31"/>
    <linearGradient id="linear-gradient-51" x1="0.409" y1="0.219" x2="0.525" y2="0.588" xlink:href="#linear-gradient-15"/>
    <linearGradient id="linear-gradient-52" x1="0.533" y1="0.646" x2="0.443" y2="0.258" xlink:href="#linear-gradient-15"/>
    <linearGradient id="linear-gradient-53" x1="0.518" y1="0.215" x2="0.634" y2="0.584" xlink:href="#linear-gradient-15"/>
    <linearGradient id="linear-gradient-54" x1="0.494" y1="0.274" x2="0.547" y2="0.867" xlink:href="#linear-gradient-10"/>
    <linearGradient id="linear-gradient-55" x1="1.04" y1="0.028" x2="-0.367" y2="0.945" xlink:href="#linear-gradient-20"/>
    <linearGradient id="linear-gradient-56" x1="0.376" y1="0.493" x2="0.566" y2="0.632" xlink:href="#linear-gradient-13"/>
    <linearGradient id="linear-gradient-57" x1="0.473" y1="0.104" x2="0.535" y2="0.574" xlink:href="#linear-gradient-16"/>
  </defs>
  <g id="Group_85410" data-name="Group 85410" transform="translate(-924 -120.205)">
    <g id="Group_84980" data-name="Group 84980" transform="translate(939.819 122.862)">
      <g id="Group_84948" data-name="Group 84948" transform="translate(26.406 245.452)">
        <path id="Path_426994" data-name="Path 426994" d="M1120.614,617.44c-63.765,0-115.456-4.558-115.456-10.18s51.691-10.18,115.456-10.18,115.455,4.558,115.455,10.18S1184.378,617.44,1120.614,617.44Z" transform="translate(-1005.158 -597.08)" fill-rule="evenodd" fill="url(#linear-gradient)"/>
        <path id="Path_426995" data-name="Path 426995" d="M1163.2,617.151c-38.258,0-69.272-2.9-69.272-6.478s31.014-6.478,69.272-6.478,69.272,2.9,69.272,6.478S1201.455,617.151,1163.2,617.151Z" transform="translate(-1047.741 -600.494)" fill="#b4cde7" fill-rule="evenodd"/>
      </g>
      <g id="Group_84949" data-name="Group 84949" transform="translate(142.289 133.106)">
        <path id="Path_426996" data-name="Path 426996" d="M1227.889,413.183h23.874l-.189-.133c4.148-.262,9.789-1.414,8.574-6.7a13.674,13.674,0,0,0-2.219-4.677c-1.758-2.657-2.642-4.376-2.642-7.688a12.842,12.842,0,1,1,25.684,0c0,5.891-2.952,6.711-4.6,11.461-1.22,3.521.229,5.768,3.718,6.847q-1.267,2.494-2.451,4.928c-7.69,15.846-9.854,25.89-18.284,32.412a13.7,13.7,0,0,0-13.2-10.046,11.805,11.805,0,0,0-7.049,2.067,21.293,21.293,0,0,1-4.691,2.579,4.928,4.928,0,0,1-3.1.214c-3.008-.993-3.354-6.478-3.428-9Z" transform="translate(-1227.889 -381.146)" fill-rule="evenodd" fill="url(#linear-gradient-2)"/>
        <path id="Path_426997" data-name="Path 426997" d="M1227.889,413.184h23.873l-.187-.134c4.146-.261,9.789-1.411,8.573-6.7a13.713,13.713,0,0,0-2.219-4.678c-1.757-2.654-2.643-4.375-2.643-7.687a12.843,12.843,0,0,1,21.348-9.621c-6.225-1.24-11.447-.048-14.234,3.454-5.777,7.259,1.708,11,2.606,17.987.444,3.455-.622,6.629-3.29,8.36-6.746,4.378-22.42,2.71-33.827,2.991Z" transform="translate(-1227.889 -381.147)" fill-rule="evenodd" opacity="0.5" fill="url(#linear-gradient-3)" style="mix-blend-mode: multiply;isolation: isolate"/>
      </g>
      <g id="Group_84950" data-name="Group 84950" transform="translate(142.289 2.029)">
        <path id="Path_426998" data-name="Path 426998" d="M1308.81,210.126c0-50.857-29.239-80.534-80.921-80.916v22.831c.074,2.527.419,8.016,3.428,9.009a4.932,4.932,0,0,0,3.1-.214,21.319,21.319,0,0,0,4.691-2.579,11.8,11.8,0,0,1,7.049-2.067,13.694,13.694,0,0,1,0,27.388c-3.488,0-5.358-.93-8.159-2.784a12.874,12.874,0,0,0-4.4-2.1,4.258,4.258,0,0,0-2.285.022c-3.005.992-3.352,6.472-3.427,8.984v22.423h22.44c4.134.122,11.162.916,9.82,6.753a13.67,13.67,0,0,1-2.218,4.676c-1.759,2.658-2.643,4.377-2.643,7.689a12.842,12.842,0,1,0,25.684,0c0-5.891-2.952-6.711-4.6-11.461-2.247-6.482,4.781-7.517,9.583-7.658Z" transform="translate(-1227.889 -129.21)" fill-rule="evenodd" fill="url(#linear-gradient-4)"/>
        <path id="Path_426999" data-name="Path 426999" d="M1227.889,277.937v3.488h22.438c4.134.122,11.162.915,9.821,6.752a13.641,13.641,0,0,1-2.216,4.675c-1.76,2.658-2.646,4.378-2.646,7.691a12.844,12.844,0,0,0,20.725,10.139c-6.291,1.29-11.577.108-14.387-3.423-5.777-7.259,1.708-11,2.605-17.986.444-3.455-.622-6.629-3.29-8.36C1254.346,276.632,1239.221,278.13,1227.889,277.937Z" transform="translate(-1227.889 -200.508)" fill-rule="evenodd" opacity="0.5" fill="url(#linear-gradient-5)" style="mix-blend-mode: multiply;isolation: isolate"/>
      </g>
      <path id="Path_427000" data-name="Path 427000" d="M1153.942,502.793l2.446,22.693c2.053,19.047,15.414,34.841,34.253,34.866h2.7c18.839-.024,32.2-15.818,34.253-34.866l2.446-22.7a29.813,29.813,0,0,1-1.93,2.452,26.372,26.372,0,0,1-3.677,3.458l-.263.2,0,.005-.123.089-.671.519-.009-.033a39.672,39.672,0,0,1-11.905,5.32,67.4,67.4,0,0,1-38.943,0c-6.4-1.827-12.187-4.483-16.649-9.561A29.956,29.956,0,0,1,1153.942,502.793Z" transform="translate(-1050.126 -306.394)" fill-rule="evenodd" fill="url(#linear-gradient-6)"/>
      <path id="Path_427001" data-name="Path 427001" d="M1151.639,337.244h-24.782c-3.953-.412-8.065-1.631-6.422-6.375a21.272,21.272,0,0,1,2.579-4.691,11.812,11.812,0,0,0,2.066-7.049,13.694,13.694,0,0,0-27.388,0c0,3.488.93,5.357,2.783,8.159a12.884,12.884,0,0,1,2.1,4.4c.632,2.748-.879,4.165-3.426,4.946l-.071.022c-13.465-26.389-28.357-49.379-28.357-79.752h22.855c4.147-.122,11.18-.915,9.837-6.754a13.69,13.69,0,0,0-2.219-4.677c-1.759-2.657-2.642-4.376-2.642-7.688a12.842,12.842,0,1,1,25.684,0c0,5.891-2.951,6.711-4.6,11.461-2.247,6.484,4.785,7.518,9.575,7.658h22.428v22.427c-.074,2.514-.419,8-3.427,8.992a4.931,4.931,0,0,1-3.1-.215,21.271,21.271,0,0,1-4.691-2.579,11.807,11.807,0,0,0-7.049-2.066,13.694,13.694,0,0,0,0,27.388c3.488,0,5.358-.93,8.159-2.784a12.889,12.889,0,0,1,4.4-2.1,4.255,4.255,0,0,1,2.284.022c3.005.992,3.352,6.467,3.427,8.992Z" transform="translate(-1010.203 -173.105)" fill-rule="evenodd" fill="url(#linear-gradient-7)"/>
      <path id="Path_427002" data-name="Path 427002" d="M1070.808,260.849q-.083-1.954-.086-3.947h22.853c4.147-.122,11.179-.915,9.837-6.752a10.654,10.654,0,0,0-.688-2.029c2.2,1.918,2.083,8.859.022,10.573-2.08,1.73-5.867,2.076-8.495,2.154Zm32.227-32.813c5.944-1.892,15.613.263,14.452,8.132-.7,4.742-5.124,9.158-5.509,11.264-1.061,5.793,4.266,12.093,12.894,12.627l23.95.451c-.145,4.506,2.63,20.035-.255,27.669,2.681-1.295,3-6.437,3.072-8.851V256.9h-22.427c-4.788-.138-11.82-1.171-9.577-7.659,1.647-4.748,4.6-5.569,4.6-11.459a12.844,12.844,0,0,0-21.2-9.748Z" transform="translate(-1010.204 -173.106)" fill-rule="evenodd" opacity="0.5" fill="url(#linear-gradient-8)" style="mix-blend-mode: multiply;isolation: isolate"/>
      <path id="Path_427003" data-name="Path 427003" d="M1125.125,412.43q1.25,2.462,2.419,4.865c10.56,21.76,10.7,32.581,30.952,38.363a66.359,66.359,0,0,0,38.452,0,37.842,37.842,0,0,0,11.933-5.4l-.043-.162a12.848,12.848,0,0,0-12.423-9.58c-5.892,0-6.711,2.952-11.461,4.6-6.483,2.247-7.517-4.78-7.659-9.583V413.253h-22.434c-4.79-.14-11.822-1.173-9.575-7.658,1.646-4.75,4.6-5.57,4.6-11.461a12.842,12.842,0,0,0-25.684,0c0,3.313.883,5.032,2.642,7.689a13.669,13.669,0,0,1,2.218,4.676C1129.789,409.672,1128.065,411.507,1125.125,412.43Z" transform="translate(-1035.858 -248.111)" fill-rule="evenodd" fill="url(#linear-gradient-9)"/>
      <g id="Group_84951" data-name="Group 84951" transform="translate(28.242 60.043)">
        <path id="Path_427004" data-name="Path 427004" d="M1044.957,240.717c-6.146,7.892-13.4,16.277-26.371,7.212-1.558-1.089-5.267-3.536-7.592-2.427-3.413,1.628-2.461,5-.84,7.15,3.5,4.645,13.159,7.537,18.81,7.2,8.334-.5,15.666-6.133,22.033-16.68Z" transform="translate(-1008.685 -240.717)" fill-rule="evenodd" fill="url(#linear-gradient-10)"/>
        <path id="Path_427005" data-name="Path 427005" d="M1018.586,252.08c-1.558-1.089-5.267-3.536-7.592-2.427-3.413,1.628-2.461,5-.84,7.15,3.5,4.645,13.159,7.537,18.81,7.2,6.649-.4,12.661-4.065,18.053-10.887C1032.641,265.307,1025.979,260.873,1018.586,252.08Z" transform="translate(-1008.685 -244.869)" fill-rule="evenodd" opacity="0.35" fill="url(#linear-gradient-11)" style="mix-blend-mode: multiply;isolation: isolate"/>
      </g>
      <path id="Path_427006" data-name="Path 427006" d="M1063.794,206.226c.161-50.848,29.061-80.556,80.916-80.915v22.843c.141,4.8,1.174,11.834,7.659,9.587,4.75-1.646,5.57-4.6,11.461-4.6a12.842,12.842,0,0,1,0,25.684c-3.313,0-5.031-.884-7.689-2.643a13.682,13.682,0,0,0-4.676-2.217c-5.839-1.343-6.632,5.69-6.754,9.824v22.435h-22.416c-2.515-.074-8-.419-9-3.428a4.93,4.93,0,0,1,.215-3.1,21.279,21.279,0,0,1,2.578-4.691,11.808,11.808,0,0,0,2.066-7.049,13.694,13.694,0,0,0-27.388,0c0,3.487.93,5.357,2.784,8.159a12.9,12.9,0,0,1,2.1,4.4,4.262,4.262,0,0,1-.022,2.284c-.992,3.006-6.471,3.353-9,3.428Z" transform="translate(-1006.88 -125.311)" fill-rule="evenodd" fill="url(#linear-gradient-12)"/>
      <g id="Group_84963" data-name="Group 84963" transform="translate(0 45.39)">
        <path id="Path_427007" data-name="Path 427007" d="M1057.136,291.841c.164-.989,1.425-7.23.23-7.63-.884-.311-2.673,1.314-4.761,5.436Z" transform="translate(-1001.513 -246.91)" fill="#6d9645" fill-rule="evenodd"/>
        <g id="Group_84952" data-name="Group 84952" transform="translate(49.485 45.132)">
          <path id="Path_427008" data-name="Path 427008" d="M1049.527,352.682c-.263,1.313,3.911-.083,10.282-1.753l-1.133-6.087C1056.4,346.2,1049.967,350.488,1049.527,352.682Z" transform="translate(-1049.515 -321.146)" fill="#1989a5" fill-rule="evenodd"/>
          <path id="Path_427009" data-name="Path 427009" d="M1084.719,315.123c1.3-6.2,5.824-15.024,6.616-15.676.948-.781,1.4,1.575,1.614,4.565.522,7.179-2.1,14.4-4.537,17.268Z" transform="translate(-1066.403 -299.297)" fill="#1989a5" fill-rule="evenodd"/>
        </g>
        <g id="Group_84953" data-name="Group 84953" transform="translate(42.684 46.94)">
          <path id="Path_427010" data-name="Path 427010" d="M1060.187,302.773c7.173,10.385,11.21,14.826,2.856,27.441-6.6,9.963-13.221,20.132-14.166,25.375a28.539,28.539,0,0,0,.077,6.448c.15,2.247.172,5.249.215,8.093l-4.931-8.328-.85-6.89.755-3.775c5.375-17,10.04-25.434,4.152-43.033Z" transform="translate(-1039.775 -302.773)" fill-rule="evenodd" fill="url(#linear-gradient-13)"/>
          <path id="Path_427011" data-name="Path 427011" d="M1060.93,302.773c7.173,10.385,11.21,14.826,2.856,27.441q-1.073,1.62-2.139,3.241c-1.2-1.83-2.3-3.552-3.47-5.629-1.322,1.085-2.6,1.793-3.917,2.878-2.493,9.407-5.341,15.3-9.323,20.278,5.354-16.9,9.972-25.332,4.1-42.877Z" transform="translate(-1040.518 -302.773)" fill-rule="evenodd" fill="url(#linear-gradient-14)"/>
          <path id="Path_427012" data-name="Path 427012" d="M1040.913,394.663a46.018,46.018,0,0,0,1.285,7.064c.757,2.614,2.09,4.72,3.052,7.844.687,2.23,1.1,5.117.31,7.117-2.563-3.651-4.326-7.789-6.516-11.669l-.581.388a33.788,33.788,0,0,1-1.563-3.2,2.837,2.837,0,0,1,.019-3.114C1037.928,397.016,1038.665,396.426,1040.913,394.663Z" transform="translate(-1036.443 -346.854)" fill-rule="evenodd" fill="url(#linear-gradient-15)"/>
        </g>
        <g id="Group_84954" data-name="Group 84954" transform="translate(0 0.22)">
          <path id="Path_427013" data-name="Path 427013" d="M981.986,214.533c-3.928-1.669-5.934.048-7.471,2.849-1.611,2.937-1.787,4.434-2.881,5.532-1.855,1.859-4.276,1.479-9.228,1.806-8.729.577-9.189,8.794-6.675,14.661,2.981,6.957,11.516,11.626,18.277,12.548,8.361,1.14,10.891-2.84,11.11-7.662.144-3.179-.923-5.27-.668-6.513,1.035-5.047,5.567-3.516,5.875-9.206.171-3.172-2.824-5.392-2.487-9.391C991.453,211.925,984.585,212,981.986,214.533Z" transform="translate(-954.404 -212.975)" fill-rule="evenodd" fill="url(#linear-gradient-16)"/>
          <path id="Path_427014" data-name="Path 427014" d="M956.275,242.618q.165.455.353.9c2.981,6.957,11.516,11.626,18.277,12.548,8.361,1.14,10.891-2.84,11.11-7.662.144-3.179-.923-5.27-.668-6.513,1.035-5.047,5.567-3.516,5.875-9.206.171-3.172-2.824-5.392-2.487-9.391.07-.141.135-.278.2-.413-1.931.531-4.5.108-7.346-1.287a18.133,18.133,0,0,0-.8,5.379c-1.839-1.06-2.38.3-2.511,2.267-.189,2.859-.289,3.524-1.234,3.984-5.912,2.88-6.41,3.441-11.151,9C962.482,246.214,960.492,245.331,956.275,242.618Z" transform="translate(-955.302 -217.107)" fill="#48202d" fill-rule="evenodd"/>
        </g>
        <g id="Group_84955" data-name="Group 84955" transform="translate(48.089 45.879)">
          <path id="Path_427015" data-name="Path 427015" d="M1053.533,300.733c17.129,18.03,17.18,15.115,20,26.457,1.936,7.777,1.594,18.677,5.488,26.894,1.564,3.3,3.7,5.227,9.568,10.963l-5.427-.8-9.39-4.624c-.689-2.7-.553-5.4-1.391-7.747-1.13-3.17-3.14-7.488-4.974-12.025s-3.7-9.649-6.131-13.613c-2.57-4.19-10.6-10.728-14.448-14.178Z" transform="translate(-1046.832 -300.733)" fill-rule="evenodd" fill="url(#linear-gradient-17)"/>
          <path id="Path_427016" data-name="Path 427016" d="M1053.533,300.733c8.351,8.79,12.642,12.6,15.174,15.515a18.994,18.994,0,0,1-4.526,6.874c6.16,15.437,8.578,21.951,9.924,36.662l-.329-.162c-.689-2.7-.553-5.4-1.391-7.747-1.13-3.17-3.14-7.488-4.974-12.025s-3.7-9.649-6.131-13.613c-2.57-4.19-10.6-10.728-14.448-14.178Z" transform="translate(-1046.832 -300.733)" fill-rule="evenodd" fill="url(#linear-gradient-18)"/>
          <path id="Path_427017" data-name="Path 427017" d="M1096.912,405.982a46,46,0,0,0,5.877,4.124c2.375,1.329,4.4,1.935,7.382,3.282,2.108.953,4.677,3.026,5.521,5-4.389-.8-8.551-2.5-12.835-3.728l-.141.685a34.093,34.093,0,0,1-3.361-1.179c-1.334-.549-1.677-.762-2.175-2.229C1096.439,409.753,1096.55,408.815,1096.912,405.982Z" transform="translate(-1070.721 -351.223)" fill-rule="evenodd" fill="url(#linear-gradient-19)"/>
        </g>
        <path id="Path_427018" data-name="Path 427018" d="M1033.49,284.271c12.142,10.579,22.526,6.943,26.666,7.83-.8-.018-.682,1.466-1.211,3.664-3.6,14.93-11.615,19.194-17.889,23.253-2.423,1.567-4.832,2.079-6.281,4.606,3.247-14.63-5.149-9.829-11-17.835-1.677-2.3-3.34-6.242-5.009-9.911Z" transform="translate(-985.281 -246.957)" fill-rule="evenodd" fill="url(#linear-gradient-20)"/>
        <g id="Group_84956" data-name="Group 84956" transform="translate(18.195 18.24)">
          <path id="Path_427019" data-name="Path 427019" d="M1006.988,285.673c6.586-3.892,13.132-9.07,17.243-15.575,1.213-1.92,2.187-3.519,2.776-3.439-4.837-1.036-7.618-1.746-14.654-9.831-3.315-3.81-4.645-7.307-9.062-8.46-7.573-1.979-12.152.178-13.427,3.426-.839,2.138-.556,4.866.57,7.936C993.187,267.248,1002.344,279.025,1006.988,285.673Z" transform="translate(-989.376 -247.61)" fill-rule="evenodd" fill="url(#linear-gradient-21)"/>
          <path id="Path_427020" data-name="Path 427020" d="M1028.367,270.2c-4.245-.926-7-1.822-12.947-8.4-6.188.87-10.927-3.485-15.98-6.122a4.32,4.32,0,0,0-5.87,2.234c-.544,1.771-.276,5.205,2.289,8.509C1002.973,275.586,1016.933,275.555,1028.367,270.2Z" transform="translate(-991.276 -251.268)" fill-rule="evenodd" opacity="0.35" fill="url(#linear-gradient-22)" style="mix-blend-mode: multiply;isolation: isolate"/>
        </g>
        <g id="Group_84961" data-name="Group 84961" transform="translate(23.794)">
          <g id="Group_84959" data-name="Group 84959" transform="translate(0 6.249)">
            <g id="Group_84957" data-name="Group 84957" transform="translate(2.373 8.41)">
              <path id="Path_427021" data-name="Path 427021" d="M1005.239,240.727a13.934,13.934,0,0,1-.542,4.648c.546,2.047,4.179,3.26,5.072.023a6.43,6.43,0,0,1-.26-2.454l-1.675-1.51Z" transform="translate(-1004.697 -240.727)" fill-rule="evenodd" fill="url(#linear-gradient-23)"/>
              <path id="Path_427022" data-name="Path 427022" d="M1005.723,240.727c0,.607,0,1.086-.017,1.509.611,1.158,2.716,2.7,4.362,2.42a7.355,7.355,0,0,1-.074-1.712l-1.675-1.51Z" transform="translate(-1005.181 -240.727)" fill-rule="evenodd" fill="url(#linear-gradient-24)"/>
            </g>
            <g id="Group_84958" data-name="Group 84958">
              <path id="Path_427023" data-name="Path 427023" d="M1010.448,225.412c.24,3.287.7,5.971-.483,8.488-1.012,2.157-2.556,1.936-4.146,1.149a8.708,8.708,0,0,1-3.581-2.7,3.843,3.843,0,0,1-1.3-.7,2.324,2.324,0,0,1-.552-2.7c.243-.352.825-.1,1.212.572.485.835.768.022.779-.576a23.607,23.607,0,0,1,.806-4.376C1005.364,225.673,1008.258,227.1,1010.448,225.412Z" transform="translate(-1000.136 -224.563)" fill-rule="evenodd" fill="url(#linear-gradient-25)"/>
              <path id="Path_427024" data-name="Path 427024" d="M1010.535,225.412c.037.515.081,1.015.122,1.5-2.242.823-4.6.344-7.046-1.5-.529,1.505-.246,2.7-.565,3.773-.261.876-.639,1.265-1.165,1.078-.743-.266-.635-.771-1.561-1.022a1.356,1.356,0,0,1,.153-.3c.243-.352.825-.1,1.212.572.485.835.768.022.779-.576a23.607,23.607,0,0,1,.806-4.376C1005.451,225.673,1008.345,227.1,1010.535,225.412Z" transform="translate(-1000.223 -224.563)" fill="#da9569" fill-rule="evenodd"/>
            </g>
          </g>
          <g id="Group_84960" data-name="Group 84960" transform="translate(2.346)">
            <path id="Path_427025" data-name="Path 427025" d="M1011.166,220.428c-2.506.411-6.428-1.179-6.518-3.623-.083-2.246,2.483-3.753,4.676-4.151C1015.336,211.562,1016.658,219.528,1011.166,220.428Z" transform="translate(-1004.646 -212.552)" fill="#632e40" fill-rule="evenodd"/>
            <path id="Path_427026" data-name="Path 427026" d="M1011.254,224.409c-2.3.378-5.806-.936-6.424-3.05.016-.042.032-.083.049-.124,4.366,2.14,8.088,1.994,9.839-.384A3.834,3.834,0,0,1,1011.254,224.409Z" transform="translate(-1004.734 -216.533)" fill="#48202d" fill-rule="evenodd"/>
          </g>
        </g>
        <g id="Group_84962" data-name="Group 84962" transform="translate(19.766 11.895)">
          <path id="Path_427027" data-name="Path 427027" d="M1069.675,249l1.722-1.722c1.837-2.337,2.353-2.341,2.371-5.4a14.9,14.9,0,0,0-.584-4.634,3.508,3.508,0,0,0-2.046-1.831c-.292,3.7-2.342,4.987-2.746,7-.3,1.515-.264,3.255-1.124,4.872Z" transform="translate(-1028.313 -235.415)" fill-rule="evenodd" fill="url(#linear-gradient-26)"/>
          <path id="Path_427028" data-name="Path 427028" d="M1031.208,254.635a6.68,6.68,0,0,1,3.964,2.643c-7.665,9.933-16.1,15.922-29.836,13.77-14.008-2.195-16.012-17.487-9.046-16.844,3.878.358,7.046,5.354,11.447,7.787C1012.387,264.559,1022.357,264.366,1031.208,254.635Z" transform="translate(-992.396 -244.419)" fill-rule="evenodd" fill="url(#linear-gradient-27)"/>
        </g>
      </g>
      <g id="Group_84964" data-name="Group 84964" transform="translate(216.94 88.814)">
        <path id="Path_427029" data-name="Path 427029" d="M1376.865,309.545l4.058.22a15.552,15.552,0,0,1-.9-4.155,11.476,11.476,0,0,0-1.769-5.115c-1.018-1.6-1.625-1.141-1.211.812.118.557.26,1.092.443,1.766-1.551-1.515-1.418-2.174-2.046-4.365-.262-.913-.379-1.844-.453-1.931-.708-.834-2.82-1.076-3.418-.257s.283,5.011.624,6.116c.6,1.952.917,2.956,1.779,3.6C1375.812,307.623,1375.51,307.614,1376.865,309.545Z" transform="translate(-1371.37 -296.014)" fill-rule="evenodd" fill="url(#linear-gradient-28)"/>
        <path id="Path_427030" data-name="Path 427030" d="M1380.818,319.928a14.367,14.367,0,0,1,4.395-1.177c2.088,5.141,3.135,9.04,5.048,11.862,2.154,3.178,5.754,4.575,11.67,5.975l2.685,5.1-9.346,3.023C1384.99,337.866,1382.625,334.469,1380.818,319.928Z" transform="translate(-1375.903 -306.922)" fill-rule="evenodd" fill="url(#linear-gradient-29)"/>
        <path id="Path_427031" data-name="Path 427031" d="M1380.818,321.014c4.49,12.616,4.5,15.3,15.216,14.925a44.465,44.465,0,0,0,5.9,1.735l2.685,5.1-9.346,3.023C1384.99,338.951,1382.625,335.555,1380.818,321.014Z" transform="translate(-1375.903 -308.007)" fill="#bdd1e7" fill-rule="evenodd" opacity="0.35" style="mix-blend-mode: multiply;isolation: isolate"/>
      </g>
      <path id="Path_427032" data-name="Path 427032" d="M1281.07,286.371c-.135,30.592-14.693,52.991-28.322,79.689l-.073-.022c-3.079-.932-4.3-2.688-3.232-5.775a21.256,21.256,0,0,1,2.578-4.691,11.807,11.807,0,0,0,2.066-7.049,13.694,13.694,0,1,0-27.388,0c0,3.487.93,5.357,2.784,8.159a12.894,12.894,0,0,1,2.1,4.4c1.052,4.572-4.123,5.387-7.513,5.635h-23.916V344.438c-.123-4.147-.917-11.175-6.754-9.832a13.685,13.685,0,0,0-4.677,2.218c-2.656,1.759-4.376,2.643-7.688,2.643a12.842,12.842,0,1,1,0-25.684c5.891,0,6.711,2.952,11.461,4.6,6.483,2.246,7.518-4.78,7.658-9.57v-22.44h22.427c2.512.074,7.988.421,8.979,3.427a4.261,4.261,0,0,1,.022,2.284,12.881,12.881,0,0,1-2.1,4.4c-1.854,2.8-2.784,4.672-2.784,8.16a13.694,13.694,0,0,0,27.388,0,11.808,11.808,0,0,0-2.066-7.049,21.274,21.274,0,0,1-2.578-4.691,4.932,4.932,0,0,1-.215-3.1c.993-3.008,6.478-3.353,9-3.427Z" transform="translate(-1056.962 -202.575)" fill-rule="evenodd" fill="url(#linear-gradient-30)"/>
      <g id="Group_84969" data-name="Group 84969" transform="translate(168.3 91.805)">
        <g id="Group_84965" data-name="Group 84965" transform="translate(20.441 110.127)">
          <path id="Path_427033" data-name="Path 427033" d="M1330.261,520.807a6.2,6.2,0,0,1,1.871,1.88,3.132,3.132,0,0,1-1.479,4.587c-4.4,1.888-8.277,3.534-12.719,5.239-.606.232-.746-.4-.757-.574-.233-3.849,5.7-4.745,7.5-8.931C1325.54,520.994,1328.587,519.635,1330.261,520.807Z" transform="translate(-1317.171 -516.762)" fill-rule="evenodd" fill="url(#linear-gradient-31)"/>
          <path id="Path_427034" data-name="Path 427034" d="M1333.132,513.433a12.615,12.615,0,0,0-.433,5.374c.059.776,1.636,1.091,2.94.72,1-.284,1.843-1.07,1.659-1.751a8.326,8.326,0,0,1,.393-4.339Z" transform="translate(-1324.575 -513.433)" fill-rule="evenodd" fill="url(#linear-gradient-32)"/>
        </g>
        <g id="Group_84966" data-name="Group 84966" transform="translate(0 103.897)">
          <path id="Path_427035" data-name="Path 427035" d="M1292.919,510.091a6.191,6.191,0,0,1,1.461,2.214,3.132,3.132,0,0,1-2.358,4.2c-4.688.978-8.813,1.824-13.505,2.614-.639.108-.652-.539-.627-.713.534-3.818,6.531-3.52,9.12-7.268C1288.254,509.339,1291.51,508.612,1292.919,510.091Z" transform="translate(-1277.882 -505.22)" fill-rule="evenodd" fill="url(#linear-gradient-33)"/>
          <path id="Path_427036" data-name="Path 427036" d="M1298.157,501.459c-.458,1.807-.62,3.488-1.141,5.358-.473,1.7,4.322,1.541,4.712-.1.342-1.438.845-2.927,1.179-4.343Z" transform="translate(-1287.045 -501.459)" fill-rule="evenodd" fill="url(#linear-gradient-34)"/>
        </g>
        <path id="Path_427037" data-name="Path 427037" d="M1359.277,404.021a104.839,104.839,0,0,0-21.73,29.082c-3.693,7.685-5.312,16.092-6.7,29.83,1.438.822,4.858.8,6.393.159,2.945-10.26,5.152-17.556,11.566-26.654,9.753-13.835,21.622-17.89,23.8-26.065Z" transform="translate(-1303.292 -350.819)" fill-rule="evenodd" fill="url(#linear-gradient-35)"/>
        <path id="Path_427038" data-name="Path 427038" d="M1360.019,404.021a104.834,104.834,0,0,0-21.731,29.082c-3.009,6.263-4.642,13.005-5.893,22.721,5.981-18.391,9.653-25,18.747-28.863,5.2-2.209,11.951-4.5,16.109-8.232,3.011-2.7,5.265-5.227,6.1-8.357Z" transform="translate(-1304.034 -350.819)" fill-rule="evenodd" opacity="0.5" fill="url(#linear-gradient-36)" style="mix-blend-mode: multiply;isolation: isolate"/>
        <path id="Path_427039" data-name="Path 427039" d="M1338.994,403.42c-10.892,5.4-19.663,8.967-24.7,13.158-4.946,4.119-7.857,10.081-11.791,20.047a119.963,119.963,0,0,0-6.047,19.87,12.512,12.512,0,0,0,6.523-.2c7.291-15.744,10.676-25.906,21.126-30.789,12.321-5.757,20.485-.743,31.272-13.24Z" transform="translate(-1286.794 -350.53)" fill-rule="evenodd" fill="url(#linear-gradient-37)"/>
        <path id="Path_427040" data-name="Path 427040" d="M1355.74,315.294l4.058.221a15.534,15.534,0,0,1-.9-4.156,11.472,11.472,0,0,0-1.768-5.115c-1.018-1.6-1.625-1.142-1.211.813.118.557.26,1.091.443,1.766-1.551-1.515-1.418-2.174-2.046-4.366-.262-.913-.378-1.844-.452-1.931-.708-.835-2.82-1.076-3.418-.257s.283,5.011.624,6.115c.6,1.952.917,2.956,1.78,3.605C1354.687,313.372,1354.385,313.364,1355.74,315.294Z" transform="translate(-1312.596 -301.764)" fill-rule="evenodd" fill="url(#linear-gradient-38)"/>
        <path id="Path_427041" data-name="Path 427041" d="M1419.579,343.716c-.52,1.587-.839,3.244-2.739,4.725l8.259,4.389c-1.431-4.077-.791-5.738.526-8.178l-3.424-1Z" transform="translate(-1344.543 -321.859)" fill-rule="evenodd" fill="url(#linear-gradient-39)"/>
        <g id="Group_84967" data-name="Group 84967" transform="translate(71.118 10.758)">
          <path id="Path_427042" data-name="Path 427042" d="M1421.292,322.442c-2.159,1.005-5.032,4.363-6.128,7.5-.369,1.059-.877,2.357-.39,3.074.531.78,1.75,1.2,3.563,1.9,2.631,1.018,2.663.279,5.157-1.339l4.913-4.185-2.146-6.719Z" transform="translate(-1414.574 -322.442)" fill-rule="evenodd" fill="url(#linear-gradient-40)"/>
          <path id="Path_427043" data-name="Path 427043" d="M1426.534,322.442a6.532,6.532,0,0,0-1.034.619c.474.779.857,1.115,2.3,1.7-.625,1.417-1.742,5.209.117,5.66a5.378,5.378,0,0,0,1.292-.179c.515-.048.971.354.359.971-1.664,1.675-2.4,1.765-2.451,3.491.421-.294.924-.676,1.617-1.126l4.913-4.185-2.146-6.719Z" transform="translate(-1419.815 -322.442)" fill="#da9569" fill-rule="evenodd"/>
        </g>
        <g id="Group_84968" data-name="Group 84968" transform="translate(76.767 6.006)">
          <path id="Path_427044" data-name="Path 427044" d="M1428.494,320.066c-4.186-1.578-3.437-4.389-1.548-5.778,2.361-1.735,6.648-1.491,7.007,3.391,2.121.051,2.684.56,2.444,2.84,3.439.9,3.1,4.221,1.017,6.428-1.9,2.017-4.461,2.607-6.846,3.7a12.591,12.591,0,0,0-2.064,1.165,1.764,1.764,0,0,1-.6-2.055c.144-.535,1.53-1.874,2.191-2.876.492-.746.289-1.639-.825-1.546-.331.028-.685.335-1.253.482C1426.736,323.733,1427.739,322.2,1428.494,320.066Z" transform="translate(-1425.432 -313.308)" fill-rule="evenodd" fill="url(#linear-gradient-41)"/>
          <path id="Path_427045" data-name="Path 427045" d="M1428.494,320.909c-4.186-1.578-3.437-4.389-1.548-5.778l.094-.067a2.771,2.771,0,0,0,1.4,3.922c1.85.889,2.309,1.309,1.434,3.754-.463,1.291-.752,2.107.1,2.3,1.842.427,2.374,1.615,1.359,3.585a2.14,2.14,0,0,0,.052,2.507c-.272.113-.544.231-.813.354a4.469,4.469,0,0,0-1.819,1.555c-2.352-2.345.108-3.451,1.341-5.32.493-.746.289-1.639-.825-1.546-.331.028-.685.335-1.253.482C1426.736,324.576,1427.739,323.041,1428.494,320.909Z" transform="translate(-1425.432 -314.151)" fill="#48202d" fill-rule="evenodd"/>
        </g>
        <path id="Path_427046" data-name="Path 427046" d="M1363.529,323.655c7.464,19.432,8.941,16.157,18.51,14.845,7.174-.985,9.784-.39,14.673,1.584,1.448,6.151,1.114,10.213-.459,15.035-2.265,6.941-7.106,14.093-11.4,21.391a44.309,44.309,0,0,1-20.752-10.595c5.3-6.047,9.552-11.231,14.538-17.545-15.013,1.283-16.489-10.118-19.647-23.25A6.464,6.464,0,0,1,1363.529,323.655Z" transform="translate(-1316.793 -312.25)" fill-rule="evenodd" fill="url(#linear-gradient-42)"/>
        <path id="Path_427047" data-name="Path 427047" d="M1374.559,383.786c3.987-4.651,7.543-9.022,11.549-14.094,3.863-.54,5.654-.93,8.868-1.63C1385.37,375.368,1381.834,376.9,1374.559,383.786Z" transform="translate(-1324.26 -333.569)" fill="#bdd1e7" fill-rule="evenodd" opacity="0.35" style="mix-blend-mode: multiply;isolation: isolate"/>
      </g>
      <g id="Group_84979" data-name="Group 84979" transform="translate(91.188 110.866)">
        <g id="Group_84970" data-name="Group 84970" transform="translate(32.005 46.827)">
          <path id="Path_427048" data-name="Path 427048" d="M1220.32,431.253l-2,2.058c2.187-.238,3.578-2.295,5.34-4.05,1.309-1.3,2.816-.772,4.522-.621a15.609,15.609,0,0,1-3.222,5.579c-3.344,3.69-4.736,2.627-6.933,4.239-1.639,1.2-5.266,6.449-6.992,8.309-4.064,4.38-8.371,7.492-13.207,4.8-2.871-1.6-4.935-4.592-6.639-7.355l6.181-6.606c2.279,3.957,3.841,6.021,5.7,6.191,2.953.27,7.908-4.2,11.376-8.22,3.133-3.637,2.693-4.027,4.979-5.334S1222.132,429.391,1220.32,431.253Z" transform="translate(-1191.186 -428.404)" fill-rule="evenodd" fill="url(#linear-gradient-43)"/>
          <path id="Path_427049" data-name="Path 427049" d="M1218.715,446.5a6.065,6.065,0,0,0-.69.44c-1.639,1.2-5.266,6.449-6.992,8.309-4.064,4.38-8.371,7.493-13.207,4.8-2.871-1.6-4.935-4.592-6.639-7.355l6.181-6.606a21.935,21.935,0,0,0,3.694,5.212,10.121,10.121,0,0,1-4.295,4.179C1204.245,463.661,1212.328,449.928,1218.715,446.5Z" transform="translate(-1191.186 -436.887)" fill-rule="evenodd" fill="url(#linear-gradient-44)"/>
        </g>
        <g id="Group_84971" data-name="Group 84971">
          <path id="Path_427050" data-name="Path 427050" d="M1136.748,348.956c.453-2.02.232-3.8-.045-6.664-1.133.586-1.685,2.147-1.769,4.53-1.335-2.323-.78-5.682-.778-8.423a14.956,14.956,0,0,0-3.641,4.734,9.436,9.436,0,0,0-.617,5.97c.405,1.5,1.213,2.152,1.191,4.419-.116,11.664.1,16.648,6.418,27.416l5.426-6.842c-4.2-5.173-6.54-11.87-7.288-18.783C1135.266,351.817,1136.07,351.977,1136.748,348.956Z" transform="translate(-1129.672 -338.4)" fill-rule="evenodd" fill="url(#linear-gradient-45)"/>
          <path id="Path_427051" data-name="Path 427051" d="M1131.994,363.971a6.642,6.642,0,0,1,.208,1.819c-.116,11.664.1,16.648,6.418,27.416l5.426-6.842a34.768,34.768,0,0,1-2.386-3.421,13.213,13.213,0,0,0-4.492,2.57c-3.547-7.258-3.336-13.759-5.049-21.47Z" transform="translate(-1130.786 -350.667)" fill-rule="evenodd" fill="url(#linear-gradient-46)"/>
        </g>
        <g id="Group_84974" data-name="Group 84974" transform="translate(13.201 73.499)">
          <g id="Group_84972" data-name="Group 84972" transform="translate(32.567 63.276)">
            <path id="Path_427052" data-name="Path 427052" d="M1218.894,603.236c.637,2.231,1.422,5.168,1.207,7.444-.089.939-.335,1.628-1.4,1.785a1.485,1.485,0,0,0-.939.432,1.032,1.032,0,0,0,.9,1.476,36.415,36.415,0,0,0,6.67-.19c1.5-.2.438-1.444.134-4.72a3.3,3.3,0,0,1,.161-1.886,2.917,2.917,0,0,0,.067-2.994c-.625-1.351-1.909-1.6-2.98-3.3Z" transform="translate(-1217.641 -601.287)" fill-rule="evenodd" fill="url(#linear-gradient-47)"/>
            <path id="Path_427053" data-name="Path 427053" d="M1220.049,603.236c.272.951.642,2.353.9,3.443,2.544-.774,4.055-1.463,4.962-3.241a18.669,18.669,0,0,1-2.046-2.151Z" transform="translate(-1218.796 -601.287)" fill-rule="evenodd" opacity="0.5" fill="url(#linear-gradient-48)" style="mix-blend-mode: multiply;isolation: isolate"/>
          </g>
          <g id="Group_84973" data-name="Group 84973" transform="translate(0 69.607)">
            <path id="Path_427054" data-name="Path 427054" d="M1169.574,613.547c.267,1.424,1.077,2.511,1.2,3.558.22,1.8-.748,3.613-2.735,3.632l-13,.124c.688-4.764,7.636-2.122,9.97-7.4l3.025.183Z" transform="translate(-1155.045 -613.455)" fill-rule="evenodd" fill="url(#linear-gradient-49)"/>
            <path id="Path_427055" data-name="Path 427055" d="M1177.534,613.547a7.019,7.019,0,0,0,.392,1.3,6.785,6.785,0,0,1-6.288.517,5.7,5.7,0,0,0,1.337-1.9l3.025.183Z" transform="translate(-1163.005 -613.455)" fill-rule="evenodd" opacity="0.5" fill="url(#linear-gradient-50)" style="mix-blend-mode: multiply;isolation: isolate"/>
          </g>
          <path id="Path_427056" data-name="Path 427056" d="M1190.526,480.124a24.956,24.956,0,0,1,5.431,9.752c.882,2.909.9,6.114,1.762,11.078,2.5,14.434,5.1,29.582,8.921,43.431a6.829,6.829,0,0,1-5.547,1.722c-6.077-15.8-12.487-32.2-17.56-48.369-1.823-5.811-2.159-9.543-2.713-16.849l6.406-.574Z" transform="translate(-1167.41 -479.887)" fill-rule="evenodd" fill="url(#linear-gradient-51)"/>
          <path id="Path_427057" data-name="Path 427057" d="M1201.367,546.56q-.14-.016-.274-.041c-6.077-15.8-12.487-32.2-17.56-48.369-1.823-5.811-2.159-9.543-2.713-16.849l3.538-.317,3.472,5.863c1.345,6.053,2.044,11.435,3.265,16.9C1194.346,518.292,1198.382,531.436,1201.367,546.56Z" transform="translate(-1167.41 -480.299)" fill-rule="evenodd" opacity="0.5" fill="url(#linear-gradient-52)" style="mix-blend-mode: multiply;isolation: isolate"/>
          <path id="Path_427058" data-name="Path 427058" d="M1161.334,480.146a31.306,31.306,0,0,0-2.1,13.33c.573,6.831,2.081,14.211,3.307,21.76a312.075,312.075,0,0,1,3.721,34.336,9.8,9.8,0,0,0,6.335.191c.271-16.583-.318-36.566,2.534-52.6,4.129-5.327,3.969-9.424-.144-16.639l-8.8-.861Z" transform="translate(-1157.01 -479.668)" fill-rule="evenodd" fill="url(#linear-gradient-53)"/>
        </g>
        <g id="Group_84975" data-name="Group 84975" transform="translate(5.64 32.653)">
          <path id="Path_427059" data-name="Path 427059" d="M1146.835,401.16a15.8,15.8,0,0,0-6.323,7.361c3.588,7.364,6.017,10.417,7.354,14.186,2.176,6.133,1.93,12.146,2.555,26.678,8.1,2.266,22.282.338,26.047-2.03a43.607,43.607,0,0,1-5.946-14.486c3.166-1.965,4.291-3.288,6.889-5.945-5.524-14.4-10.361-12.417-16.745-15C1157.33,410.579,1153.081,407.986,1146.835,401.16Z" transform="translate(-1140.512 -401.16)" fill-rule="evenodd" fill="url(#linear-gradient-54)"/>
          <path id="Path_427060" data-name="Path 427060" d="M1186.25,441.392c3.166-1.965,4.291-3.288,6.889-5.945-5.524-14.4-10.361-12.417-16.745-15a23.7,23.7,0,0,1-3.1-1.524l.008.012c2.358,3.2,2.086,4.228,1.528,6.571-1.259,5.284-1.572,8.833-.071,11.634C1177.944,443.083,1184.156,441.94,1186.25,441.392Z" transform="translate(-1156.24 -409.683)" fill-rule="evenodd" opacity="0.5" fill="url(#linear-gradient-55)" style="mix-blend-mode: multiply;isolation: isolate"/>
        </g>
        <g id="Group_84978" data-name="Group 84978" transform="translate(20.105 22.548)">
          <g id="Group_84976" data-name="Group 84976" transform="translate(0.06 5.638)">
            <path id="Path_427061" data-name="Path 427061" d="M1169.692,393.315c-.339,1.488-1.895,7.737-.976,8.785.468.534,2.085.362,3.341.2l3.547-5.862-1.823-3.4-2.684-.468Z" transform="translate(-1168.429 -392.576)" fill-rule="evenodd" fill="url(#linear-gradient-56)"/>
            <path id="Path_427062" data-name="Path 427062" d="M1170.576,393.315c-.066.286-.175.749-.3,1.316a4.649,4.649,0,0,0,2.93.705c-.042,2.873-1.228,4.628-1.49,7.1.414-.03.839-.08,1.228-.129l3.547-5.862-1.823-3.4-2.684-.468Z" transform="translate(-1169.313 -392.576)" fill="#da9569" fill-rule="evenodd"/>
          </g>
          <g id="Group_84977" data-name="Group 84977">
            <path id="Path_427063" data-name="Path 427063" d="M1176.648,383.85c3.835-1.569,5.811.141,7.329,2.907,1.611,2.937,1.787,4.434,2.882,5.532,1.855,1.859,4.276,1.48,9.228,1.806,8.728.578,9.189,8.795,6.675,14.661-2.981,6.957-11.515,11.626-18.276,12.548-8.362,1.139-10.892-2.84-11.11-7.662-.2-4.357,3.463-8.142.623-11.239-1.473-1.606-2.954-1.64-2.9-4.574.038-2.225,2.061-5.059,1.633-8.224a5.194,5.194,0,0,1-1.542-.183c-5.008-1.449-3-9.134,2.466-7.442A6.83,6.83,0,0,1,1176.648,383.85Z" transform="translate(-1168.315 -381.739)" fill-rule="evenodd" fill="url(#linear-gradient-57)"/>
            <path id="Path_427064" data-name="Path 427064" d="M1195.569,420.059a27.06,27.06,0,0,1-11.083,4.358c-8.361,1.139-10.892-2.84-11.11-7.662-.2-4.357,3.464-8.142.623-11.239-1.473-1.606-2.954-1.64-2.9-4.574.038-2.225,2.061-5.059,1.633-8.224a5.191,5.191,0,0,1-1.542-.183,3.774,3.774,0,0,1-2.825-4.307c1.142,2.685,3,3.386,5.99,3.347.629,4.114-.338,6.88.807,9.248,1.829,3.782,4.1,1.928,5.064,6.556,1.011,4.834-.948,7.717,1.156,11.4C1183.853,423.1,1191.435,421.161,1195.569,420.059Z" transform="translate(-1168.316 -384.852)" fill="#48202d" fill-rule="evenodd"/>
          </g>
        </g>
      </g>
    </g>
    <g id="Group_84983" data-name="Group 84983" transform="translate(924 120.205)">
      <g id="Group_84981" data-name="Group 84981" transform="translate(23.687)">
        <path id="Path_427065" data-name="Path 427065" d="M1439.865,218.217l-.584-4.7h-6.031l-.584,4.7a17.041,17.041,0,0,0-5.036,1.927l-3.621-2.8-4.264,4.264,2.608,3.369a15.576,15.576,0,0,0-2.4,5.358l-4.034.514v6.031l4.034.514a15.572,15.572,0,0,0,2.4,5.358l-2.608,3.369,4.264,4.265,3.621-2.8a17.028,17.028,0,0,0,5.036,1.927l.584,4.7h6.031l.584-4.7a17.035,17.035,0,0,0,5.036-1.927l3.621,2.8,4.264-4.265-2.608-3.369a15.583,15.583,0,0,0,2.4-5.358l4.034-.514v-6.031l-4.034-.514a15.578,15.578,0,0,0-2.4-5.358l2.608-3.369-4.264-4.264-3.621,2.8a17.043,17.043,0,0,0-5.036-1.927Zm-3.6,5.4a10.244,10.244,0,1,1-10.244,10.244A10.244,10.244,0,0,1,1436.265,223.617Z" transform="translate(-1183.67 -164.967)" fill="#eff6ff" fill-rule="evenodd"/>
        <path id="Path_427066" data-name="Path 427066" d="M1056.116,498.056l-.63-5.07h-6.5l-.63,5.07a18.4,18.4,0,0,0-5.427,2.077l-3.9-3.021-4.6,4.6,2.811,3.632a16.811,16.811,0,0,0-2.589,5.776l-4.349.553v6.5l4.349.554a16.805,16.805,0,0,0,2.589,5.776l-2.811,3.631,4.6,4.6,3.9-3.021a18.385,18.385,0,0,0,5.427,2.077l.63,5.07h6.5l.63-5.07a18.362,18.362,0,0,0,5.428-2.077l3.9,3.021,4.6-4.6-2.812-3.631a16.794,16.794,0,0,0,2.589-5.776l4.349-.554v-6.5l-4.349-.553a16.791,16.791,0,0,0-2.589-5.776l2.812-3.632-4.6-4.6-3.9,3.021a18.378,18.378,0,0,0-5.428-2.077Zm-3.88,5.821a11.042,11.042,0,1,1-11.042,11.041A11.042,11.042,0,0,1,1052.236,503.877Z" transform="translate(-998.683 -299.035)" fill="#eff6ff" fill-rule="evenodd"/>
        <path id="Path_427067" data-name="Path 427067" d="M1384.624,158.272v1.053a.957.957,0,0,1-.954.955h-1.585a.957.957,0,0,1-.954-.955v-1.053h-.148a2.288,2.288,0,0,1-2.281-2.281v-4.226a2.259,2.259,0,0,1,.265-1.064h-.526l-.219-.557c-.328-.834-.745-1.753-1.183-2.718-1.443-3.177-3.117-6.862-2.905-10.276a7.362,7.362,0,0,1,2.452-5.165,9.293,9.293,0,0,1,5.707-2.214l.4-.015a10.121,10.121,0,0,1,5.832,1.6,6.989,6.989,0,0,1,3.108,5.605l.011.316c.082,4.088-2.118,8.7-3.691,12l-.678,1.422h-.481a2.268,2.268,0,0,1,.265,1.065v4.226a2.288,2.288,0,0,1-2.281,2.281ZM1373.9,131.528a.888.888,0,0,0-.123-1.091l-3.466-2.794c-.333-.268-.927-.27-1.091.124h0a.886.886,0,0,0,.124,1.092l3.466,2.794c.333.268.927.271,1.091-.124Zm18.48.365h0c.164.395.758.392,1.091.124l3.466-2.794a.886.886,0,0,0,.124-1.091v0c-.164-.394-.759-.392-1.091-.124l-3.466,2.794a.885.885,0,0,0-.123,1.091Zm-.4,11.7h0c0-.428.55-.652.96-.533l4.273,1.252c.41.12.532.533.532.96h0c0,.427-.55.653-.96.533l-4.272-1.252c-.41-.121-.532-.533-.532-.96Zm-18.222,0h0c0-.428-.549-.652-.96-.533l-4.272,1.252c-.409.12-.532.533-.532.96h0c0,.427.55.653.96.533l4.272-1.252c.409-.121.532-.533.532-.96Zm9.451-23.39h0a.779.779,0,0,1,.777.777v6.312a.779.779,0,0,1-.777.777h0a.779.779,0,0,1-.777-.777v-6.312a.779.779,0,0,1,.777-.777Zm-1.405,28.742v-7.524a.583.583,0,0,1,.582-.582h.968a.583.583,0,0,1,.582.582v7.523h2.212l.2-.422c1.5-3.149,3.6-7.549,3.526-11.208l-.01-.253a5.293,5.293,0,0,0-2.345-4.25,8.336,8.336,0,0,0-4.8-1.3l-.339.014a7.546,7.546,0,0,0-4.634,1.767,5.64,5.64,0,0,0-1.867,3.962c-.185,2.98,1.393,6.454,2.753,9.449.355.783.7,1.535.993,2.243Z" transform="translate(-1160.684 -120.205)" fill="#eff6ff" fill-rule="evenodd"/>
        <path id="Path_427068" data-name="Path 427068" d="M986.15,447.73v1.053a.957.957,0,0,1-.954.955h-1.584a.957.957,0,0,1-.955-.955V447.73h-.148a2.288,2.288,0,0,1-2.281-2.281v-4.226a2.259,2.259,0,0,1,.265-1.064h-.525l-.219-.557c-.328-.834-.745-1.753-1.184-2.718-1.443-3.177-3.116-6.862-2.905-10.276a7.364,7.364,0,0,1,2.452-5.165,9.294,9.294,0,0,1,5.707-2.214l.395-.015a10.12,10.12,0,0,1,5.832,1.6,6.988,6.988,0,0,1,3.108,5.605l.011.316c.082,4.088-2.119,8.7-3.691,12l-.677,1.422h-.481a2.26,2.26,0,0,1,.266,1.065v4.226a2.288,2.288,0,0,1-2.281,2.281Zm-10.72-26.744a.887.887,0,0,0-.123-1.091l-3.466-2.794c-.333-.268-.928-.27-1.092.124h0a.886.886,0,0,0,.124,1.091l3.466,2.794c.333.268.927.271,1.091-.124v0Zm18.48.365h0c.164.394.759.392,1.092.124l3.466-2.794a.888.888,0,0,0,.124-1.092h0c-.165-.394-.759-.392-1.092-.124l-3.466,2.794a.886.886,0,0,0-.123,1.091Zm-.4,11.7v0c0-.427.549-.652.96-.532l4.272,1.252c.41.12.532.533.532.96h0c0,.427-.551.653-.96.533l-4.273-1.252c-.409-.121-.532-.533-.532-.96Zm-18.222,0v0c0-.427-.549-.652-.96-.532l-4.273,1.252c-.41.12-.532.533-.532.96h0c0,.427.55.653.96.533l4.273-1.252c.409-.121.532-.533.532-.96Zm9.451-23.391h0a.779.779,0,0,1,.777.777v6.312a.779.779,0,0,1-.777.777h0a.779.779,0,0,1-.777-.777v-6.312a.779.779,0,0,1,.777-.777ZM983.338,438.4v-7.524a.583.583,0,0,1,.582-.582h.968a.583.583,0,0,1,.582.582V438.4h2.212l.2-.422c1.5-3.149,3.6-7.549,3.526-11.208l-.01-.253a5.294,5.294,0,0,0-2.345-4.25,8.336,8.336,0,0,0-4.8-1.3l-.34.014a7.548,7.548,0,0,0-4.634,1.767,5.642,5.642,0,0,0-1.867,3.962c-.185,2.98,1.393,6.454,2.754,9.449.355.783.7,1.535.992,2.243Z" transform="translate(-969.528 -259.063)" fill="#eff6ff" fill-rule="evenodd"/>
        <path id="Path_427069" data-name="Path 427069" d="M1402.158,497.781a7.164,7.164,0,1,1-7.164,7.164A7.164,7.164,0,0,1,1402.158,497.781Z" transform="translate(-1173.632 -301.336)" fill="#e3efff" fill-rule="evenodd"/>
        <path id="Path_427070" data-name="Path 427070" d="M1042.35,165.9a7.165,7.165,0,1,1-7.164,7.164A7.164,7.164,0,0,1,1042.35,165.9Z" transform="translate(-1001.025 -142.125)" fill="#e3efff" fill-rule="evenodd"/>
      </g>
      <g id="Group_84982" data-name="Group 84982" transform="translate(0 10.83)">
        <path id="Path_427071" data-name="Path 427071" d="M937.643,156.128c.735-2.67,4.059-6.749,6.635-6.4l3.059,11.12Z" transform="translate(-930.545 -145.188)" fill="#fbcd42" fill-rule="evenodd"/>
        <path id="Path_427072" data-name="Path 427072" d="M1531.056,141.021l-1.6,9.039,7.956-4.658A25.6,25.6,0,0,0,1531.056,141.021Z" transform="translate(-1214.45 -141.021)" fill="#31accb" fill-rule="evenodd"/>
        <path id="Path_427073" data-name="Path 427073" d="M924,479.3l4.906,7.909,3.058-13.318A16.393,16.393,0,0,0,924,479.3Z" transform="translate(-924 -300.705)" fill="#31accb" fill-rule="evenodd"/>
        <path id="Path_427074" data-name="Path 427074" d="M1522.163,425.275l-9.013,1.744,7.2,5.761A25.636,25.636,0,0,0,1522.163,425.275Z" transform="translate(-1206.627 -277.383)" fill="#8eb961" fill-rule="evenodd"/>
        <path id="Path_427075" data-name="Path 427075" d="M1556.54,606.045l-8.856-2.417,3.912,8.348A25.609,25.609,0,0,0,1556.54,606.045Z" transform="translate(-1223.193 -362.943)" fill="#105b90" fill-rule="evenodd"/>
      </g>
    </g>
  </g>
</svg>
