<svg enable-background="new 0 0 170.1 113.4" viewBox="0 0 170.1 113.4" xmlns="http://www.w3.org/2000/svg" xmlns:xlink="http://www.w3.org/1999/xlink"><clipPath id="a"><path d="m85 0c31.3 0 56.7 25.3 56.7 56.6s-25.3 56.7-56.6 56.7-56.7-25.3-56.7-56.6c0 0 0 0 0-.1-.1-31.2 25.3-56.6 56.6-56.6z"/></clipPath><path clip-rule="evenodd" d="m85 0c31.3 0 56.7 25.3 56.7 56.6s-25.3 56.7-56.6 56.7-56.7-25.3-56.7-56.6c0 0 0 0 0-.1-.1-31.2 25.3-56.6 56.6-56.6z" fill="#ccc" fill-rule="evenodd"/><g clip-path="url(#a)"><path d="m0 0h170.1v113.4h-170.1z" fill="#f0f0f0"/><path d="m0 104.7h170.1v8.7h-170.1zm0-104.7h170.1v8.7h-170.1zm0 17.4h170.1v8.7h-170.1zm0 17.5h170.1v8.7h-170.1zm0 17.4h170.1v8.7h-170.1zm0 17.5h170.1v8.7h-170.1zm0 17.4h170.1v8.7h-170.1z" fill="#ff1612"/><path d="m0 0h86.2v61h-86.2z" fill="#0540a8"/><path d="m79.6 17.2-.8-2.4-.8 2.4h-2.5l2.1 1.5-.8 2.4 2-1.5 2.1 1.5-.9-2.4 2.1-1.5zm-71-10.8 2-1.5h-2.5l-.7-2.4-.8 2.5h-2.6l2 1.4-.7 2.5 2-1.5 2.1 1.5zm14.3 0 2.1-1.4h-2.6l-.8-2.4-.7 2.4h-2.5l2 1.5-.8 2.4 2.1-1.5 2 1.5s-.8-2.5-.8-2.5zm14.3 0 2.1-1.4h-2.5l-.8-2.4-.9 2.4h-2.5l2.1 1.5-.8 2.4 2-1.5 2.1 1.5zm14.3 0 2-1.5h-2.5l-.8-2.4-.8 2.5h-2.5l2.1 1.4-.8 2.4 2-1.5 2 1.5zm-35.4 42.6 2.1-1.5h-2.5l-.8-2.4-.8 2.4h-2.5l2.1 1.5-.8 2.4 2.1-1.5 2 1.5zm-.2-11.9 2-1.5h-2.5l-.8-2.4-.8 2.4h-2.5l2.1 1.5-.8 2.4 2-1.5 2.1 1.5zm.1-11.8 2-1.5h-2.5l-.8-2.4-.8 2.4h-2.5l2.1 1.5-.8 2.4 2.1-1.5 2 1.5zm49.8-18.9 2-1.5h-2.5l-.8-2.4-.8 2.5h-2.5l2 1.5-.8 2.4 2.1-1.5 2 1.5zm14.3 0 2-1.4h-2.5l-.8-2.5-.8 2.5h-2.5l2.1 1.5-.8 2.4 2-1.5 2.1 1.5zm-49.9 18.9 2.1-1.5h-2.5l-.8-2.4-.8 2.4h-2.6l2 1.5-.8 2.4 2-1.5 2.1 1.5zm0 11.8 2-1.5h-2.5l-.8-2.4-.8 2.4h-2.5l2 1.5-.8 2.4 2-1.5 2.2 1.5zm.2 11.9 2.1-1.5h-2.5l-.8-2.4-.8 2.4h-2.6l2 1.5-.8 2.4 2-1.5 2.1 1.5zm14.3 0 2-1.5h-2.5l-.8-2.4-.8 2.4h-2.5l2 1.5-.8 2.4 2-1.5 2 1.5zm-.3-11.9 2.1-1.5h-2.5l-.8-2.4-.8 2.4h-2.6l2.1 1.5-.8 2.4 2.1-1.5 2 1.5zm.1-11.8 2-1.5h-2.5l-.8-2.4-.8 2.4h-2.5l2.1 1.5-.8 2.4 2-1.5 2 1.5zm-28.7-12.7 2-1.5h-2.5l-.8-2.4-.8 2.4h-2.5l2.1 1.5-.9 2.4 2-1.5 2.1 1.5zm14.3 0 2-1.5h-2.5l-.8-2.4-.8 2.4h-2.5l2 1.5-.8 2.4 2-1.5 2.1 1.5zm28.7 12.7 2-1.5h-2.5l-.8-2.4-.8 2.4h-2.5l2.1 1.5-.8 2.4 2.1-1.5 2 1.5zm-.1 11.8 2-1.5h-2.5l-.8-2.4-.8 2.4h-2.5l2 1.5-.8 2.4 2-1.5 2.1 1.5zm.3 11.9 2.1-1.5h-2.5l-.8-2.4-.8 2.4h-2.6l2.1 1.5-.8 2.4 2.1-1.5 2 1.5zm14.3 0 2-1.5h-2.5l-.8-2.4-.8 2.4h-2.5l2 1.5-.7 2.4 2-1.5 2.1 1.5zm-.3-11.9 2-1.5h-2.5l-.8-2.4-.7 2.4h-2.6l2 1.5-.8 2.4 2.1-1.5 2 1.5zm.1-11.8 2.1-1.5h-2.5l-.8-2.4-.9 2.4h-2.5l2 1.5-.8 2.4 2-1.5 2.1 1.5zm-28.8-12.7 2-1.5h-2.5l-.8-2.4-.8 2.4h-2.5l2 1.5-.7 2.4 2-1.5 2 1.5zm14.3 0 2.1-1.5h-2.5l-.8-2.4-.8 2.4h-2.6l2.1 1.5-.8 2.4 2-1.5 2.1 1.5zm14.3 0 2-1.5h-2.5l-.8-2.4-.8 2.4h-2.5l2 1.5-.7 2.4 2-1.5 2 1.5zm-63.9 42.5 2.1-1.5h-2.6l-.8-2.4-.7 2.4h-2.6l2 1.5-.8 2.4 2.1-1.5 2.1 1.5zm-.3-11.9 2-1.5h-2.5l-.8-2.4-.8 2.4h-2.5l2 1.5-.8 2.4 2.1-1.5 2.1 1.5zm.1-11.8 2.1-1.5h-2.6l-.8-2.4-.8 2.4h-2.5l2 1.5-.8 2.4 2.1-1.5 2.1 1.5zm14.3 0 2-1.5h-2.5l-.8-2.4-.8 2.4h-2.5l2 1.5-.8 2.4 2-1.5 2 1.5zm-.1 11.8 2.1-1.5h-2.5l-.8-2.4-.8 2.4h-2.6l2 1.5-.8 2.4 2.1-1.5 2 1.5zm.3 11.9 2-1.5h-2.5l-.8-2.4-.8 2.4h-2.5l2 1.5-.7 2.4 2-1.5 2 1.5zm14.3 0 2-1.5h-2.5l-.8-2.4-.8 2.4h-2.5l2.1 1.5-.8 2.4 2.1-1.5 2 1.5zm-.3-11.9 2-1.5h-2.5l-.8-2.4-.8 2.4h-2.5l2 1.5-.7 2.5 2-1.5 2.1 1.5zm0-11.8 2.1-1.5h-2.5l-.8-2.4-.8 2.4h-2.5l2.1 1.5-.9 2.4 2.1-1.5 2 1.5zm-28.7-12.7 2-1.5h-2.5l-.8-2.4-.8 2.4h-2.5l2 1.5-.8 2.4 2.1-1.5 2.1 1.5zm14.3 0 2.1-1.5h-2.6l-.8-2.4-.8 2.4h-2.5l2 1.5-.8 2.4 2.1-1.5 2 1.5c.1 0-.7-2.4-.7-2.4zm28.8 12.7 2-1.5h-2.5l-.8-2.4-.8 2.4h-2.5l2 1.5-.8 2.4 2-1.5 2.1 1.5zm-.1 11.8 2-1.5h-2.5l-.8-2.4-.8 2.4h-2.5l2 1.5-.8 2.4 2-1.5 2 1.5zm.3 11.9 2-1.5h-2.5l-.8-2.4-.8 2.4h-2.5l2 1.5-.8 2.4 2-1.5 2.1 1.5zm14.3 0 2-1.5h-2.5l-.8-2.4-.8 2.4h-2.5l2 1.5-.8 2.4 2-1.5 2 1.5zm14.2 0 2.1-1.5h-2.5l-.8-2.4-.8 2.4h-2.6l2 1.5-.8 2.4 2.1-1.5 2 1.5zm-14.5-11.9 2.1-1.5h-2.5l-.8-2.4-.8 2.4h-2.5l2.1 1.5-.8 2.4 2.1-1.5 2 1.5zm14.3 0 2-1.5h-2.5l-.8-2.4-.8 2.4h-2.5l2 1.5-.8 2.4 2.1-1.5 2 1.5zm-14.2-11.8 2-1.5h-2.5l-.8-2.4-.8 2.4h-2.5l2 1.5-.8 2.4 2-1.5 2 1.5zm14.3 0 2-1.5h-2.5l-.8-2.4-.8 2.4h-2.5l2 1.5-.8 2.4 2-1.5 2 1.5-.8-2.4zm-43-12.7 2.1-1.5h-2.6l-.8-2.4-.8 2.4h-2.5l2.1 1.5-.8 2.4 2-1.5 2.1 1.5zm14.3 0 2-1.5h-2.6l-.8-2.4-.8 2.4h-2.5l2.1 1.5-.8 2.4 2-1.5 2 1.5zm14.3 0 2-1.5h-2.6l-.8-2.4-.8 2.4h-2.5l2 1.5-.8 2.4 2.1-1.5 2 1.5-.8-2.4z" fill="#fbf9f8"/></g></svg>