<svg enable-background="new 0 0 170.1 113.4" viewBox="0 0 170.1 113.4" xmlns="http://www.w3.org/2000/svg" xmlns:xlink="http://www.w3.org/1999/xlink"><clipPath id="a"><path d="m85 0c31.3 0 56.7 25.3 56.7 56.6s-25.3 56.7-56.6 56.7-56.7-25.3-56.7-56.6c0 0 0 0 0-.1-.1-31.2 25.3-56.6 56.6-56.6z"/></clipPath><g clip-rule="evenodd" fill-rule="evenodd"><path d="m85 0c31.3 0 56.7 25.3 56.7 56.6s-25.3 56.7-56.6 56.7-56.7-25.3-56.7-56.6c0 0 0 0 0-.1-.1-31.2 25.3-56.6 56.6-56.6z" fill="#ccc"/><g clip-path="url(#a)"><path d="m0 37.8h170.1v-37.8h-170.1z" fill="#ff1612"/><path d="m0 75.6h170.1v-37.8h-170.1z" fill="#f0f0f0"/><path d="m0 113.4h170.1v-37.8h-170.1z" fill="#49ae20"/></g></g></svg>