<svg enable-background="new 0 0 170.1 113.4" viewBox="0 0 170.1 113.4" xmlns="http://www.w3.org/2000/svg" xmlns:xlink="http://www.w3.org/1999/xlink"><clipPath id="a"><path d="m85 0c31.3 0 56.7 25.3 56.7 56.6s-25.3 56.7-56.6 56.7-56.7-25.3-56.7-56.6c0 0 0 0 0-.1-.1-31.2 25.3-56.6 56.6-56.6z"/></clipPath><g clip-rule="evenodd" fill-rule="evenodd"><path d="m85 0c31.3 0 56.7 25.3 56.7 56.6s-25.3 56.7-56.6 56.7-56.7-25.3-56.7-56.6c0 0 0 0 0-.1-.1-31.2 25.3-56.6 56.6-56.6z" fill="#ccc"/><g clip-path="url(#a)"><path d="m0 28.3h170.1v-28.3h-170.1z" fill="#0540a8"/><path d="m0 56.7h170.1v-28.4h-170.1z" fill="#f0f0f0"/><path d="m0 85h170.1v-28.3h-170.1z" fill="#49ae20"/><path d="m0 113.4h170.1v-28.4h-170.1z" fill="#ffcd31"/><path d="m70.9 113.4h28.3v-113.4h-28.3z" fill="#ff1612"/><path d="m53 2.6 2.8 8.8h9.3l-7.5 5.5 2.9 8.8-7.5-5.4-7.5 5.4 2.8-8.8-7.5-5.5h9.3z" fill="#ffcd31"/></g></g></svg>