<svg enable-background="new 0 0 170.1 113.4" viewBox="0 0 170.1 113.4" xmlns="http://www.w3.org/2000/svg" xmlns:xlink="http://www.w3.org/1999/xlink"><clipPath id="a"><path d="m85 0c31.3 0 56.7 25.4 56.7 56.7s-25.4 56.7-56.7 56.7-56.7-25.4-56.7-56.7c0-31.3 25.4-56.7 56.7-56.7z"/></clipPath><g clip-path="url(#a)"><path d="m22-14.4h179.9v82.8h-179.9z" fill="#ed2939"/><path d="m22 68.3h179.9v63h-179.9z" fill="#f0f0f0"/><path d="m83.7 36.8c0 3.1-.6 6.2-1.7 9.1s-2.8 5.5-4.9 7.7-4.6 3.9-7.3 5.1-5.7 1.8-8.6 1.8c-3 0-5.9-.6-8.6-1.8s-5.2-2.9-7.3-5.1-3.8-4.8-4.9-7.7-1.7-6-1.7-9.1.6-6.2 1.7-9.1 2.8-5.5 4.9-7.7 4.6-3.9 7.3-5.1 5.7-1.8 8.6-1.8c3 0 5.9.6 8.6 1.8s5.2 2.9 7.3 5.1 3.8 4.8 4.9 7.7 1.7 6 1.7 9.1z" fill="#fff"/><path d="m90.8 36.8c0 2.9-.6 5.9-1.6 8.6-1.1 2.7-2.6 5.2-4.6 7.3s-4.3 3.7-6.9 4.9c-2.6 1.1-5.4 1.7-8.2 1.7s-5.6-.6-8.2-1.7-4.9-2.8-6.9-4.9-3.6-4.6-4.6-7.3c-1.1-2.7-1.6-5.6-1.6-8.6 0-2.9.6-5.9 1.6-8.6 1.1-2.7 2.6-5.2 4.6-7.3s4.3-3.7 6.9-4.9c2.6-1.1 5.4-1.7 8.2-1.7s5.6.6 8.2 1.7 4.9 2.8 6.9 4.9 3.6 4.6 4.6 7.3c1 2.8 1.6 5.7 1.6 8.6z" fill="#ed2939"/><g fill="#fff"><path d="m63.9 37.4-3-2.5-3.1 2.5 1.2-4-3.1-2.4h3.8l1.2-4 1.1 4h3.8l-3.1 2.4z"/><path d="m88 37.4-3.1-2.5-3.1 2.5 1.2-4-3.1-2.4h3.8l1.2-4 1.2 4h3.7l-3 2.4z"/><path d="m76 28-3.1-2.4-3.1 2.4 1.2-3.9-3.1-2.5h3.8l1.2-4 1.2 4h3.7l-3 2.5z"/><path d="m68.4 52.4-3-2.5-3.1 2.5 1.2-4-3.1-2.4h3.8l1.2-4 1.1 4h3.8l-3.1 2.4z"/><path d="m83.5 52.4-3.1-2.5-3.1 2.5 1.2-4-3.1-2.4h3.8l1.2-4 1.2 4h3.7l-3 2.4z"/></g></g></svg>