<svg enable-background="new 0 0 170.1 113.4" viewBox="0 0 170.1 113.4" xmlns="http://www.w3.org/2000/svg" xmlns:xlink="http://www.w3.org/1999/xlink"><clipPath id="a"><path d="m85 0c31.3 0 56.7 25.3 56.7 56.6s-25.3 56.7-56.6 56.7-56.7-25.3-56.7-56.6c0 0 0 0 0-.1-.1-31.2 25.3-56.6 56.6-56.6z"/></clipPath><path clip-rule="evenodd" d="m85 0c31.3 0 56.7 25.3 56.7 56.6s-25.3 56.7-56.6 56.7-56.7-25.3-56.7-56.6c0 0 0 0 0-.1-.1-31.2 25.3-56.6 56.6-56.6z" fill="#ccc" fill-rule="evenodd"/><g clip-path="url(#a)"><path d="m0 0h170.1v113.4h-170.1z" fill="#ff1612"/><path d="m83.3 55.9c-17.7-9.1-8.8-33.5 9.7-32.2-5.8 3-2.9 6.5-1.6 10.3 1.7 4.9-1.5 8.5-5.2 10.8-4.1 2.6-5 7.8-2 11-5.1-3.5-5.9-11.5-2.7-16.7l-.4-.3c-3.3 5.3-2.7 13.2 2.2 17.1zm.5 2.2c-14.1 14-34.6-1.9-27.7-19.1 1 6.4 5.3 4.8 9.3 4.7 5.2-.1 7.6 4 8.7 8.3 1.2 4.7 5.8 7.2 9.9 5.3-4.9 3.8-12.8 2.1-16.7-2.6l-.4.3c4 4.7 11.7 6.6 16.9 3.1zm-16.9-6.1.9-1.9-1.9.8-1.5-1.4.1 2.1-1.8 1 2 .5.4 2 1.1-1.8 2.1.2zm19.2 6.2c9.1 17.7-12.2 32.4-26.5 20.7 6.4.9 6.2-3.6 7.3-7.5 1.4-5 6.1-6.1 10.6-5.8 4.9.3 8.6-3.4 8-7.9 2.2 5.8-1.9 12.8-7.5 15.2l.2.4c5.6-2.3 9.6-9.2 7.9-15.1zm-10.9 14.2-1.5-1.4.2 2.1-1.8 1 2 .5.4 2 1.1-1.8 2.1.2-1.3-1.6.9-1.9zm11.2-15.8c19.6-3.4 27.3 21.3 11.8 31.5 2.8-5.9-1.6-7-5-9.2-4.3-2.9-4-7.6-2.4-11.8 1.7-4.5-.7-9.2-5.1-10 6.2-.3 11.7 5.6 12.2 11.7h.5c-.5-6.2-5.9-12.1-12-12.2zm10.3 14.6-1.8 1.1 2 .5.5 2 1.1-1.7 2.1.2-1.4-1.6.8-1.9-1.9.8-1.6-1.4zm-11.4-16.5c3.3-19.6 29.2-18.6 33.6-.6-4.6-4.6-7.1-.8-10.3 1.6-4.1 3.1-8.5 1.2-11.9-1.7-3.7-3.2-8.9-2.4-11.1 1.5 1.8-6 9.2-9.1 15.1-7.6l.1-.5c-6-1.5-13.4 1.5-15.5 7.3zm17.2-4.8.4 2 1.1-1.8 2.1.2-1.3-1.6.9-1.9-1.9.8-1.5-1.4.1 2.1-1.8 1zm-18.5-11.9 2.1.2-1.3-1.6.9-1.9-1.9.8-1.5-1.4.1 2.1-1.8 1 2 .5.4 2z" fill="#f0f0f0"/></g></svg>