<svg enable-background="new 0 0 170.1 113.4" viewBox="0 0 170.1 113.4" xmlns="http://www.w3.org/2000/svg" xmlns:xlink="http://www.w3.org/1999/xlink"><clipPath id="a"><path d="m85 0c31.3 0 56.7 25.4 56.7 56.7s-25.4 56.7-56.7 56.7-56.7-25.4-56.7-56.7c0-31.3 25.4-56.7 56.7-56.7z"/></clipPath><path clip-rule="evenodd" d="m85 0c31.3 0 56.7 25.4 56.7 56.7s-25.4 56.7-56.7 56.7-56.7-25.4-56.7-56.7c0-31.3 25.4-56.7 56.7-56.7z" fill="#ccc" fill-rule="evenodd"/><g clip-path="url(#a)"><path clip-rule="evenodd" d="m57.4 0h57.2v113.4h-57.2z" fill="#f0f0f0" fill-rule="evenodd"/><path clip-rule="evenodd" d="m.7 0h56.7v113.4h-56.7z" fill="#49ae20" fill-rule="evenodd"/><path clip-rule="evenodd" d="m114.6 0h56.1v113.4h-56.1z" fill="#ff1612" fill-rule="evenodd"/><path clip-rule="evenodd" d="m81.4 67.3-1.2-.3-1.4-1.5-.3.8c-.7-.1-1.3-.4-1.9-.7-.7-.3-1.5-.5-2.3-.6 0 0 1.6.9 1.8 1.5.1.3 0 .7-.4.9.5.3 1.1.4 1.7.4.7 0 1.3.3 1.8.7l-1 1.2c.5.2.9.3 1.4.3h2.2z" fill="#00abde" fill-rule="evenodd"/><path clip-rule="evenodd" d="m88.5 67.8 4.7-.4-2.4 1.4.8.7-1 .6h-3.7z" fill="#00abde" fill-rule="evenodd"/><path clip-rule="evenodd" d="m90.8 64.5c.2.1 1.2.5 1.5.2s.5-1.3 1.4-1.7 1-.6 1.5-.4c.6.5.9 1.3 1 2.1-.2.6-.7 1.1-1.4 1.3-1 .3-2 .3-3 .2-.7-.3-1.3-.7-1.9-1.1z" fill="#00805d" fill-rule="evenodd"/><path d="m90.9 64.5h.1c.3.1 1.1.4 1.4.1.1-.2.3-.3.3-.5.2-.5.6-.9 1.1-1.1.3-.1.5-.2.7-.3.3-.2.5-.2.8-.1.3.2.5.5.7.9s.3.8.3 1.3c-.1.3-.3.6-.5.8-.3.2-.6.4-.9.5-.6.1-1.1.2-1.7.3-.4.1-.9.1-1.3 0-.7-.3-1.3-.7-1.9-1.1l.9-.7zm.1.1h-.1l-.9.6c.6.4 1.2.7 1.9 1 .4.1.9.1 1.3 0 .6 0 1.1-.1 1.7-.2.3-.1.6-.3.9-.5.2-.2.4-.5.5-.8 0-.4-.1-.8-.3-1.2-.1-.3-.3-.6-.6-.8-.3-.1-.4 0-.8.1-.2.1-.4.2-.7.3-.5.2-.8.6-1 1.1-.1.2-.2.4-.4.6-.4.2-1.1-.1-1.5-.2z" fill="#231f20"/><path clip-rule="evenodd" d="m75 61c-.3-.8-.2-1.7-.8-2.1s-1.6-1.3-2-1-1.3.3-1.3 1-.3 1.2.5 1.8c1 .5 2.1.9 3.2 1.2z" fill="#00805d" fill-rule="evenodd"/><path d="m74.9 61c-.1-.3-.2-.6-.2-.9-.1-.5-.2-.9-.5-1.1-.2-.1-.4-.2-.6-.4-.5-.4-1.1-.8-1.4-.7-.1.1-.2.1-.4.2-.4.2-.9.3-.9.8v.4c-.1.5.1 1 .5 1.3 1 .5 2.1.9 3.2 1.2zm-.1-.9c0 .3.1.6.2.9l-.3.8c-1.1-.3-2.2-.7-3.2-1.2-.5-.3-.7-.8-.6-1.4 0-.2 0-.3 0-.4 0-.5.5-.7.9-.9.1 0 .2-.1.4-.2.3-.2.9.3 1.5.7.2.1.4.3.6.4.3.3.4.7.5 1.3z" fill="#231f20"/><path clip-rule="evenodd" d="m80 62.4c-.5-.4-.6-.6-1.3-1.2s-1-1.2-1.7-1.2-1.6-.2-2 .4-1.2 1.3-.7 1.9 1.5 1.6 2.2 1.6 3.7-.3 3.7-.3z" fill="#00805d" fill-rule="evenodd"/><path d="m80 62.4c-.2-.2-.4-.3-.6-.5s-.4-.4-.7-.6c-.2-.2-.3-.3-.5-.5-.4-.4-.8-.8-1.2-.8h-.3c-.6 0-1.3-.1-1.6.4-.1.1-.2.2-.3.4-.4.5-.8 1-.4 1.5.3.4.7.7 1.1 1 .3.3.7.5 1.1.6.6 0 3.3-.3 3.6-.3zm-.6-.6c.2.2.4.4.6.5l.2 1.2s-3 .4-3.7.3c-.4-.1-.8-.3-1.2-.6s-.7-.6-1.1-1c-.5-.5 0-1.1.4-1.6.1-.1.2-.3.3-.4.3-.5 1-.4 1.6-.4h.5c.5 0 .8.3 1.3.8l.5.5c.2.2.4.4.6.7z" fill="#231f20"/><path clip-rule="evenodd" d="m87.2 63.7-1.3-.7c-.7-.7-1.5-1.2-2.4-1.6-1-.3-2.4-.6-3-.1s-1.2 1.2-1 1.8.3 1.4 1.2 1.7c.9.4 2 .6 3 .5.9-.2 3.1-.9 3.1-.9z" fill="#00805d" fill-rule="evenodd"/><path d="m87.1 63.7-1.2-.7c-.7-.7-1.5-1.2-2.4-1.5-.5-.2-1.1-.3-1.7-.3-.4-.1-.9 0-1.3.2-.3.3-.5.5-.8.8-.2.2-.3.6-.2.9 0 .1.1.2.1.3.1.6.4 1.1 1 1.4.5.2 1 .3 1.4.4.5.1 1 .1 1.5 0 .9-.2 2.9-.8 3.1-.9zm-1.2-.8 1.3.7-.5.7s-2.2.7-3.1.9c-.5.1-1 .1-1.5 0s-1-.2-1.5-.4c-.6-.3-1-.8-1.1-1.4l-.1-.3c-.1-.3 0-.7.2-1s.5-.6.8-.9c.4-.3.9-.3 1.3-.2.6.1 1.1.2 1.7.3 1 .4 1.8.9 2.5 1.6z" fill="#231f20"/><path clip-rule="evenodd" d="m75.6 42.2c.3.3.5.7.5 1.1-.1.1.3-.7 0-1.1s-.3-.5-.3-.5z" fill="#fff200" fill-rule="evenodd"/><path clip-rule="evenodd" d="m76.1 42.3s.2-1-.3-.8c-.7.4-1.4.9-2 1.4-.2.3-.5.7-.4 1s.3.5.5.8c0 .4 0 .7.1 1.1.2.3.3.5.7.6s1.7 0 1.7 0c.4.1.9.3 1.3.6.2.2.3.5.1.7s-3.6 2.5-3.4 4.8 1.6 2.6 3.2 2.5c0 0-2.4-.3-2-2.2s2.6-3.1 3-3.4c.7-1 .5-2.3-.5-3-.1 0-.1-.1-.2-.1-1.6-1-1.3-1.2-1.3-1.2-.2 0-.4-.1-.5-.1-.4 0-.8 0-.7-.5.4-.1.8-.3 1.2-.5.1-.2.2-.4.2-.7 0 0-.5.5-.8.6s-.9.2-.6-.2.3-.4.3-.4l.3-1.1z" fill="#00805d" fill-rule="evenodd"/><path clip-rule="evenodd" d="m77.8 49.7c.3-.1.5-.2.7-.3.5-.5.9-1.1 1-1.7 0-.7-.3-1.4-.7-2-.6-.3-1.2-.5-1.9-.6h-.6l-.4.6 1.7 1.3.5 1z" fill="#884c00" fill-rule="evenodd"/><path clip-rule="evenodd" d="m76.1 56.9c-.4 0-.5 0-.7-.3-.2-.5-.4-1-.5-1.5s-1.3-1-1.4-1.6c-.2-1.1 1.3-3.4-1-3.9-1.5-.3-.5 1-.5 1s.9.5.7 1c-.5.7-.7 1.5-.7 2.3.2.9 1.3 1.2 1.7 1.9.2.3.3.6.4.9.3 1.8 1.4 2.5 3.1 1.2s-1.1-1-1.1-1z" fill="#00805d" fill-rule="evenodd"/><path clip-rule="evenodd" d="m71.6 51s.6-.2.8-.6.3-1.5-.6-1c0 0 0-.3-.6-.1 0 0-.3-.5-1 0s0 .7.2.7c0 0-.1 1.2.7.7 0 0 0 .4.5.3z" fill="#f8951d" fill-rule="evenodd"/><path clip-rule="evenodd" d="m70.4 49.6.3-.3h-.3z" fill="#ffec82" fill-rule="evenodd"/><path clip-rule="evenodd" d="m70.9 49.6v.3h.3v-.3z" fill="#ffec82" fill-rule="evenodd"/><path clip-rule="evenodd" d="m71.7 49.9c0 .1.1.3.1.4h.5z" fill="#ffec82" fill-rule="evenodd"/><path clip-rule="evenodd" d="m72.6 50.3.7-.2-.2.5-.6.3.5-.5s-.4-.1-.4-.1z" fill="#ffec82" fill-rule="evenodd"/><path clip-rule="evenodd" d="m72.9 51.4.6-.1.1-.5-.4.2.1.1z" fill="#ffec82" fill-rule="evenodd"/><path clip-rule="evenodd" d="m73 51.9-.3-.2.4-.2-.2.2.3.1z" fill="#ffec82" fill-rule="evenodd"/><path clip-rule="evenodd" d="m72.6 52 .5.1.4.2-.5-.1z" fill="#ffec82" fill-rule="evenodd"/><path clip-rule="evenodd" d="m73.3 52.6-.3-.2-.7-.1.5.3z" fill="#ffec82" fill-rule="evenodd"/><path clip-rule="evenodd" d="m72.2 52.7.6.1.5.2-.5.1z" fill="#ffec82" fill-rule="evenodd"/><path clip-rule="evenodd" d="m73.3 53.4h-.8l.6.2z" fill="#ffec82" fill-rule="evenodd"/><path clip-rule="evenodd" d="m72.2 53.9.2-.4-.4.4z" fill="#ffec82" fill-rule="evenodd"/><path clip-rule="evenodd" d="m73 54.2-.3.6.5-.4.5-.2z" fill="#ffec82" fill-rule="evenodd"/><path clip-rule="evenodd" d="m73.5 55.5.6-.3h-.7l.2-.5-.4.4.1.3z" fill="#ffec82" fill-rule="evenodd"/><path clip-rule="evenodd" d="m73.8 54.6.4-.1.2.2z" fill="#ffec82" fill-rule="evenodd"/><path clip-rule="evenodd" d="m73.8 55.8v.2l.4-.2z" fill="#ffec82" fill-rule="evenodd"/><path clip-rule="evenodd" d="m74.6 56.8-.3.7.5.1-.2-.3z" fill="#ffec82" fill-rule="evenodd"/><path clip-rule="evenodd" d="m76 57.9-.2.5-.4.2-.1-.8.1-.4.1.9z" fill="#ffec82" fill-rule="evenodd"/><path clip-rule="evenodd" d="m74.6 57.7.1.5.5-.2-.4-.1z" fill="#ffec82" fill-rule="evenodd"/><path clip-rule="evenodd" d="m77.4 48c.1.2.1.4.2.5l1-.1-.8-.2-.2-.4z" fill="#ffec82" fill-rule="evenodd"/><path clip-rule="evenodd" d="m77.1 48.5.2.8h.9l-.1-.3h-.6z" fill="#ffec82" fill-rule="evenodd"/><path clip-rule="evenodd" d="m76.3 49 .2.9 1.1-.1-.8-.2-.3-.5.6-.1-.6-.2z" fill="#ffec82" fill-rule="evenodd"/><path clip-rule="evenodd" d="m75.7 50.2v-.5l.2-.2.5.3.4.6-.8-.5z" fill="#ffec82" fill-rule="evenodd"/><path clip-rule="evenodd" d="m75.2 50.3.1.4.1-.1v-.3l.6.1.3.4v-.5l-.8-.2z" fill="#ffec82" fill-rule="evenodd"/><path clip-rule="evenodd" d="m74.2 45.8h.8l-.8.2z" fill="#ffec82" fill-rule="evenodd"/><path clip-rule="evenodd" d="m75.5 45.8.2-.7-.2.2z" fill="#ffec82" fill-rule="evenodd"/><path clip-rule="evenodd" d="m75.2 45-.2.7-.1-.6-.5.2.6-.7.1.5z" fill="#ffec82" fill-rule="evenodd"/><path clip-rule="evenodd" d="m74 44.9.4-.4.4.2-.5.2v.4z" fill="#ffec82" fill-rule="evenodd"/><path clip-rule="evenodd" d="m74.9 42.3v.4l.3-.4z" fill="#231f20" fill-rule="evenodd"/><path clip-rule="evenodd" d="m75.9 41.7.1.4-.5.4z" fill="#9eb326" fill-rule="evenodd"/><path clip-rule="evenodd" d="m74.5 42.5-.7.7s-.3.6-.2.6h.6l.5-.8z" fill="#9eb326" fill-rule="evenodd"/><path clip-rule="evenodd" d="m75.3 42.9-.7.8.1.5.4-.7z" fill="#9eb326" fill-rule="evenodd"/><path clip-rule="evenodd" d="m75.2 44.2v.2h-.3s.3-.3.3-.3z" fill="#9eb326" fill-rule="evenodd"/><path clip-rule="evenodd" d="m77.7 46.3.6-.5-.2.4z" fill="#231f20" fill-rule="evenodd"/><path clip-rule="evenodd" d="m78.3 46.7c.2-.1.4-.3.6-.5l-.2.5z" fill="#231f20" fill-rule="evenodd"/><path clip-rule="evenodd" d="m79 47.4.3-.1.1.3z" fill="#231f20" fill-rule="evenodd"/><path clip-rule="evenodd" d="m78.9 48.3.2.1-.1.3h-.2z" fill="#231f20" fill-rule="evenodd"/><path clip-rule="evenodd" d="m84.9 67.7c0-1.1.3-2.1.7-3.1.5-.6 1-1.2 1.6-1.8l2-.6 1.5.3s.8.5.8 1.1c.1.6-.2 1.1-.6 1.4-.5.3-3.1 1.3-3.1 1.3l-.8 1.5z" fill="#00805d" fill-rule="evenodd"/><path d="m84.9 67.7c0-1.1.3-2.1.8-3.1.5-.6 1-1.2 1.6-1.8l2-.6 1.5.3s.8.5.8 1.1c0 .3-.1.6-.1.8-.1.3-.3.5-.5.6-.5.3-2.9 1.2-3.1 1.3l-.8 1.4zm.8-3c-.4.9-.7 2-.7 3l2 .1.8-1.4s2.6-1 3.1-1.3c.2-.1.4-.4.5-.6.1-.3.1-.5.1-.8 0-.5-.7-1-.7-1l-1.5-.3-2 .6c-.7.5-1.2 1.1-1.6 1.7z" fill="#231f20"/><g clip-rule="evenodd" fill-rule="evenodd"><path d="m84.3 63.6h-.5l-.3.3.5.1z" fill="#231f20"/><path d="m82 63c.2.1.5.2.7.3l-.4.5z" fill="#231f20"/><path d="m80.7 63.8c.1 0 .8.1.8.1l-.5.4z" fill="#231f20"/><path d="m81.8 61.8c.2.2.4.4.6.6l.1-.4c.1 0-.7-.2-.7-.2z" fill="#231f20"/><path d="m83.7 62c0 .1.3.6.3.6l.2-.3z" fill="#231f20"/><path d="m80.8 60.7c.1.1.4.8.5.7s.4-.5.4-.5z" fill="#231f20"/><path d="m80.2 64.3h-1s.1.7.1.6z" fill="#231f20"/><path d="m81.5 65.6.9-.6-.6-.2c-.2-.1-.3.8-.3.8z" fill="#231f20"/><path d="m84 65.1c.1.2.3.3.4.4v-.8z" fill="#231f20"/><path d="m86.2 66.3.2-.7c.3 0 .5 0 .8.1 0 .1-.5.6-.5.6s-.4 0-.5 0z" fill="#231f20"/><path d="m88 64.6-.1.5.5-.4z" fill="#231f20"/><path d="m89.2 64.9c.2.1.3.1.5.2l.2-.4z" fill="#231f20"/><path d="m90.1 64.2c.2-.1.3-.2.4-.3l.4.1-.3.4c0-.1-.5-.2-.5-.2z" fill="#231f20"/><path d="m88.8 65.7.6.6-.2-.9z" fill="#231f20"/><path d="m85.7 65 .6.1-.6.4z" fill="#231f20"/><path d="m91.4 65.9c0 .1.3.7.3.7v-.7z" fill="#231f20"/><path d="m92 65.2v.3l.4-.3z" fill="#231f20"/><path d="m93.3 65.2v.3l.5-.3z" fill="#231f20"/><path d="m94.5 64.3h.6v-.3z" fill="#231f20"/><path d="m93.7 63.9.4-.3-.1-.4-.2.3z" fill="#231f20"/><path d="m94.4 65.9.6.4-.2-.5z" fill="#231f20"/><path d="m95.9 64.9.5.1.4.4-.5-.1z" fill="#231f20"/><path d="m94.6 65.2.6-.4.3.2-.3.3c-.1 0-.6-.1-.6-.1z" fill="#231f20"/><path d="m94.8 62.2-.3.8.4-.2z" fill="#231f20"/><path d="m80.4 62.8.3-.2.4.3z" fill="#231f20"/><path d="m78.3 63.6-.3.5.5-.1z" fill="#231f20"/><path d="m77 63.3.6.3v-.3z" fill="#231f20"/><path d="m75.4 62.5.6.4.2-.4z" fill="#231f20"/><path d="m76 64 .6-.3v.2l-.1.1z" fill="#231f20"/><path d="m75.1 61.4.5.4v-.4z" fill="#231f20"/><path d="m76.2 60.7c.1.2.2.3.3.5l.2-.3s-.5-.2-.5-.2z" fill="#231f20"/><path d="m74.4 62.8.6-.2-.1.4z" fill="#231f20"/><path d="m71.7 59.5.1.3h.3z" fill="#231f20"/><path d="m70.4 59.5.7.4.2-.2z" fill="#231f20"/><path d="m71.5 60.9.5-.1v.3z" fill="#231f20"/><path d="m73.5 61.3c-.1.1-.2.2-.2.3l.6-.2z" fill="#231f20"/><path d="m73.5 60.5.3.4v-.4z" fill="#231f20"/><path d="m73.8 59.3v.3h.4z" fill="#231f20"/><path d="m72.9 58.7v.4l.4-.1z" fill="#231f20"/><path d="m74.8 59.5-.4.4.4.1z" fill="#231f20"/><path d="m75.8 59.6v.5l.5.1z" fill="#231f20"/><path d="m69.9 57.4c-.2.2-.2.4-.1.6 0 0 0 .1.1.1.4.3.9.5 1.5.6l.9-.6s-.1-1-.4-1.2-.3-.3-.3-.3l.2-.8h-.6l-.4.5-.1-.4c-.3-.3-.5-.6-.6-.9-.2-.5-.2-.6-.4-.5-.2.2-.1.6.1.8.2.3.3.5.3.8l-.4.2-.5.7.5.1h.4z" fill="#f15b47"/><path d="m69.7 56.7s.3-.3.4-.3.4.6.4.6h-.5z" fill="#fff9ae"/><path d="m70.2 56.2.5-.1.2.5-.3.1-.4-.2z" fill="#fff9ae"/><path d="m71.2 55.9h.4l-.2.6h-.3z" fill="#fff9ae"/><path d="m70.7 56.9.6-.1.5.5-.1.7-.6.2-.9-.5v-.3z" fill="#fff9ae"/><path d="m77.1 61.9c-.2-.4-.2-.9-.1-1.3.1-.3.3-.5.5-.8 0 0-.2-.6-.1-.7s.8.2.8.2v.3l.3-.2h.2s0-.6.4-.8.3.3.3.3l-.4.6.1.1-.3.7s.7-.4.7-.4c.1.2.2.4.2.6l-.8.2-.2-.2s.2.7 0 .9c-.2.3-.5.6-.8.8z" fill="#f15b47"/><path d="m77.5 59.3.2.6h.2l.1-.5z" fill="#fff9ae"/><path d="m78.4 59.4-.1.4.2.3.3-.4-.1-.3z" fill="#fff9ae"/><path d="m78.9 60.3.5-.2v.3l-.6.1z" fill="#fff9ae"/><path d="m77.3 60.3-.3 1 .5.6.4-.3.6-1-.5-.3z" fill="#fff9ae"/><path d="m78.9 58.7-.1.5.4-.5z" fill="#fff9ae"/><path d="m95.1 63.8c.1-.5.3-.9.7-1.2.2-.2.5-.3.8-.4l.1.1s0-.7.2-.8.8.6.8.6.1.1.3-.2.8-.7 1-.6.5.3.1.5c-.3.2-.6.4-1 .6 0 0-.2.4-.3.4s.4.2.4.2l-.2.6-.7-.1v-.2s-.9 1.1-1.3 1.1-.8-.2-.9-.6z" fill="#f15b47"/><path d="m96.8 62.4v-.6h.5v.2z" fill="#fff9ae"/><path d="m97 62.7c.1-.2.3-.3.4-.5l.2.3-.4.3s-.2-.1-.2-.1z" fill="#fff9ae"/><path d="m97.5 63.1h.5l-.1.3-.4-.1z" fill="#fff9ae"/><path d="m95.3 63.8c.1-.3.2-.8.4-.9.3-.1.6-.2.9-.3l.1.3v.4c-.1.2-.2.3-.4.4-.3.1-.8.3-.8.3z" fill="#fff9ae"/><path d="m98.1 62.1c.2-.2.4-.4.7-.6l.3.1c-.1.1-.3.3-.4.4z" fill="#fff9ae"/><path d="m82.5 66.6c1-.1 2-.1 3 0 .6 0 2.4.3 2.4.3s.6-.5 1 0 .1 1.2.1 1.2.3.9.1 1.4c0 0 .7 1.4-.5 1.3-1 .3-2 .5-3 .4-1.6-.2-3.2-.5-3.2-.5s-1.1.5-1.3-.1c-.1-.4.1-.8.5-.9 0 0-.7-.6-.6-1.1s.3-.8.3-.8-.8-1 .1-1.2c.4-.1.9-.1 1.3.2z" fill="#e2891a"/><path d="m73.2 64.3c.4-.3 1-.3 1.5 0 .2.3.4.6.4.9l-.6.4s-.8.1-1-.4c-.1-.3-.2-.6-.3-.9z" fill="#e9bd67"/><path d="m76.7 69.9c.3-.5.7-.8 1.2-.9.4 0 .7.2.9.5.1.3-.1.6-.4.7-.5.2-1 .2-1.6.2z" fill="#e9bd67"/><path d="m92.3 67.6c0-.2 0-.5.2-.7.6-.2 1.3-.2 1.9 0 .3.2-.3.6-.3.6l-.1.4s-1 .8-1.7-.3z" fill="#e9bd67"/><path d="m65.7 58.1-.9-.6-.1-.4c-.5-.2-.8-.7-.8-1.2l.8.1-.3-.9.3-.7s.5.3.6.3-.2-.4.2-.8c.4-.3.8-.5 1.3-.6 0 0 .1.7-.1.9s.6.2.6.2-.3 1.2-.8 1.3.8 0 .8 0-.1.9-.6 1-.3.9-.3.9l-.4.7z" fill="#267f5f"/><path d="m66.9 60.7-.8.5c-.1.3-.1.6.1.9.1.2.2.4.2.7l-.8-.3.4 1.1s.6 0 .7.3-.2.3-.2.3l-.5.3s.9.6 1.2.6 1.3.5 1.3.5h.5l-.2-1s-.4 0-.3-.5c0-.4 0-.8 0-1.3l-.8.2s.8-1.1 0-1.9l-.5.5-.1-1h-.2z" fill="#267f5f"/><path d="m70.1 66.8c-.3.4-.7.8-.4 1.1s.7.4.7.8l-.9.3.7.9h.8l-.2.5-.4.1.3.3 1.4-.2 1.5-.3-.4-.8h-.2s-.1-1.4-.5-1.6-.7.9-.7.9 0-1.6-.4-1.8l-.4.8c-.2 0-.2-.9-.9-1z" fill="#267f5f"/><path d="m75.7 70.9-.1.5c.1.3.2.6.2.9-.1.4.2.8.6.8.4.1.7.2 1 .3l-.7.6c0 .3.3.6.6.5.4 0 .9-.1 1.3-.3h.5l-.4.3v.6s1.3-.4 1.5-.9 2.1-1.6 2.1-1.6-1.1-.1-1.2-.3-.9-.4-.9-.4-.6-.9-.9-.9-.5 1.1-.5 1.1-.5-1.1-1.2-1.1-.7.1-.7.1l.2.4c-.3 0-.5-.1-.7-.3-.2-.1-.5-.3-.7-.3z" fill="#267f5f"/><path d="m64.8 59.1.6-.1v.7l-.6.5-.7-.4.4-.5-.1-.3.1-.4.4.2z" fill="#faa74a"/><path d="m66.9 59.4-.6-.6.4-.4.7.2v-.4h.4l.1.5h-.2l.2.6-.6.2z" fill="#faa74a"/><path d="m69.2 64.7.7-.1-.2-.5h.5l.2.5.2.6-.5.2-.9-.2z" fill="#faa74a"/><path d="m68.2 65.6.3.5-.1.4-.3.2-.4.1-.3-.3.1-.5h-.1l.1-.6.3.2z" fill="#faa74a"/><path d="m74.4 70.3.6.3.6-.3.1-.5-.2-.6-.4-.2-.4.2.1.2c-.1.2-.3.4-.3.6-.1.1-.1.3-.1.3z" fill="#faa74a"/><path d="m74.4 71.6-.7-.7v.4l-.7.3.2.5.6.3.7-.3z" fill="#faa74a"/><path d="m75.1 70.3.7 1.1-.5-1.2z" fill="#925833"/><path d="m74.2 71.6 1.1-.2-1.1.5c.1 0 0-.3 0-.3z" fill="#925833"/><path d="m68.2 66.2 1.4.3-1.3-.2c0 .1-.1-.1-.1-.1z" fill="#925833"/><path d="m69.7 65.2-.2 1.1v-1.3z" fill="#925833"/><path d="m65.2 59.6 1.2.7-1.2-.5z" fill="#925833"/><path d="m67 59.3-.5 1.2.7-1.1z" fill="#925833"/><path d="m65.8 58 .7 3.5.3-.4z" fill="#00662f"/><path d="m70 67.3-1.4-2.2 1.6 2z" fill="#00662f"/><path d="m75.7 71.4-2.5-1.4-.3.1 3 1.7z" fill="#00662f"/><path d="m81 72.5 2.6.3-2.4.1z" fill="#00662f"/><path d="m103.5 60.4c.1-.6 0-1.2-.3-1.7-.2-.5-.3-1-.3-1.5l-.1-1.6 1.1 1.2c-.1-.5-.1-1 .1-1.4s.5-.8.8-1.1l.5 1.7.4-.4c.3.6.4 1.4.3 2.1-.2.9-1.7 2-1.7 2l-.7.9z" fill="#59a056"/><path d="m103.1 56.4c-.1.5-.1 1 .1 1.5.1.3.2.5.3.8l-.2-1.6z" fill="#00763e"/><path d="m104.7 54.9c-.3.2-.5.6-.6 1 0 .2-.2 2.2-.2 2.2l.5-2 .1-.6z" fill="#00763e"/><path d="m105.6 56c-.3.3-.4.8-.4 1.2-.2.7-.5 1.4-.8 2l1-1.5.3-.9z" fill="#00763e"/><path d="m102 61.4c-.7.8-1.2 1.1-1.3 1.5-.1.7-.2 1.4-.2 2.1l.1 1.5c.7-.3 1.4-.6 2-.9.7-.3 1.2-.8 1.5-1.5.3-1 .8-2.2.8-2.2l-1.5.6.2-1.5c-.4.2-.7.4-.9.8-.2.5-.7 1.2-.7 1.2 0-.4 0-.7.1-1.1.1-.2.1-.4-.1-.5z" fill="#59a056"/><path d="m101.4 62.4c-.3.5-.5 1.1-.6 1.7 0 .5 0 .9.1 1.4.4.1.7 0 1.1-.1.3-.2 2.2-2.5 2.2-2.5l-.8-.2-.4 1.3-1.7 1.4.4-1.4 1.3-1.6-1.3 1.1-.7 1.4.2-1.7z" fill="#00763e"/><path d="m95 71.1c.5-.4.8-1 1-1.6s.5-1.1.9-1.5c.5-.5.9-1.1 1.3-1.7h.3c-.3.7-.5 1.3-.6 2 0 0 1.3-1.4 2.4-1.3l-.7 1.6.6-.3s-.2 2.2-1.2 2.3-2.1.2-3.1.1l-.6.5z" fill="#59a056"/><path d="m97.7 67.3-1 1.2-.7 1.8 1-1.6c0-.1.7-1.4.7-1.4z" fill="#00763e"/><path d="m99.7 67.3-1.2.7-.7.8-1 .8 1.5-.8.5-.7z" fill="#00763e"/><path d="m99.5 69-2.8 1.6 1.6-.4z" fill="#00763e"/><path d="m86.1 72.5h1.5 1.3c.1 0 1.1-.9 1.1-.9l2.7-.8-2.5 1.3c.7-.3 1.4-.4 2.1-.4s1.4.1 2.1.2l-2.1 1.2 1.5.3c-.6.1-1.2.3-1.7.7-.8.5-1.7 1-2.6.3s-2.8-1.6-2.8-1.6h-.7z" fill="#59a056"/><path d="m89.5 74c.8-.1 2.6-.2 2.7-.3s.2-.2.3-.4l-2.7.1c-.4 0-.9 0-1.3-.1z" fill="#00763e"/><path d="m92.7 71.9c-.8.2-2.7.4-2.7.4l-.5.6s-2-.1-1.8-.1l1.8.3h1l.3-.4z" fill="#00763e"/><path d="m84.4 72.1v1.4c-.3 0-.6-.2-.6-.5-.1-.5.6-.9.6-.9z" fill="#244d90"/><path d="m85.2 72.2c0 .7-.1 1.4 0 1.3s.7-.2.5-.7c-.1-.3-.3-.5-.5-.6z" fill="#d0181f"/><path d="m83.9 73.7.5.2c-.5.1-1 .4-1.4.8-.6.6-1 1-1 1l.1-.8z" fill="#244d90"/><path d="m85.1 73.9-1.4 1.1-.4.6.3.5 1.2-1c.3-.3.6-.6.9-.9.1.3.3.6.6.7.4.2.8.4 1.2.6h.8c-.6-.2-1.1-.5-1.7-.8-.3-.4-.6-.7-.8-1.2z" fill="#d0181f"/><path d="m94.3 69.5-.2.9.3.3.6-.5z" fill="#faa74a"/><path d="m95.4 71.9.2.8.8-.7-.6-.2z" fill="#faa74a"/><path d="m99.4 64.9c-.3.3-.3.8-.1 1.1l.6-.2v-.5z" fill="#faa74a"/><path d="m101.3 67 .2-.4.4.1.2.5-.4.3-.5-.1z" fill="#faa74a"/><path d="m102.6 59.3.2.3-.1.6-.5.1-.2-.3v-.6z" fill="#faa74a"/><path d="m105.3 60v.6l-.6.5s-.5-1 .6-1.1z" fill="#faa74a"/><path d="m77.7 47s-3.4.6-1-2.9c.1-.5.4-1 .9-1.3.8-.4 1.2-1.4.7-1.8 0 0 .6.1.7.3.2-.3.4-.7.4-1.2.2.4.4.8.5 1.3.2-.5.4-1 .5-1.5.1.3.2.6.2.9.4-.1.6-.5.5-.8 0 0 0 0 0-.1 0 0 .9.4.8 1 0 0 .4-.2 1.4.3s1.3.2 1.3.2-.1.3-.2.3c.5.3.9.6 1.3 1.1.3-.5.1-1.1-.3-1.4-.8-.6-2.5-.9-2.3-1.7.1-.7.8-1.1 1.4-.9h.1c.1-.5.6-.9 1.2-.8 2 .1 4 .6 5.8 1.4 1.8 1 2.4 1.5 3.4 1.1 0 0 0 .6-.2.8 1.5 1.1 2.7 2.6 3.6 4.2.8 1.6.9 3.3 2.6 4.3 0 0-.1.2-.6.3.2 1.8.1 3.6-.3 5.4 0 0-.3 3.9-.8 5 0 0 .2-7.2-.8-7.9 0 0 .4 5.7-.1 7 0 0-.2-4-.7-4.6 0 0 .1 3.2-.3 4 0 0-.5-4.3-1.1-4.8.1.7.1 1.5 0 2.2 0 0-.5-2.4-1.1-2.8.1.7.2 1.5.2 2.2 0 0-1.1-2.5-1.7-2.8.2.7.4 1.3.6 2-.5-.9-1-1.8-1.7-2.7.2.8.5 1.5.8 2.2 0 0-1.2-1.7-1.8-1.9s-.5.2-.8-.2-.7-.9-1.1-.7c0 0 1 2.4.8 3.2 0 0 6.1 4.2 6.8 5s-.6.9-.9 1c-.3 0-.6 0-.8-.1 0 0-.2.6-1.2.6-.5.3-1.1.2-1.6-.2-.6.2-1.2 0-1.5-.5-.3-.4-.7-.7-1.1-1-.2.2-.2.5 0 .8l-.5-.2v.5c.2.3.5.6.9.8.3.1 1 0 1.2.3s0 .5 0 .5l-.6.8s-.7.5-1-.5h-1.7l-.8.8h-.6l-.5-.6v-.5h-.7l-.3-.9s-.1-.3.2-.3c.4.1.9.1 1.3.1.3-.2.5-.5.5-.9l-.4.5-1.2-1.8-.1.5-1.5-1.6s.1 1.2-.2 1.4-.6-.6-.6-.6-1.2.4-1.6.4-1.2.1-.6-.4l-2.1-.5.5-.5-.6-.1s.4.3-.1.3c-.3 0-.5 0-.8-.1-.1 0-.7 0-.7 0s-1 .4-1.3.3c-.4-.4-.7-.9-.7-1.5.1-.3.3-.4.4-.3s-.1-.9.6-.6c0 0 0-1 1-.5l.5-.2c.7.2 1.4.4 2.1.7.3.2.5.5.4.9h.8s-.9-.8-.8-1.3c.2-.1.4-.1.5-.1.2 0-.8-.8-.5-1.8-.1-.2-.2-.4-.3-.6l-.5.2s-.4-1.6-.7-2.7c-.1-.7.1-1.4.6-1.9 0 0-.3 0-.1-.3s.9-1.3.9-1.5h-.3s.3-.4.5-.8c.1-.2.2-.4.3-.6l-.3-.3c-.5.3-1.1.6-1.6.8-.3 0-.4 0-.6-.2-.3-.4-.8-.5-1.2-.2 0 0-.1.1-.1.1-.4.3-.4 1 .5 1.5z" fill="#231f20"/><path d="m78 43.9 1.1-.5c.1-.2 0-.4-.1-.5l-.5-.4.3.7-.3-.2-.3.3.1.1c0 .1-.3.5-.3.5z" fill="#fff200"/><path d="m77.2 44c1 .4 2 .6 3.1.5.2.5 0 .5-.1.6-.4.2-.8.4-1.2.5 0-.1.1-.2.2-.2.2 0 .5-.2.5-.2s0-.2 0-.2c-.3-.2-.7-.2-1.1-.2-.3.1-.7.2-1 .3-.4 0-.8.2-.8.4-.2.4-.1.9.3 1.3 0 0-1.2 0-1.3-.8s1.1-2.2 1.4-2z" fill="#f8951d"/><path d="m78.5 45.5s.4-.4.5-.4c.1-.1.2-.1.3-.1h.4z" fill="#fff200"/><path d="m85.5 61.6c.1.3.2.6.3.9 0 .1.6 0 .7 0 .4-.2.8-.4 1.1-.6.2-.2.5-.3.4-.4s-.7-.5-.7-.5c-.1.2-.2.3-.3.5-.3.2-.6.2-.9.2-.1-.2-.6-.3-.6-.1z" fill="#f8951d"/><path d="m91.1 61.9c-.3 0-.5 0-.8 0-.4-.2-.7-.4-1-.7-.2-.1-.4-.2-.6-.3l-.5.8s.3.3.6.3.9.1 1 .3.2.7.3.8.3.3.6.2l.6-.9c.1 0 .1-.4-.2-.5z" fill="#f8951d"/><path d="m86.7 62.5c.2-.1 1.5-.8 1.5-.8s.4.5.5.5h.9c.1 0 .2.4.2.4h-1.6l-.8.8h-.4c-.2-.2-.3-.3-.4-.5-.1 0-.1-.4.1-.4z" fill="#f8951d"/></g><path d="m85.4 61.6s.2.8.2.9 0 .1-.2.2c-.2 0-.4.3-.4.6v.4l-.2-.4c-.4-.6-.2-1.4.4-1.8l.1-.1zm0 .9s-.2-.5-.2-.7c-.3.3-.5.7-.3 1.1.1-.2.3-.4.5-.4 0 0 0 .1 0 0z" fill="#231f20"/><path clip-rule="evenodd" d="m85.3 61.7.3.9c0 .1-.7.1-.6.8-.4-.7-.3-1.4.3-1.7z" fill="#d1d3d4" fill-rule="evenodd"/><path d="m86.4 63.1.4.5.1.1h-.1s-.4.2-.4.9v.4l-.2-.3s-.7-1.1.1-1.7l.1-.1zm.1.5-.3-.3c-.2.3-.3.7-.1 1 .1-.3.2-.5.4-.7z" fill="#231f20"/><path clip-rule="evenodd" d="m86.3 63.1.4.5s-.5.2-.4 1c0 .1-.7-.9 0-1.5z" fill="#d1d3d4" fill-rule="evenodd"/><path d="m91 63.3.5-.7.1-.1.1.1c.3.4.4 1 .1 1.5l-.2.2v-.3s-.1-.7-.4-.6l-.3.1zm.5-.5-.3.4c.2 0 .3.3.4.5.1-.3.1-.6-.1-.9z" fill="#231f20"/><path clip-rule="evenodd" d="m91.1 63.3.5-.7c.3.4.4.9.1 1.4 0 0-.2-.8-.6-.7z" fill="#d1d3d4" fill-rule="evenodd"/><path d="m75.7 56.8c.1.5.3 1 .7 1.3.3.2.5-.2.5-.2l-.7-1.4s-.5-.2-.5.3z" style="fill-rule:evenodd;clip-rule:evenodd;fill:#f8951d;stroke:#231f20;stroke-width:.22;stroke-miterlimit:2.41"/><path d="m76.3 55.8c-.1.2-.1.4-.1.6.2.5.5 1 .8 1.5.1 0 .1.1.2.1s.2-.1.4-.1c.1 0-.3-.7-.3-.9s-.1-.6-.2-.7-.2-.1-.2-.2-.4-.3-.6-.3z" style="fill-rule:evenodd;clip-rule:evenodd;fill:#f8951d;stroke:#231f20;stroke-width:.22;stroke-miterlimit:2.41"/><path d="m77.1 55.2c-.1.1-.2.3-.3.5 0 .2.1.4.3.5.1.1 0 .6.2.8s.2.8.4.8.4.1.4 0c-.1-.3-.2-.6-.3-.9s-.1-.7 0-1c0-.3 0-.5 0-.5-.2-.2-.5-.2-.7-.2z" style="fill-rule:evenodd;clip-rule:evenodd;fill:#f8951d;stroke:#231f20;stroke-width:.22;stroke-miterlimit:2.41"/><path d="m78.7 56.7c.2.2.4.4.5.7 0 .1.2.2.2.4s-.6.2-.9.1c-.2-.1-.3-.3-.3-.5s-.1-.3-.2-.5c.2-.1.4-.1.6-.2-.1-.1 0-.1.1 0z" style="fill-rule:evenodd;clip-rule:evenodd;fill:#f8951d;stroke:#231f20;stroke-width:.22;stroke-miterlimit:2.41"/><path clip-rule="evenodd" d="m77.3 43.9c.4 0 .5.1.5 0 .2-.2.3-.4.4-.7.2-.4.3-.9.4-1.4-.1.3-.3.6-.6.8-.4.2-.6.3-.7.5-.1.1-.1.3-.2.4v.3zm8-4.5-.3-.9.3-.3h1.3l2.3.4 2 .8s1.3.7 1.4.8 1 .5 1 .5l1.4.2-.4.5-.8.4-1.1-.1-.4-1.5-.2 1.2-.8-.3-.3-.2-1.2-1.7.2 1.3-1.2-1.2-.9-.3 1 1.1-.9-.4h-1zm4.4 1.4.2.9h.9l-.5-.8zm1.1 1.3.8.1.5.7.6-.1v-.7l-1.1-.6zm-.9 0 .4.2 1 .3.8.8v.8l-.5-.6-1.9-.7zm0 1.7.5 1.1.8.6.5.4.6-.5-.3-1.1-.9-.3s-1.2-.2-1.2-.2zm0 1.9.4-.1.6.3.6.7-.2.5h-.8l-.6-.6zm-.8 1.8-.2.4.6.5.8.1v-.8l-.6-.6zm.6 1.7.4-.3.4.5-.2.5-.7-.3zm3.3-6 .4-.4 1 .7.6.9.3 1.1.9 2-1.2-1.9-.4-.9-1.2-1.1zm-.5 1.5.2.9 1 1.4 1.2 1.1.2-.3-.1-.9-.7-1.1-1.3-1.4zm-.6 1.8.5 1 1.1.7-.7-1.1-.4-.9zm-1.2 1.4 1.2-.4.2 1-.1 1.2-1-1.1zm7.7 1.5 1.6.2-.8-1-.9-2.3-.6-1.3-1-1.2-1.4-1.4-1-.6-1 .5 2.1.8-.7.3 1.3.6-.7.2 1.9.9-.7.2 1.3 1-.6.1.1.6 1.2 1.4.2.7zm-1.9-.6.5.6.6-.1-.1-1.5-1.6-2.1 1 2.7zm-1.2.8h.9v-.8l-.8-1.8.2 1.3-.2.6-.4.1-.1.5zm-1.8-.3.8.1v-1.1l-1.2-1.6.6 1.4.1.7zm-1.6.8.4-.5v-.9l-.3-1.2.9 1.6v.9zm-1.7.7.7.1.3-.7-.5-1.4.1 1zm-.2.4h.7l.1.3 1.5 1.5-1.6-.9zm1.2-.1.4-.2.5.8.8.7-1.1-.5c-.1-.1-.6-.8-.6-.8zm7-1.4.8.2v1.3l-.1.3-.3-.2-.2-.7zm1.2.2.5.2s.2 2 .2 2.1 0 2.2 0 2.2l-.9-2.6zm-2-.2.3 1.4 1.2 1.4-.9-1.6-.2-1.1s-.4-.1-.4-.1zm-5 .7.3 1.2 1.8 1.5-.7-1.2-.5-1.5zm1.5-.5.6-.1.5 1.8.9 1.5-.4.3-.9-1.3c0 .1-.7-2.2-.7-2.2zm2 .2v1.3l.7 1.3.7 1.5-.1-1.2-.8-1.6.2-1.3zm-6.6-.1.1 1.4h.4l.1-.9s-.6-.5-.6-.5zm-.8-.1.3-.4v-.7l-.3-.4.2-.3.6.5.2.7-.6 1zm-1.2-3.6c0-.1.3-1.1.3-1.1l-.7-1.4.6.4.2-.1-.1-.7-1.2-.8h.6l.7.5-.7-1.2-.8-.4.7-.1-1.1-.7h-.8l.3-.3-.5-.3-.8.1.9-.4-.4-.2-.5-.2.6-.2-.2-.2-.6.1-.4.3-.2.5.2.5.6.3 1 .4.6.4.3.5.2.8v.5l.8 1.7c-.1-.1.5 1.3.4 1.3zm0 .4.6-.5.4-.9.1-1.3-.3-1.5-.5-.9-.9-1.2-.8-.3.8.8.9 1.2.4 1.2v1.7l-.2 1c0-.1-.5.7-.5.7zm.7.2h-.8v1.6l1.1-.3.5-.8zm.5-1.2 1 .4-.2.8h-.4l-.9-.5zm.3-1.5.8.4v1h-.6l-.4-.4zm-.1-1.8 1 .4-.1 1-.2.4-.7-.2zm-1.5-1.9.8 1.4.8.3.8.2-.2-1.5-.8-.4zm-8.6 17.1.6-.3.1.2-.1.3h-.4zm1-.7-.4.2.1.1.2.3.6-.4-.3-.3zm1-.7.1.5-.2.3-.5-.3.5-.8zm-.8 1.4.6-.3.4.4zm2.8.2-.4-.9-.6-.2-1.1.4.6.5 1.2.5zm-2.7.4.1-.2.2-.2 1.9.5-.4.4c0-.1-1.8-.5-1.8-.5zm3.3-.6.4 1.1-1.2.3h-.8l.5-.6.9-.6zm1.6.1.6.6.3.5h-.3l-.6-.8zm-1.3-1.3h.5l.4.9-.9-.6zm0 .5v.5l.2.8.5 1 .2-1v-.3zm6.5 1.6 3.3 2.9-.5-.1-2.9-2.7zm.3-1.3-.1.4 4 3.6.6-.1zm.2-1-.1.3 5 4.2.4.1.4-.1zm.1-.7v.3l6.5 4.8-.1-.4zm-1.6 2.5v.6l.2.2.1.6.3.7.1-1.2.1-1.1-.2-.2-.3.8zm-.8 1v-.4l.8.4.2.5v1l-.5-.5zm-1.1-.6.1.9.4.8.7.9.3-.5-.4-.8c.1 0-1.1-1.3-1.1-1.3zm-1 .7.8.2.4.7-.1.7s-1.1-1.6-1.1-1.6zm-4.8-3.8.8.4-.1.8-.5-.4-.3-.5zm1-.1.7.8.4.3-.1.8-.4.5-.5-.6-.2-.2zm7.2-2.9-.3 1.7.4.9.2 1.6v.6l.2.3.2-1.2-.1-1.2v-.4-.6zm-1.3 1.3.8.5.5 1 .2 1.4-.1 1.2-.4-.3-.9-2.9zm-1.4.4 1 .7.4 1.2.6 1.9-.1.8-.4-.3-1.4-2.8zm-1.3 1 .1.9 1.2 1.5 1.2 1.5.2-.4-.9-1.5-.7-1.3c.1 0-1.1-.7-1.1-.7zm-1.2.5-.1.9.3.8.9 1 1.6.8-.4-1.4-1-1.3zm-3.3-1.8-.1.3.3.7.6.7.1-.4-.4-1zm-.2-1.4-.1.4.2.5.6.4.5 1 1.2 1.4.8.3-.2-1.3-1.3-1.5-.5-.3zm6.5-3.3.2 1-.2 1 .5 1.4.3 1 .8.5.2-1.3-.1-1.2-.6-.9-.2-.5v-.5zm-.9 2.2-.2.9.4 1.4 1.1.9-.1-1.7-.4-1.3zm-1.5.6 1 .4.7 1.7.1 1.6-1.3-.8-.2-1-.6-.7zm-2.2.2v1.2l1 1.4 1.5 1.1s-.2-1.7-.3-1.7-.8-.9-.8-.9l-.7-.3zm3.3-3.1h.7l.4 1.2-.1 1.1-.6-.5-.2-.7-.2-.8zm-.9-.4-.3.4-.2.8.1 1 .1.8.8.4.4-1.1v-.6l-.2-1.2zm-4.3 0-.3 1.8.1 1.5-.1.8-.4.2-.4-1.5-.2-1.3.2-.7.4-.6.2-.2.6-.1zm.1.8 1.1-.3.4-.3v1.9l.1 1-.2 1.7s-1.3-.9-1.3-1.1-.3-1.7-.3-1.7zm1.8-.1.6.7h.5l.7-.5.1 1.4-.1 1.2-.2.8-1-.9-.6-1.5zm-3.5-5.6.8.5.9.1.6.3-.3.5-.4-.2-.1-.5h-1l-1.4-.2zm.3-.3-.2.1.7.6.6-.1.7.4.5-.2-.4-.6-.4-.1-.9.1zm1.5 3.5.2.2-.4 1.3h-.8zm1.2-.5-.8.4-.6 2.4 1.2-.4.6-1.3v-.7zm-.5-1.8-.2.7-.4 1.2.8-.2.4-.6v-.8zm1.3-.1.2.5h.3v1l-.4.9-.6-.8v-1.2zm.7 1.7 1.1.6.1 1-.2 1.1-.8.8-.3.1-.7-.9-.2-.6.3-.9.4-.8zm1.2-.7.7.7.5-.9.4-.3.3 1.8.2.7v.5l-.3.5-.3.2-1-.4-.4-1.5-.2-.4zm-5.3-2.4 1-.9.6-.3 1.6.1.8.2h.8l.8.4.7.7.4.9-.3.8-.4.8-.8-.9-.3-1.2-.5-.7h-.9l.8.4.4.9.3.7v1.3l-.8-.5-.2-1.3-.3-.3v-.4l-.6-.9-1-.5h-.3l.2-.2-.3.1-.2.4h-.3l-.5.5.7-.2.4-.2.9.2.4.5v1l-.6-.2-.4-.8.3-.2h-1.4l-.5.2zm2.3-1.5-.1-.5.4-.1.4.1.5.2 1 .4-1.2-.1zm-.6-1.1-.4.6-.3.7 1-.2.1-.4-.1-.5zm-.9.2-.4 1.1-.2.6.2-.1.2-.3.3-.6zm-1.6 1v.3l.1.4v.3l.3.3h.2l.3-.6.1-.7-.3-.7-.1.5-.3.3z" fill="#884c00" fill-rule="evenodd"/><path clip-rule="evenodd" d="m76 51c-.1.5-.6 1.8.5 2.1s1.2 0 2 .1 1.5.6 1.8 1.4c.2.7 0 1.4-.4 1.9-.3.2-.9.5-.9.5s-.2-.5-.5-.5-.5.1-.8.2c-.1-.2-.1-.5-.1-.7s.1-.5.1-.7c0-.1.3-.2.4-.2s-.7 0-1.2 0-1.8-.6-1.9-1-.4-1.2-.3-1.5c.6-.6.9-1.1 1.3-1.6z" fill="#623300" fill-rule="evenodd"/><path clip-rule="evenodd" d="m74.6 55.3-.2.5.4-.4z" fill="#ffec82" fill-rule="evenodd"/><path clip-rule="evenodd" d="m75.2 56.6v-.3h-.8l-.2.6.3-.3z" fill="#ffec82" fill-rule="evenodd"/><path clip-rule="evenodd" d="m75.6 57h-.8l.8.3z" fill="#ffec82" fill-rule="evenodd"/><path clip-rule="evenodd" d="m74.8 50.9.3.5h.4l-.4-.4.9-.1z" fill="#ffec82" fill-rule="evenodd"/><path clip-rule="evenodd" d="m74.6 51.8v-.4l.7.2h-.5z" fill="#ffec82" fill-rule="evenodd"/><path clip-rule="evenodd" d="m74.4 51.9.3.5v-.5z" fill="#ffec82" fill-rule="evenodd"/><path clip-rule="evenodd" d="m74.4 52.8.6.3.3.3h.4l-.5-.6z" fill="#ffec82" fill-rule="evenodd"/><path clip-rule="evenodd" d="m74.8 52.4.8.5-.4-.6z" fill="#231f20" fill-rule="evenodd"/><path clip-rule="evenodd" d="m74.5 53.4.3.5v-.4z" fill="#ffec82" fill-rule="evenodd"/><path clip-rule="evenodd" d="m75.1 53.9h.6l-.3.1z" fill="#231f20" fill-rule="evenodd"/><path clip-rule="evenodd" d="m78.9 53.6.1.6s-.2.9-.2.8.5-.8.5-.8-.4-.6-.4-.6z" fill="#231f20" fill-rule="evenodd"/><path clip-rule="evenodd" d="m77.5 53.6c.1.1.6.9.6.9v-.6z" fill="#231f20" fill-rule="evenodd"/><path clip-rule="evenodd" d="m76.5 53.4.2.9-.1.4.5-.4z" fill="#231f20" fill-rule="evenodd"/><path clip-rule="evenodd" d="m76 53.2-.3.4.5-.1z" fill="#231f20" fill-rule="evenodd"/><path clip-rule="evenodd" d="m79.9 55.5-.6.1-.8-.2.8.5c0 .1.6-.4.6-.4z" fill="#231f20" fill-rule="evenodd"/><path clip-rule="evenodd" d="m78.2 55.8-.2.5.4-.1z" fill="#231f20" fill-rule="evenodd"/><path clip-rule="evenodd" d="m78.3 62.5.6.3-.1-.3z" fill="#231f20" fill-rule="evenodd"/><path clip-rule="evenodd" d="m66.3 54.3-.6 1.5v2l-.5-.4-.5-.7.6-.2-.3-1.3s.5.1.5 0 .2-1 .2-1z" fill="#59a056" fill-rule="evenodd"/><path clip-rule="evenodd" d="m66.8 61.8 1.5 3.3-1.6-.7.5-.5-1.3-.8.9-.3z" fill="#59a056" fill-rule="evenodd"/><path clip-rule="evenodd" d="m70.4 67.8 1 1.2 1 1-1.2.1s-.1-.7-.2-.7-1-.2-1-.2l.7-.5z" fill="#59a056" fill-rule="evenodd"/><path clip-rule="evenodd" d="m76.2 72 2 1h2.9l-1.6 1-.6-.5-1.3.5.2-.6-1.3-.8z" fill="#59a056" fill-rule="evenodd"/></g></svg>