<svg enable-background="new 0 0 170.1 113.5" viewBox="0 0 170.1 113.5" xmlns="http://www.w3.org/2000/svg" xmlns:xlink="http://www.w3.org/1999/xlink"><clipPath id="a"><path d="m85 0c31.3 0 56.7 25.4 56.7 56.7s-25.4 56.7-56.7 56.7-56.7-25.3-56.7-56.6c0-31.4 25.4-56.8 56.7-56.8z"/></clipPath><path clip-rule="evenodd" d="m85 0c31.3 0 56.7 25.4 56.7 56.7s-25.4 56.7-56.7 56.7-56.7-25.3-56.7-56.6c0-31.4 25.4-56.8 56.7-56.8z" fill="#ccc" fill-rule="evenodd"/><g clip-path="url(#a)"><path clip-rule="evenodd" d="m12.2.1h170.1v113.4h-170.1z" fill="#f0f0f0" fill-rule="evenodd"/><path d="m103.3 37.8-56.5-37.8 135.4.1.1 37.7z" fill="#ff1612"/><path d="m12.2 99.8v-9l50.6-34.1-50.6-33.8v-9.2l64 43z" fill="#fed241"/><path d="m12.2 13.7v-13.7l20.8.1 67.3 45.4 82-.1-.1 22.7h-81.8l-67.4 45.3h-20.8v-13.6l64-43.1z" fill="#00840f"/><path d="m46.8 113.4 56.4-37.8 79 .1.1 37.8z" fill="#0540a8"/><path d="m12.2 22.9 50.6 33.8-50.6 34.1z" fill="#131313"/></g></svg>